Plaster.glyphspackage
{
glyphname = exclam;
kernLeft = KO_exclam;
kernRight = KO_exclam;
layers = (
{
layerId = m01;
shapes = (
{
closed = 1;
nodes = (
(873,679,l),
(912,1700,l),
(282,1700,l),
(322,679,l)
);
},
{
closed = 1;
nodes = (
(826,0,o),
(915,65,o),
(915,207,cs),
(915,349,o),
(815,406,o),
(599,406,cs),
(383,406,o),
(279,348,o),
(279,207,cs),
(279,69,o),
(389,0,o),
(610,0,cs)
);
}
);
width = 1194;
}
);
note = exclam;
unicode = 33;
userData = {
KernOnSpecialSpacing = {
L = "spaced-off";
};
};
}
{
glyphname = quotedbl;
kernLeft = KO_quotedbl;
kernRight = KO_quotedbl;
layers = (
{
layerId = m01;
shapes = (
{
closed = 1;
nodes = (
(1024,1585,l),
(1024,1422,ls),
(1024,1335,o),
(1049,1204,o),
(1098,1030,c),
(1406,1030,l),
(1455,1207,o),
(1479,1338,o),
(1479,1422,cs),
(1479,1585,l)
);
},
{
closed = 1;
nodes = (
(395,1585,l),
(395,1422,ls),
(395,1335,o),
(420,1204,o),
(469,1030,c),
(779,1030,l),
(828,1207,o),
(852,1338,o),
(852,1422,cs),
(852,1585,l)
);
}
);
width = 1874;
}
);
note = quotedbl;
unicode = 34;
userData = {
KernOnSpecialSpacing = {
L = quotes;
R = quotes;
};
};
}
{
glyphname = numbersign;
kernLeft = KO_numbersign;
kernRight = KO_numbersign;
layers = (
{
layerId = m01;
shapes = (
{
closed = 1;
nodes = (
(701,0,l),
(756,469,l),
(1050,469,l),
(995,0,l),
(1188,0,l),
(1243,469,l),
(1467,469,l),
(1484,660,l),
(1265,660,l),
(1296,923,l),
(1509,923,l),
(1527,1116,l),
(1319,1116,l),
(1375,1588,l),
(1183,1588,l),
(1127,1116,l),
(831,1117,l),
(887,1588,l),
(696,1588,l),
(640,1117,l),
(407,1117,l),
(388,923,l),
(617,923,l),
(586,660,l),
(365,660,l),
(346,469,l),
(564,469,l),
(509,0,l)
);
},
{
closed = 1;
nodes = (
(809,923,l),
(1104,923,l),
(1073,660,l),
(778,660,l)
);
}
);
userData = {
assembly = "PUSHW[ ]	/* 4 values pushed */
15 7 1 4
CALL[ ]	/* CallFunction */
PUSHW[ ]	/* 1 value pushed */
15
SRP0[ ]	/* SetRefPoint0 */
PUSHW[ ]	/* 1 value pushed */
33
MDRP[11100]	/* MoveDirectRelPt */
SVTCA[0]	/* SetFreedomAndProjectionVectorToAxis */
PUSHW[ ]	/* 4 values pushed */
3 1 0 4
CALL[ ]	/* CallFunction */
PUSHW[ ]	/* 4 values pushed */
11 1 29 4
CALL[ ]	/* CallFunction */
PUSHW[ ]	/* 1 value pushed */
29
SRP0[ ]	/* SetRefPoint0 */
PUSHW[ ]	/* 1 value pushed */
4
MDRP[10000]	/* MoveDirectRelPt */
PUSHW[ ]	/* 1 value pushed */
11
SRP0[ ]	/* SetRefPoint0 */
PUSHW[ ]	/* 1 value pushed */
6
MDRP[10000]	/* MoveDirectRelPt */
PUSHW[ ]	/* 1 value pushed */
6
MDAP[1]	/* MoveDirectAbsPt */
PUSHW[ ]	/* 1 value pushed */
11
SRP0[ ]	/* SetRefPoint0 */
PUSHW[ ]	/* 1 value pushed */
14
MDRP[10000]	/* MoveDirectRelPt */
PUSHW[ ]	/* 1 value pushed */
29
SRP0[ ]	/* SetRefPoint0 */
PUSHW[ ]	/* 1 value pushed */
16
MDRP[10000]	/* MoveDirectRelPt */
PUSHW[ ]	/* 1 value pushed */
3
SRP0[ ]	/* SetRefPoint0 */
PUSHW[ ]	/* 1 value pushed */
18
MDRP[10000]	/* MoveDirectRelPt */
PUSHW[ ]	/* 1 value pushed */
0
SRP0[ ]	/* SetRefPoint0 */
PUSHW[ ]	/* 1 value pushed */
20
MDRP[10000]	/* MoveDirectRelPt */
PUSHW[ ]	/* 1 value pushed */
0
SRP0[ ]	/* SetRefPoint0 */
PUSHW[ ]	/* 1 value pushed */
24
MDRP[10000]	/* MoveDirectRelPt */
PUSHW[ ]	/* 1 value pushed */
3
SRP0[ ]	/* SetRefPoint0 */
PUSHW[ ]	/* 1 value pushed */
28
MDRP[10000]	/* MoveDirectRelPt */
IUP[0]	/* InterpolateUntPts */
IUP[1]	/* InterpolateUntPts */";
};
width = 1874;
}
);
note = numbersign;
unicode = 35;
}
{
glyphname = dollar;
kernRight = KO_dollar;
layers = (
{
layerId = m01;
shapes = (
{
closed = 1;
nodes = (
(1201,1530,l),
(1237,1837,l),
(972,1837,l),
(938,1530,l)
);
},
{
closed = 1;
nodes = (
(1605,680,l),
(1605,1361,l),
(959,1361,l)
);
},
{
closed = 1;
nodes = (
(1128,1,l),
(1296,1,o),
(1417,29,o),
(1490,84,cs),
(1567,141,o),
(1605,235,o),
(1605,367,c),
(756,1361,l),
(425,1361,o),
(269,1234,o),
(269,959,c),
(275,959,l)
);
},
{
closed = 1;
nodes = (
(895,0,l),
(272,685,l),
(272,0,l)
);
},
{
closed = 1;
nodes = (
(744,-450,l),
(1008,-450,l),
(1041,-167,l),
(778,-167,l)
);
}
);
width = 1874;
}
);
note = dollar;
unicode = 36;
userData = {
KernOnSpecialSpacing = {
L = symbols;
R = symbols;
};
};
}
{
glyphname = percent;
kernLeft = KO_percent;
layers = (
{
layerId = m01;
shapes = (
{
closed = 1;
nodes = (
(1160,-340,l),
(1817,1644,l),
(1579,1709,l),
(922,-274,l)
);
},
{
closed = 1;
nodes = (
(786,497,ls),
(962,497,o),
(1052,587,o),
(1051,732,cs),
(1051,1096,ls),
(1051,1132,o),
(1045,1164,o),
(1034,1193,cs),
(999,1284,o),
(917,1330,o),
(786,1330,cs),
(747,1330,l),
(747,497,l)
);
},
{
closed = 1;
nodes = (
(570,1330,l),
(531,1330,ls),
(487,1330,o),
(448,1325,o),
(415,1314,cs),
(315,1281,o),
(265,1208,o),
(265,1096,cs),
(265,732,ls),
(264,587,o),
(354,497,o),
(531,497,cs),
(570,497,l)
);
},
{
closed = 1;
nodes = (
(2210,-12,ls),
(2253,-12,o),
(2291,-7,o),
(2324,4,cs),
(2424,37,o),
(2474,110,o),
(2474,222,cs),
(2474,593,ls),
(2474,629,o),
(2469,661,o),
(2458,690,cs),
(2423,781,o),
(2340,827,o),
(2210,827,cs),
(2169,827,l),
(2169,-12,l)
);
},
{
closed = 1;
nodes = (
(1687,78,o),
(1778,-12,o),
(1953,-12,cs),
(1992,-12,l),
(1992,827,l),
(1953,827,ls),
(1778,827,o),
(1687,737,o),
(1688,593,cs),
(1688,222,ls)
);
}
);
width = 2740;
}
);
note = percent;
unicode = 37;
userData = {
KernOnSpecialSpacing = {
L = "spaced-off";
};
};
}
{
glyphname = ampersand;
layers = (
{
layerId = m01;
shapes = (
{
closed = 1;
nodes = (
(823,248,o),
(860,144,o),
(935,86,cs),
(1010,29,o),
(1143,0,o),
(1334,0,cs),
(1435,0,l),
(1435,340,ls),
(1435,489,o),
(1401,575,o),
(1320,623,cs),
(1239,670,o),
(1109,680,o),
(917,680,cs),
(874,680,ls),
(1031,680,o),
(1157,716,o),
(1254,787,cs),
(1341,852,o),
(1385,929,o),
(1385,1020,cs),
(1385,1111,o),
(1342,1189,o),
(1257,1255,cs),
(1166,1326,o),
(1046,1361,o),
(899,1361,cs),
(822,1361,l),
(822,680,l),
(823,398,ls)
);
},
{
closed = 1;
nodes = (
(150,700,o),
(78,587,o),
(78,427,cs),
(78,295,o),
(121,192,o),
(208,117,cs),
(297,39,o),
(426,0,o),
(595,0,cs),
(672,0,l),
(672,1361,l),
(595,1361,ls),
(433,1361,o),
(311,1326,o),
(228,1255,cs),
(156,1194,o),
(120,1116,o),
(120,1019,cs),
(120,909,o),
(178,825,o),
(295,767,c)
);
}
);
width = 1534;
}
);
note = ampersand;
unicode = 38;
userData = {
KernOnSpecialSpacing = {
L = symbols;
R = symbols;
};
};
}
{
glyphname = quotesingle;
kernLeft = KO_quotesingle;
kernRight = KO_quotesingle;
layers = (
{
layerId = m01;
shapes = (
{
closed = 1;
nodes = (
(484,1210,o),
(516,1341,o),
(516,1422,cs),
(516,1585,l),
(20,1585,l),
(20,1422,ls),
(20,1333,o),
(51,1202,o),
(114,1030,c),
(421,1030,l)
);
}
);
width = 536;
}
);
note = quotesingle;
unicode = 39;
userData = {
KernOnSpecialSpacing = {
L = quotes;
R = quotes;
};
};
}
{
glyphname = parenleft;
kernLeft = KO_parenleft;
kernRight = KO_parenleft;
layers = (
{
layerId = m01;
shapes = (
{
closed = 1;
nodes = (
(162,322,o),
(225,108,o),
(352,-51,cs),
(423,-142,o),
(507,-211,o),
(602,-259,cs),
(721,-320,o),
(840,-350,o),
(958,-350,c),
(958,-176,l),
(887,-176,o),
(814,-159,o),
(740,-126,cs),
(631,-79,o),
(545,-5,o),
(482,94,cs),
(399,222,o),
(358,388,o),
(358,592,cs),
(358,704,o),
(369,801,o),
(392,882,cs),
(436,1036,o),
(507,1151,o),
(605,1228,cs),
(718,1316,o),
(835,1360,o),
(958,1360,c),
(958,1534,l),
(929,1534,o),
(895,1531,o),
(856,1526,cs),
(711,1505,o),
(583,1448,o),
(472,1357,cs),
(265,1188,o),
(162,933,o),
(162,592,cs)
);
}
);
width = 1195;
}
);
note = parenleft;
unicode = 40;
userData = {
KernOnSpecialSpacing = {
R = parenthesis;
};
};
}
{
glyphname = parenright;
kernLeft = KO_parenright;
kernRight = KO_parenright;
layers = (
{
layerId = m01;
shapes = (
{
closed = 1;
nodes = (
(253,-350,o),
(287,-347,o),
(326,-342,cs),
(470,-321,o),
(598,-265,o),
(710,-174,cs),
(917,-6,o),
(1020,249,o),
(1020,592,cs),
(1020,863,o),
(957,1077,o),
(830,1234,cs),
(757,1326,o),
(674,1396,o),
(580,1443,cs),
(461,1504,o),
(342,1534,o),
(224,1534,c),
(224,1360,l),
(295,1360,o),
(368,1343,o),
(442,1310,cs),
(550,1263,o),
(636,1189,o),
(700,1090,cs),
(783,961,o),
(824,795,o),
(824,592,cs),
(824,480,o),
(813,383,o),
(790,302,cs),
(746,147,o),
(675,31,o),
(577,-44,cs),
(464,-132,o),
(346,-176,o),
(224,-176,c),
(224,-350,l)
);
}
);
width = 1195;
}
);
note = parenright;
unicode = 41;
userData = {
KernOnSpecialSpacing = {
L = parenthesis;
};
};
}
{
glyphname = asterisk;
kernLeft = KO_asterisk;
kernRight = KO_asterisk;
layers = (
{
layerId = m01;
shapes = (
{
closed = 1;
nodes = (
(552,716,ls),
(589,765,o),
(633,878,o),
(684,1057,c),
(815,719,l),
(890,615,l),
(1143,800,l),
(1069,899,ls),
(1024,960,o),
(928,1036,o),
(782,1128,c),
(962,1123,o),
(1085,1131,o),
(1152,1151,cs),
(1272,1191,l),
(1174,1491,l),
(1054,1453,ls),
(1021,1443,o),
(973,1416,o),
(910,1372,cs),
(842,1323,ls),
(815,1303,o),
(782,1276,o),
(743,1243,c),
(761,1292,o),
(777,1339,o),
(791,1385,cs),
(820,1483,ls),
(833,1529,o),
(840,1571,o),
(840,1609,cs),
(840,1734,l),
(524,1734,l),
(524,1609,ls),
(524,1537,o),
(557,1415,o),
(623,1243,c),
(583,1276,o),
(544,1307,o),
(506,1335,cs),
(423,1395,ls),
(384,1423,o),
(347,1442,o),
(313,1453,cs),
(190,1491,l),
(94,1191,l),
(215,1153,ls),
(283,1132,o),
(406,1123,o),
(585,1128,c),
(542,1101,o),
(502,1074,o),
(465,1047,cs),
(387,989,ls),
(351,962,o),
(321,932,o),
(297,900,cs),
(224,799,l),
(478,615,l)
);
}
);
width = 1366;
}
);
note = asterisk;
unicode = 42;
userData = {
KernOnSpecialSpacing = {
L = quotes;
R = quotes;
};
};
}
{
glyphname = plus;
kernLeft = KO_plus;
kernRight = KO_plus;
layers = (
{
layerId = m01;
shapes = (
{
closed = 1;
nodes = (
(685,479,l),
(685,50,l),
(855,50,l),
(855,479,l),
(1279,479,l),
(1279,650,l),
(855,650,l),
(855,1109,l),
(685,1109,l),
(685,650,l),
(259,650,l),
(259,479,l)
);
}
);
userData = {
assembly = "PUSHW[ ]	/* 4 values pushed */
4 8 1 4
CALL[ ]	/* CallFunction */
PUSHW[ ]	/* 1 value pushed */
4
SRP0[ ]	/* SetRefPoint0 */
PUSHW[ ]	/* 1 value pushed */
7
MDRP[10000]	/* MoveDirectRelPt */
PUSHW[ ]	/* 1 value pushed */
1
SRP0[ ]	/* SetRefPoint0 */
PUSHW[ ]	/* 1 value pushed */
9
MDRP[10000]	/* MoveDirectRelPt */
SVTCA[0]	/* SetFreedomAndProjectionVectorToAxis */
PUSHW[ ]	/* 4 values pushed */
5 2 6 4
CALL[ ]	/* CallFunction */
PUSHW[ ]	/* 1 value pushed */
5
SRP0[ ]	/* SetRefPoint0 */
PUSHW[ ]	/* 1 value pushed */
0
MDRP[10000]	/* MoveDirectRelPt */
PUSHW[ ]	/* 1 value pushed */
6
SRP0[ ]	/* SetRefPoint0 */
PUSHW[ ]	/* 1 value pushed */
10
MDRP[10000]	/* MoveDirectRelPt */
IUP[0]	/* InterpolateUntPts */
IUP[1]	/* InterpolateUntPts */";
};
width = 1538;
}
);
note = plus;
unicode = 43;
userData = {
KernOnSpecialSpacing = {
L = math;
R = math;
};
};
}
{
glyphname = comma;
kernLeft = KO_comma;
kernRight = KO_comma;
layers = (
{
layerId = m01;
shapes = (
{
closed = 1;
nodes = (
(458,-230,o),
(535,-205,o),
(602,-156,cs),
(672,-104,o),
(707,-44,o),
(707,24,cs),
(707,207,ls),
(707,340,o),
(602,406,o),
(392,406,cs),
(173,406,o),
(70,348,o),
(70,207,cs),
(70,74,o),
(171,5,o),
(373,0,c),
(373,-230,l)
);
}
);
width = 777;
}
);
note = comma;
unicode = 44;
userData = {
KernOnSpecialSpacing = {
L = period;
R = period;
};
};
}
{
glyphname = hyphen;
kernLeft = KO_hyphen;
kernRight = KO_hyphen;
layers = (
{
layerId = m01;
shapes = (
{
closed = 1;
nodes = (
(1280,479,l),
(1280,650,l),
(90,650,l),
(90,479,l)
);
}
);
userData = {
assembly = "PUSHW[ ]	/* 4 values pushed */
1 7 0 4
CALL[ ]	/* CallFunction */
PUSHW[ ]	/* 1 value pushed */
1
SRP0[ ]	/* SetRefPoint0 */
PUSHW[ ]	/* 1 value pushed */
5
MDRP[11100]	/* MoveDirectRelPt */
SVTCA[0]	/* SetFreedomAndProjectionVectorToAxis */
PUSHW[ ]	/* 4 values pushed */
1 2 2 4
CALL[ ]	/* CallFunction */
IUP[0]	/* InterpolateUntPts */
IUP[1]	/* InterpolateUntPts */";
};
width = 1370;
}
);
note = hyphen;
unicode = 45;
userData = {
KernOnSpecialSpacing = {
L = hyphen;
R = hyphen;
};
};
}
{
glyphname = period;
kernLeft = KO_period;
kernRight = KO_period;
layers = (
{
layerId = m01;
shapes = (
{
closed = 1;
nodes = (
(617,0,o),
(706,65,o),
(706,207,cs),
(706,349,o),
(606,406,o),
(390,406,cs),
(174,406,o),
(70,348,o),
(70,207,cs),
(70,69,o),
(180,0,o),
(401,0,cs)
);
}
);
width = 776;
}
);
note = period;
unicode = 46;
userData = {
KernOnName = period;
KernOnSpecialSpacing = {
L = period;
R = period;
};
};
}
{
glyphname = slash;
kernLeft = KO_slash;
kernRight = KO_slash;
layers = (
{
layerId = m01;
shapes = (
{
closed = 1;
nodes = (
(410,-166,l),
(824,1521,l),
(606,1521,l),
(193,-166,l)
);
}
);
userData = {
assembly = "PUSHW[ ]	/* 4 values pushed */
1 13 3 4
CALL[ ]	/* CallFunction */
PUSHW[ ]	/* 1 value pushed */
1
SRP0[ ]	/* SetRefPoint0 */
PUSHW[ ]	/* 1 value pushed */
5
MDRP[11100]	/* MoveDirectRelPt */
SVTCA[0]	/* SetFreedomAndProjectionVectorToAxis */
PUSHW[ ]	/* 3 values pushed */
0 2 3
CALL[ ]	/* CallFunction */
IUP[0]	/* InterpolateUntPts */
IUP[1]	/* InterpolateUntPts */";
};
width = 1018;
}
);
note = slash;
unicode = 47;
userData = {
KernOnSpecialSpacing = {
L = slash;
R = slash;
};
};
}
{
glyphname = zero;
kernLeft = KO_zero;
kernRight = KO_zero;
layers = (
{
layerId = m01;
shapes = (
{
closed = 1;
nodes = (
(947,0,ls),
(1145,0,o),
(1286,61,o),
(1370,184,cs),
(1447,295,o),
(1485,474,o),
(1485,720,cs),
(1485,945,o),
(1447,1106,o),
(1370,1204,cs),
(1289,1309,o),
(1148,1361,o),
(947,1361,cs),
(869,1361,l),
(869,0,l)
);
},
{
closed = 1;
nodes = (
(90,472,o),
(128,295,o),
(205,184,cs),
(289,61,o),
(430,0,o),
(628,0,cs),
(706,0,l),
(706,1361,l),
(628,1361,ls),
(427,1361,o),
(286,1309,o),
(205,1204,cs),
(122,1099,o),
(90,941,o),
(90,714,cs)
);
}
);
width = 1575;
}
);
metricLeft = O;
metricRight = O;
note = zero;
unicode = 48;
}
{
glyphname = two;
kernLeft = KO_two;
kernRight = KO_two;
layers = (
{
layerId = m01;
shapes = (
{
closed = 1;
nodes = (
(944,532,ls),
(1035,532,o),
(1114,539,o),
(1183,553,cs),
(1391,596,o),
(1495,719,o),
(1495,922,cs),
(1495,1079,o),
(1450,1192,o),
(1360,1260,cs),
(1271,1327,o),
(1123,1361,o),
(916,1361,cs),
(842,1361,l),
(842,532,l)
);
},
{
closed = 1;
nodes = (
(714,834,l),
(714,1361,l),
(589,1361,ls),
(446,1361,o),
(332,1331,o),
(249,1270,cs),
(156,1201,o),
(109,1100,o),
(109,966,cs),
(109,834,l)
);
},
{
closed = 1;
nodes = (
(714,0,l),
(714,731,l),
(589,731,ls),
(446,731,o),
(332,701,o),
(249,640,cs),
(156,571,o),
(109,470,o),
(109,336,cs),
(109,0,l)
);
},
{
closed = 1;
nodes = (
(1444,0,l),
(1444,391,l),
(855,391,l),
(855,0,l)
);
}
);
width = 1604;
}
);
metricLeft = three;
metricRight = three;
note = two;
unicode = 50;
}
{
glyphname = three;
kernLeft = KO_three;
kernRight = KO_three;
layers = (
{
layerId = m01;
shapes = (
{
closed = 1;
nodes = (
(920,0,ls),
(1091,0,o),
(1220,34,o),
(1309,102,cs),
(1396,167,o),
(1440,271,o),
(1440,366,cs),
(1440,413,o),
(1434,453,o),
(1421,484,cs),
(1380,587,o),
(1277,656,o),
(1114,689,c),
(1305,733,o),
(1400,828,o),
(1400,974,cs),
(1400,1093,o),
(1360,1186,o),
(1281,1253,cs),
(1196,1325,o),
(1070,1361,o),
(905,1361,cs),
(828,1361,l),
(828,778,l),
(646,778,l),
(646,611,l),
(828,611,l),
(828,0,l)
);
},
{
closed = 1;
nodes = (
(714,900,l),
(714,1361,l),
(589,1361,ls),
(446,1361,o),
(332,1331,o),
(249,1270,cs),
(156,1201,o),
(109,1100,o),
(109,966,cs),
(109,900,l)
);
},
{
closed = 1;
nodes = (
(109,324,o),
(122,264,o),
(147,214,cs),
(218,71,o),
(365,0,o),
(589,0,cs),
(714,0,l),
(714,461,l),
(109,461,l),
(109,395,ls)
);
}
);
width = 1549;
}
);
metricLeft = "=|B";
metricRight = B;
note = three;
unicode = 51;
}
{
glyphname = four;
kernLeft = KO_four;
kernRight = KO_four;
layers = (
{
layerId = m01;
shapes = (
{
closed = 1;
nodes = (
(714,341,l),
(714,1361,l),
(649,1361,ls),
(553,1361,o),
(471,1349,o),
(403,1324,cs),
(207,1253,o),
(109,1096,o),
(109,853,cs),
(109,341,l)
);
},
{
closed = 1;
nodes = (
(1404,0,l),
(1404,1020,l),
(871,1020,l),
(871,0,l)
);
}
);
width = 1529;
}
);
metricLeft = "=|B";
metricRight = H;
note = four;
unicode = 52;
}
{
glyphname = five;
kernLeft = KO_five;
kernRight = KO_five;
layers = (
{
layerId = m01;
shapes = (
{
closed = 1;
nodes = (
(1440,1020,l),
(1440,1361,l),
(851,1361,l),
(851,1020,l)
);
},
{
closed = 1;
nodes = (
(730,680,l),
(730,1361,l),
(125,1361,l),
(125,681,l)
);
},
{
closed = 1;
nodes = (
(912,0,ls),
(1120,0,o),
(1268,32,o),
(1356,96,cs),
(1446,161,o),
(1491,272,o),
(1491,429,cs),
(1491,714,o),
(1303,869,o),
(940,869,cs),
(838,869,l),
(838,0,l)
);
},
{
closed = 1;
nodes = (
(125,324,o),
(138,264,o),
(163,214,cs),
(234,71,o),
(381,0,o),
(605,0,cs),
(730,0,l),
(730,461,l),
(125,461,l),
(125,395,ls)
);
}
);
width = 1600;
}
);
metricLeft = H;
metricRight = B;
note = five;
unicode = 53;
}
{
glyphname = six;
kernLeft = KO_six;
kernRight = KO_six;
layers = (
{
layerId = m01;
shapes = (
{
closed = 1;
nodes = (
(827,1148,o),
(869,1047,o),
(954,986,cs),
(1038,925,o),
(1176,894,o),
(1367,894,cs),
(1432,894,l),
(1432,1361,l),
(827,1361,l),
(827,1289,ls)
);
},
{
closed = 1;
nodes = (
(706,1361,l),
(628,1361,ls),
(269,1361,o),
(90,1161,o),
(90,708,cs),
(90,236,o),
(269,0,o),
(628,0,cs),
(706,0,l)
);
},
{
closed = 1;
nodes = (
(901,0,ls),
(1114,0,o),
(1262,25,o),
(1345,76,cs),
(1435,131,o),
(1480,236,o),
(1480,389,cs),
(1480,525,o),
(1433,619,o),
(1340,672,cs),
(1259,719,o),
(1122,742,o),
(929,742,cs),
(827,742,l),
(827,0,l)
);
}
);
width = 1589;
}
);
metricLeft = "=|nine";
metricRight = "=|nine";
note = six;
unicode = 54;
}
{
glyphname = seven;
kernLeft = KO_seven;
kernRight = KO_seven;
layers = (
{
layerId = m01;
shapes = (
{
closed = 1;
nodes = (
(1121,2,l),
(1441,1361,l),
(854,1361,l),
(533,2,l)
);
},
{
closed = 1;
nodes = (
(208,753,ls),
(328,753,o),
(422,771,o),
(491,808,cs),
(555,841,o),
(589,885,o),
(616,958,cs),
(629,994,o),
(636,1049,o),
(636,1123,cs),
(636,1360,l),
(40,1360,l),
(40,753,l)
);
}
);
width = 1431;
}
);
note = seven;
unicode = 55;
}
{
glyphname = eight;
kernLeft = KO_eight;
kernRight = KO_eight;
layers = (
{
layerId = m01;
shapes = (
{
closed = 1;
nodes = (
(1391,745,o),
(1464,862,o),
(1464,979,cs),
(1464,1229,o),
(1209,1361,o),
(949,1361,cs),
(872,1361,l),
(872,0,l),
(964,0,ls),
(1226,0,o),
(1504,114,o),
(1504,376,cs),
(1504,560,o),
(1326,674,o),
(1191,688,c),
(1193,688,l)
);
},
{
closed = 1;
nodes = (
(286,674,o),
(109,563,o),
(109,384,cs),
(109,115,o),
(380,0,o),
(649,0,cs),
(741,0,l),
(741,1361,l),
(664,1361,ls),
(400,1361,o),
(149,1230,o),
(149,974,cs),
(149,859,o),
(221,744,o),
(419,688,c),
(421,688,l)
);
}
);
width = 1613;
}
);
metricLeft = "=|B";
metricRight = "=|";
note = eight;
unicode = 56;
}
{
glyphname = nine;
kernLeft = KO_nine;
kernRight = KO_nine;
layers = (
{
layerId = m01;
shapes = (
{
closed = 1;
nodes = (
(971,0,ls),
(1330,0,o),
(1509,234,o),
(1509,671,cs),
(1509,789,o),
(1498,891,o),
(1477,978,cs),
(1414,1233,o),
(1245,1361,o),
(971,1361,cs),
(893,1361,l),
(893,0,l)
);
},
{
closed = 1;
nodes = (
(324,637,o),
(461,619,o),
(660,619,cs),
(762,619,l),
(762,1361,l),
(688,1361,ls),
(479,1361,o),
(331,1331,o),
(244,1270,cs),
(151,1205,o),
(109,1098,o),
(109,948,cs),
(109,798,o),
(156,718,o),
(249,674,cs)
);
},
{
closed = 1;
nodes = (
(157,254,o),
(199,153,o),
(283,92,cs),
(368,31,o),
(506,0,o),
(697,0,cs),
(762,0,l),
(762,467,l),
(157,467,l),
(157,395,ls)
);
}
);
width = 1599;
}
);
metricLeft = "=|B";
metricRight = O;
note = nine;
unicode = 57;
}
{
glyphname = colon;
kernLeft = KO_colon;
kernRight = KO_colon;
layers = (
{
layerId = m01;
shapes = (
{
closed = 1;
nodes = (
(617,688,o),
(706,753,o),
(706,895,cs),
(706,1037,o),
(606,1094,o),
(390,1094,cs),
(174,1094,o),
(70,1036,o),
(70,895,cs),
(70,757,o),
(180,688,o),
(401,688,cs)
);
},
{
closed = 1;
nodes = (
(617,0,o),
(706,65,o),
(706,207,cs),
(706,349,o),
(606,406,o),
(390,406,cs),
(174,406,o),
(70,348,o),
(70,207,cs),
(70,69,o),
(180,0,o),
(401,0,cs)
);
}
);
width = 776;
}
);
note = colon;
unicode = 58;
userData = {
KernOnSpecialSpacing = {
L = "spaced-off";
R = "spaced-off";
};
};
}
{
glyphname = semicolon;
kernLeft = KO_semicolon;
kernRight = KO_semicolon;
layers = (
{
layerId = m01;
shapes = (
{
closed = 1;
nodes = (
(656,688,o),
(745,753,o),
(745,895,cs),
(745,1037,o),
(645,1094,o),
(429,1094,cs),
(213,1094,o),
(109,1036,o),
(109,895,cs),
(109,757,o),
(219,688,o),
(440,688,cs)
);
},
{
closed = 1;
nodes = (
(497,-230,o),
(574,-205,o),
(641,-156,cs),
(711,-104,o),
(746,-44,o),
(746,24,cs),
(746,207,ls),
(746,340,o),
(641,406,o),
(431,406,cs),
(212,406,o),
(109,348,o),
(109,207,cs),
(109,74,o),
(210,5,o),
(412,0,c),
(412,-230,l)
);
}
);
width = 854;
}
);
note = semicolon;
unicode = 59;
userData = {
KernOnSpecialSpacing = {
L = "spaced-off";
R = "spaced-off";
};
};
}
{
glyphname = less;
kernLeft = KO_less;
kernRight = KO_less;
layers = (
{
layerId = m01;
shapes = (
{
closed = 1;
nodes = (
(918,-1,l),
(1053,135,l),
(587,548,l),
(1053,978,l),
(918,1114,l),
(305,548,l)
);
}
);
userData = {
assembly = "PUSHW[ ]	/* 4 values pushed */
3 10 5 4
CALL[ ]	/* CallFunction */
PUSHW[ ]	/* 1 value pushed */
3
SRP0[ ]	/* SetRefPoint0 */
PUSHW[ ]	/* 1 value pushed */
7
MDRP[11100]	/* MoveDirectRelPt */
SVTCA[0]	/* SetFreedomAndProjectionVectorToAxis */
PUSHW[ ]	/* 1 value pushed */
0
RCVT[ ]	/* ReadCVT */
IF[ ]	/* If */
PUSHW[ ]	/* 1 value pushed */
4
MDAP[1]	/* MoveDirectAbsPt */
ELSE[ ]	/* Else */
PUSHW[ ]	/* 2 values pushed */
4 14
MIAP[0]	/* MoveIndirectAbsPt */
EIF[ ]	/* EndIf */
IUP[0]	/* InterpolateUntPts */
IUP[1]	/* InterpolateUntPts */";
};
width = 1358;
}
);
note = less;
unicode = 60;
userData = {
KernOnSpecialSpacing = {
L = math;
R = math;
};
};
}
{
glyphname = equal;
kernLeft = KO_equal;
kernRight = KO_equal;
layers = (
{
layerId = m01;
shapes = (
{
closed = 1;
nodes = (
(1245,670,l),
(1245,861,l),
(293,861,l),
(293,670,l)
);
},
{
closed = 1;
nodes = (
(1245,267,l),
(1245,461,l),
(293,461,l),
(293,267,l)
);
}
);
userData = {
assembly = "PUSHW[ ]	/* 4 values pushed */
1 7 0 4
CALL[ ]	/* CallFunction */
PUSHW[ ]	/* 1 value pushed */
0
SRP0[ ]	/* SetRefPoint0 */
PUSHW[ ]	/* 1 value pushed */
4
MDRP[10000]	/* MoveDirectRelPt */
PUSHW[ ]	/* 1 value pushed */
1
SRP0[ ]	/* SetRefPoint0 */
PUSHW[ ]	/* 1 value pushed */
5
MDRP[10000]	/* MoveDirectRelPt */
PUSHW[ ]	/* 1 value pushed */
1
SRP0[ ]	/* SetRefPoint0 */
PUSHW[ ]	/* 1 value pushed */
9
MDRP[11100]	/* MoveDirectRelPt */
SVTCA[0]	/* SetFreedomAndProjectionVectorToAxis */
PUSHW[ ]	/* 4 values pushed */
5 1 6 4
CALL[ ]	/* CallFunction */
PUSHW[ ]	/* 4 values pushed */
1 1 2 4
CALL[ ]	/* CallFunction */
IUP[0]	/* InterpolateUntPts */
IUP[1]	/* InterpolateUntPts */";
};
width = 1538;
}
);
note = equal;
unicode = 61;
userData = {
KernOnSpecialSpacing = {
L = math;
R = math;
};
};
}
{
glyphname = greater;
kernLeft = KO_greater;
kernRight = KO_greater;
layers = (
{
layerId = m01;
shapes = (
{
closed = 1;
nodes = (
(429,-11,l),
(1053,548,l),
(429,1124,l),
(305,978,l),
(772,548,l),
(305,135,l)
);
}
);
userData = {
assembly = "PUSHW[ ]	/* 4 values pushed */
3 10 5 4
CALL[ ]	/* CallFunction */
PUSHW[ ]	/* 1 value pushed */
3
SRP0[ ]	/* SetRefPoint0 */
PUSHW[ ]	/* 1 value pushed */
7
MDRP[11100]	/* MoveDirectRelPt */
SVTCA[0]	/* SetFreedomAndProjectionVectorToAxis */
PUSHW[ ]	/* 3 values pushed */
2 4 3
CALL[ ]	/* CallFunction */
IUP[0]	/* InterpolateUntPts */
IUP[1]	/* InterpolateUntPts */";
};
width = 1358;
}
);
note = greater;
unicode = 62;
userData = {
KernOnSpecialSpacing = {
L = math;
R = math;
};
};
}
{
glyphname = question;
kernLeft = KO_question;
kernRight = KO_question;
layers = (
{
layerId = m01;
shapes = (
{
closed = 1;
nodes = (
(1053,849,ls),
(1221,849,o),
(1351,895,o),
(1443,987,cs),
(1531,1075,o),
(1575,1196,o),
(1575,1351,cs),
(1575,1503,o),
(1535,1625,o),
(1456,1716,cs),
(1368,1818,o),
(1242,1869,o),
(1078,1869,cs),
(1001,1869,l),
(1001,849,l)
);
},
{
closed = 1;
nodes = (
(853,1306,l),
(853,1869,l),
(787,1869,ls),
(700,1869,o),
(626,1859,o),
(564,1840,cs),
(387,1786,o),
(299,1645,o),
(299,1416,cs),
(299,1306,l)
);
},
{
closed = 1;
nodes = (
(631,91,o),
(664,46,o),
(729,11,cs),
(790,-22,o),
(866,-38,o),
(955,-38,cs),
(1044,-38,o),
(1115,-22,o),
(1170,11,cs),
(1228,45,o),
(1257,90,o),
(1257,147,cs),
(1257,204,o),
(1225,249,o),
(1162,282,cs),
(1101,315,o),
(1026,331,o),
(936,331,cs),
(847,331,o),
(775,315,o),
(718,282,cs),
(660,249,o),
(631,204,o),
(631,147,cs)
);
}
);
width = 1874;
}
);
note = question;
unicode = 63;
userData = {
KernOnSpecialSpacing = {
L = "spaced-off";
};
};
}
{
glyphname = at;
kernLeft = KO_at;
kernRight = KO_at;
layers = (
{
layerId = m01;
shapes = (
{
closed = 1;
nodes = (
(15,984,o),
(-103,763,o),
(-103,447,cs),
(-103,130,o),
(4,-119,o),
(194,-276,cs),
(384,-433,o),
(648,-506,o),
(1013,-506,cs),
(1196,-506,o),
(1370,-488,o),
(1537,-453,cs),
(1612,-436,o),
(1696,-410,o),
(1788,-374,c),
(1788,-147,l),
(1689,-218,o),
(1545,-270,o),
(1356,-302,cs),
(1253,-319,o),
(1147,-330,o),
(944,-330,cs),
(843,-330,o),
(739,-315,o),
(634,-286,cs),
(305,-194,o),
(141,56,o),
(141,465,cs),
(141,696,o),
(223,877,o),
(388,1006,cs),
(546,1129,o),
(758,1191,o),
(1024,1191,cs),
(1270,1191,o),
(1453,1141,o),
(1574,1040,cs),
(1689,944,o),
(1738,812,o),
(1738,651,cs),
(1738,570,o),
(1729,501,o),
(1710,444,cs),
(1661,290,o),
(1576,205,o),
(1453,188,c),
(1453,827,l),
(990,827,l),
(990,294,ls),
(990,241,o),
(998,195,o),
(1013,158,cs),
(1044,84,o),
(1110,37,o),
(1212,16,cs),
(1371,-17,o),
(1515,-2,o),
(1644,59,cs),
(1742,106,o),
(1819,174,o),
(1876,263,cs),
(1944,370,o),
(1978,501,o),
(1978,655,cs),
(1978,876,o),
(1905,1047,o),
(1758,1168,cs),
(1596,1303,o),
(1351,1370,o),
(1024,1370,cs),
(689,1370,o),
(419,1292,o),
(215,1136,cs)
);
},
{
closed = 1;
nodes = (
(378,302,o),
(415,199,o),
(488,122,cs),
(565,41,o),
(674,0,o),
(814,0,cs),
(876,0,l),
(876,827,l),
(793,827,ls),
(656,827,o),
(550,789,o),
(476,712,cs),
(409,643,o),
(378,549,o),
(378,430,cs)
);
}
);
width = 1874;
}
);
note = at;
unicode = 64;
userData = {
KernOnSpecialSpacing = {
L = symbols;
R = symbols;
};
};
}
{
color = 4;
glyphname = A;
kernLeft = KO_A;
kernRight = KO_A;
layers = (
{
anchors = (
{
name = bottom;
pos = (786,0);
},
{
name = ogonek;
pos = (1400,10);
},
{
name = top;
pos = (787,1361);
}
);
layerId = m01;
shapes = (
{
closed = 1;
nodes = (
(1208,462,l),
(1208,639,l),
(366,639,l),
(366,462,l)
);
},
{
closed = 1;
nodes = (
(851,424,ls),
(851,275,o),
(889,167,o),
(965,101,cs),
(1043,34,o),
(1178,0,o),
(1350,0,cs),
(1411,0,l),
(1411,719,ls),
(1411,1029,o),
(1322,1228,o),
(1145,1315,cs),
(1083,1346,o),
(1009,1361,o),
(922,1361,cs),
(851,1361,l)
);
},
{
closed = 1;
nodes = (
(613,1361,ls),
(446,1361,o),
(321,1303,o),
(239,1186,cs),
(163,1078,o),
(125,922,o),
(125,719,cs),
(125,0,l),
(186,0,ls),
(368,0,o),
(493,34,o),
(571,101,cs),
(647,167,o),
(685,275,o),
(685,424,cs),
(685,1361,l)
);
}
);
width = 1536;
}
);
metricLeft = H;
metricRight = H;
note = A;
unicode = 65;
}
{
color = 4;
glyphname = B;
kernLeft = KO_H;
kernRight = KO_B;
layers = (
{
anchors = (
{
name = bottom;
pos = (783,0);
},
{
name = center;
pos = (400,340);
},
{
name = top;
pos = (783,1361);
}
);
layerId = m01;
shapes = (
{
closed = 1;
nodes = (
(1352,742,o),
(1401,829,o),
(1401,948,cs),
(1401,1224,o),
(1188,1361,o),
(906,1361,cs),
(829,1361,l),
(829,0,l),
(921,0,ls),
(1211,0,o),
(1441,121,o),
(1441,406,cs),
(1441,542,o),
(1377,636,o),
(1250,689,c),
(1253,689,l)
);
},
{
closed = 1;
nodes = (
(663,2,l),
(663,1361,l),
(125,1361,l),
(125,2,l)
);
}
);
width = 1550;
}
);
metricLeft = H;
note = B;
unicode = 66;
}
{
color = 4;
glyphname = C;
kernLeft = KO_C;
kernRight = KO_C;
layers = (
{
anchors = (
{
name = bottom;
pos = (726,0);
},
{
name = top;
pos = (777,1361);
}
);
layerId = m01;
shapes = (
{
closed = 1;
nodes = (
(854,910,o),
(891,809,o),
(965,750,cs),
(1040,691,o),
(1163,661,o),
(1335,661,cs),
(1406,661,l),
(1406,1361,l),
(854,1361,l),
(854,1053,ls)
);
},
{
closed = 1;
nodes = (
(1054,0,ls),
(1155,0,o),
(1232,25,o),
(1287,76,cs),
(1332,119,o),
(1354,171,o),
(1354,233,cs),
(1354,261,l),
(854,261,l),
(854,0,l)
);
},
{
closed = 1;
nodes = (
(706,1361,l),
(628,1361,ls),
(254,1361,o),
(90,1096,o),
(90,717,cs),
(90,341,o),
(230,0,o),
(628,0,cs),
(706,0,l)
);
}
);
width = 1531;
}
);
metricLeft = O;
metricRight = H;
note = C;
unicode = 67;
}
{
color = 4;
glyphname = D;
kernLeft = KO_H;
kernRight = KO_D;
layers = (
{
anchors = (
{
name = bottom;
pos = (784,0);
},
{
name = center;
pos = (401,681);
},
{
name = top;
pos = (784,1361);
}
);
layerId = m01;
shapes = (
{
closed = 1;
nodes = (
(913,0,ls),
(1090,0,o),
(1224,67,o),
(1314,202,cs),
(1438,387,o),
(1475,725,o),
(1417,988,cs),
(1364,1237,o),
(1196,1361,o),
(913,1361,cs),
(829,1361,l),
(829,0,l)
);
},
{
closed = 1;
nodes = (
(663,2,l),
(663,1361,l),
(125,1361,l),
(125,2,l)
);
}
);
width = 1534;
}
);
metricLeft = H;
metricRight = O;
note = D;
unicode = 68;
}
{
color = 4;
glyphname = E;
kernLeft = KO_H;
kernRight = KO_E;
layers = (
{
anchors = (
{
name = bottom;
pos = (758,0);
},
{
name = ogonek;
pos = (1372,10);
},
{
name = top;
pos = (758,1361);
},
{
name = topleft;
pos = (11,1361);
}
);
layerId = m01;
shapes = (
{
closed = 1;
nodes = (
(830,1020,o),
(936,913,o),
(1070,913,cs),
(1325,913,l),
(1325,1361,l),
(830,1361,l),
(830,1137,ls)
);
},
{
closed = 1;
nodes = (
(663,2,l),
(663,635,l),
(1094,635,l),
(1094,786,l),
(663,786,l),
(663,1361,l),
(125,1361,l),
(125,2,l)
);
},
{
closed = 1;
nodes = (
(1325,0,l),
(1325,526,l),
(1083,526,ls),
(969,526,o),
(829,458,o),
(829,255,cs),
(829,0,l)
);
}
);
width = 1450;
}
);
metricLeft = H;
metricRight = H;
note = E;
unicode = 69;
userData = {
KernOnName = E;
};
}
{
color = 4;
glyphname = F;
kernLeft = KO_H;
kernRight = KO_F;
layers = (
{
anchors = (
{
name = bottom;
pos = (758,0);
},
{
name = ogonek;
pos = (1372,10);
},
{
name = top;
pos = (758,1361);
},
{
name = topleft;
pos = (11,1361);
}
);
background = {
shapes = (
{
closed = 1;
nodes = (
(836,1190,o),
(863,1115,o),
(917,1068,cs),
(983,1011,o),
(1106,983,o),
(1287,983,cs),
(1391,983,l),
(1391,1361,l),
(836,1361,l),
(836,1294,ls)
);
},
{
closed = 1;
nodes = (
(663,2,l),
(663,552,l),
(1064,552,l),
(1064,813,l),
(663,813,l),
(663,1361,l),
(125,1361,l),
(125,2,l)
);
}
);
};
layerId = m01;
shapes = (
{
closed = 1;
nodes = (
(809,1030,o),
(836,955,o),
(890,908,cs),
(956,851,o),
(1079,823,o),
(1260,823,cs),
(1304,823,l),
(1304,1361,l),
(809,1361,l),
(809,1134,ls)
);
},
{
closed = 1;
nodes = (
(663,2,l),
(663,555,l),
(1094,555,l),
(1094,706,l),
(663,706,l),
(663,1361,l),
(125,1361,l),
(125,2,l)
);
}
);
width = 1363;
}
);
metricLeft = H;
note = F;
unicode = 70;
userData = {
KernOnName = F;
};
}
{
color = 4;
glyphname = G;
kernLeft = KO_O;
kernRight = KO_G;
layers = (
{
anchors = (
{
name = bottom;
pos = (726,0);
},
{
name = top;
pos = (798,1361);
}
);
layerId = m01;
shapes = (
{
closed = 1;
nodes = (
(874,1038,o),
(896,986,o),
(941,944,cs),
(996,893,o),
(1073,867,o),
(1174,867,cs),
(1424,867,l),
(1424,1361,l),
(874,1361,l),
(874,1170,ls)
);
},
{
closed = 1;
nodes = (
(943,0,ls),
(1115,0,o),
(1238,30,o),
(1313,90,cs),
(1387,149,o),
(1424,249,o),
(1424,392,cs),
(1424,686,l),
(872,686,l),
(872,0,l)
);
},
{
closed = 1;
nodes = (
(706,1361,l),
(628,1361,ls),
(498,1361,o),
(391,1329,o),
(306,1266,cs),
(162,1159,o),
(90,976,o),
(90,717,cs),
(90,590,o),
(106,475,o),
(139,374,cs),
(219,125,o),
(382,0,o),
(628,0,cs),
(706,0,l)
);
}
);
width = 1549;
}
);
metricLeft = O;
metricRight = H;
note = G;
unicode = 71;
}
{
glyphname = H;
kernLeft = KO_H;
kernRight = KO_H;
layers = (
{
anchors = (
{
name = bottom;
pos = (761,0);
},
{
name = center;
pos = (761,1021);
},
{
name = top;
pos = (761,1361);
},
{
name = topleft;
pos = (14,1361);
}
);
layerId = m01;
shapes = (
{
closed = 1;
nodes = (
(663,2,l),
(663,529,l),
(858,529,l),
(858,2,l),
(1396,2,l),
(1396,1361,l),
(858,1361,l),
(858,680,l),
(663,680,l),
(663,1361,l),
(125,1361,l),
(125,2,l)
);
}
);
userData = {
assembly = "PUSHW[ ]	/* 1 value pushed */
12
MDAP[1]	/* MoveDirectAbsPt */
PUSHW[ ]	/* 1 value pushed */
7
MDAP[1]	/* MoveDirectAbsPt */
PUSHW[ ]	/* 1 value pushed */
12
SRP0[ ]	/* SetRefPoint0 */
PUSHW[ ]	/* 1 value pushed */
0
MDRP[10000]	/* MoveDirectRelPt */
PUSHW[ ]	/* 1 value pushed */
0
MDAP[1]	/* MoveDirectAbsPt */
PUSHW[ ]	/* 2 values pushed */
1 11
MIRP[10100]	/* MoveIndirectRelPt */
PUSHW[ ]	/* 1 value pushed */
7
SRP0[ ]	/* SetRefPoint0 */
PUSHW[ ]	/* 1 value pushed */
3
MDRP[10000]	/* MoveDirectRelPt */
PUSHW[ ]	/* 1 value pushed */
7
SRP0[ ]	/* SetRefPoint0 */
PUSHW[ ]	/* 2 values pushed */
6 11
MIRP[10100]	/* MoveIndirectRelPt */
PUSHW[ ]	/* 1 value pushed */
1
SRP0[ ]	/* SetRefPoint0 */
PUSHW[ ]	/* 1 value pushed */
9
MDRP[10000]	/* MoveDirectRelPt */
PUSHW[ ]	/* 1 value pushed */
6
SRP0[ ]	/* SetRefPoint0 */
PUSHW[ ]	/* 1 value pushed */
13
MDRP[11100]	/* MoveDirectRelPt */
SVTCA[0]	/* SetFreedomAndProjectionVectorToAxis */
PUSHW[ ]	/* 1 value pushed */
0
RCVT[ ]	/* ReadCVT */
IF[ ]	/* If */
PUSHW[ ]	/* 1 value pushed */
0
MDAP[1]	/* MoveDirectAbsPt */
ELSE[ ]	/* Else */
PUSHW[ ]	/* 2 values pushed */
0 20
MIAP[0]	/* MoveIndirectAbsPt */
EIF[ ]	/* EndIf */
PUSHW[ ]	/* 1 value pushed */
0
RCVT[ ]	/* ReadCVT */
IF[ ]	/* If */
PUSHW[ ]	/* 1 value pushed */
4
MDAP[1]	/* MoveDirectAbsPt */
ELSE[ ]	/* Else */
PUSHW[ ]	/* 2 values pushed */
4 20
MIAP[0]	/* MoveIndirectAbsPt */
EIF[ ]	/* EndIf */
PUSHW[ ]	/* 4 values pushed */
3 2 8 4
CALL[ ]	/* CallFunction */
IUP[0]	/* InterpolateUntPts */
IUP[1]	/* InterpolateUntPts */";
};
width = 1521;
}
);
note = H;
unicode = 72;
userData = {
KernOnName = H;
};
}
{
color = 4;
glyphname = J;
kernLeft = KO_J;
kernRight = KO_J;
layers = (
{
anchors = (
{
name = bottom;
pos = (632,0);
},
{
name = top;
pos = (1013,1361);
}
);
layerId = m01;
shapes = (
{
closed = 1;
nodes = (
(831,0,ls),
(998,0,o),
(1119,37,o),
(1193,112,cs),
(1260,181,o),
(1294,290,o),
(1294,437,cs),
(1294,1361,l),
(741,1361,l),
(741,0,l)
);
},
{
closed = 1;
nodes = (
(90,254,o),
(132,153,o),
(218,91,cs),
(301,31,o),
(359,0,o),
(500,0,cs),
(575,0,l),
(575,467,l),
(90,467,l),
(90,395,ls)
);
}
);
width = 1419;
}
);
metricRight = H;
note = J;
unicode = 74;
}
{
color = 4;
glyphname = K;
kernLeft = KO_H;
kernRight = KO_K;
layers = (
{
anchors = (
{
name = bottom;
pos = (783,0);
},
{
name = top;
pos = (783,1361);
}
);
background = {
shapes = (
{
closed = 1;
nodes = (
(829,21,o),
(1003,0,o),
(1130,0,cs),
(1441,0,l),
(1441,198,ls),
(1441,382,o),
(1403,495,o),
(1326,566,cs),
(1245,641,o),
(1111,678,o),
(923,678,cs),
(829,678,l),
(829,358,ls)
);
}
);
};
layerId = m01;
shapes = (
{
closed = 1;
nodes = (
(663,2,l),
(663,1361,l),
(125,1361,l),
(125,2,l)
);
},
{
closed = 1;
nodes = (
(923,782,ls),
(1114,782,o),
(1248,814,o),
(1326,878,cs),
(1403,942,o),
(1441,1019,o),
(1441,1170,cs),
(1441,1359,l),
(1137,1359,ls),
(959,1359,o),
(829,1368,o),
(829,1021,cs),
(829,782,l)
);
},
{
closed = 1;
nodes = (
(1441,511,o),
(1353,650,o),
(1190,650,cs),
(829,650,l),
(829,0,l),
(1441,0,l),
(1441,375,ls)
);
}
);
width = 1551;
}
);
metricLeft = H;
metricRight = "=|U";
note = K;
unicode = 75;
}
{
color = 4;
glyphname = L;
kernLeft = KO_H;
kernRight = KO_L;
layers = (
{
anchors = (
{
name = bottom;
pos = (758,0);
},
{
name = center;
pos = (758,681);
},
{
name = top;
pos = (394,1361);
},
{
name = topright;
pos = (1505,1361);
}
);
layerId = m01;
shapes = (
{
closed = 1;
nodes = (
(663,2,l),
(663,1361,l),
(125,1361,l),
(125,2,l)
);
},
{
closed = 1;
nodes = (
(829,0,l),
(1324,0,l),
(1324,538,l),
(1080,538,ls),
(917,538,o),
(829,399,o),
(829,263,cs)
);
}
);
width = 1384;
}
);
metricLeft = H;
note = L;
unicode = 76;
}
{
color = 4;
glyphname = M;
kernLeft = KO_H;
kernRight = KO_M;
layers = (
{
anchors = (
{
name = bottom;
pos = (1145,0);
},
{
name = top;
pos = (1145,1361);
}
);
layerId = m01;
shapes = (
{
closed = 1;
nodes = (
(2122,0,l),
(2122,925,ls),
(2122,996,o),
(2114,1058,o),
(2099,1112,cs),
(2051,1279,o),
(1904,1362,o),
(1659,1362,cs),
(1569,1362,l),
(1569,0,l)
);
},
{
closed = 1;
nodes = (
(1403,0,l),
(1403,1362,l),
(847,1362,l),
(847,0,l)
);
},
{
closed = 1;
nodes = (
(681,0,l),
(681,1362,l),
(125,1362,l),
(125,0,l)
);
}
);
width = 2247;
}
);
metricLeft = H;
metricRight = H;
note = M;
unicode = 77;
}
{
color = 4;
glyphname = N;
kernLeft = KO_H;
kernRight = KO_N;
layers = (
{
anchors = (
{
name = bottom;
pos = (765,0);
},
{
name = top;
pos = (765,1361);
}
);
layerId = m01;
shapes = (
{
closed = 1;
nodes = (
(1382,0,l),
(1382,1020,ls),
(1382,1228,o),
(1241,1361,o),
(919,1361,cs),
(829,1361,l),
(829,0,l)
);
},
{
closed = 1;
nodes = (
(663,0,l),
(663,1361,l),
(125,1361,l),
(125,0,l)
);
}
);
width = 1492;
}
);
metricLeft = H;
metricRight = "=|U";
note = N;
unicode = 78;
}
{
color = 4;
glyphname = O;
kernLeft = KO_O;
kernRight = KO_O;
layers = (
{
anchors = (
{
name = bottom;
pos = (788,0);
},
{
name = center;
pos = (788,681);
},
{
name = ogonek;
pos = (1402,10);
},
{
name = top;
pos = (788,1361);
},
{
name = topleft;
pos = (41,1361);
},
{
name = topright;
pos = (1535,1361);
}
);
layerId = m01;
shapes = (
{
closed = 1;
nodes = (
(950,0,ls),
(1344,0,o),
(1488,335,o),
(1488,717,cs),
(1488,1088,o),
(1333,1361,o),
(950,1361,cs),
(872,1361,l),
(872,0,l)
);
},
{
closed = 1;
nodes = (
(706,1361,l),
(628,1361,ls),
(254,1361,o),
(90,1096,o),
(90,717,cs),
(90,341,o),
(230,0,o),
(628,0,cs),
(706,0,l)
);
}
);
width = 1578;
}
);
note = O;
unicode = 79;
userData = {
KernOnName = O;
};
}
{
color = 4;
glyphname = P;
kernLeft = KO_H;
kernRight = KO_P;
layers = (
{
anchors = (
{
name = bottom;
pos = (811,0);
},
{
name = top;
pos = (811,1361);
}
);
layerId = m01;
shapes = (
{
closed = 1;
nodes = (
(945,366,ls),
(1120,366,o),
(1257,412,o),
(1356,504,cs),
(1449,591,o),
(1496,705,o),
(1496,847,cs),
(1496,1007,o),
(1451,1131,o),
(1361,1218,cs),
(1263,1313,o),
(1115,1361,o),
(917,1361,cs),
(829,1361,l),
(829,366,l)
);
},
{
closed = 1;
nodes = (
(663,2,l),
(663,1361,l),
(125,1361,l),
(125,2,l)
);
}
);
width = 1566;
}
);
metricLeft = H;
note = P;
unicode = 80;
}
{
color = 4;
glyphname = Q;
kernLeft = KO_O;
kernRight = KO_O;
layers = (
{
anchors = (
{
name = bottom;
pos = (787,0);
},
{
name = top;
pos = (787,1361);
}
);
layerId = m01;
shapes = (
{
closed = 1;
nodes = (
(699,-236,ls),
(699,-279,o),
(708,-317,o),
(726,-350,cs),
(784,-457,o),
(914,-510,o),
(1116,-510,cs),
(1304,-510,l),
(1304,-170,l),
(699,-170,l)
);
},
{
closed = 1;
nodes = (
(950,0,ls),
(1141,0,o),
(1282,75,o),
(1373,226,cs),
(1450,355,o),
(1488,518,o),
(1488,717,cs),
(1488,835,o),
(1472,939,o),
(1440,1030,cs),
(1361,1251,o),
(1197,1361,o),
(950,1361,cs),
(872,1361,l),
(872,0,l)
);
},
{
closed = 1;
nodes = (
(706,1361,l),
(628,1361,ls),
(498,1361,o),
(391,1329,o),
(306,1266,cs),
(162,1159,o),
(90,976,o),
(90,717,cs),
(90,590,o),
(106,475,o),
(139,374,cs),
(219,125,o),
(382,0,o),
(628,0,cs),
(706,0,l)
);
}
);
width = 1578;
}
);
metricLeft = O;
metricRight = O;
note = Q;
unicode = 81;
}
{
color = 4;
glyphname = R;
kernLeft = KO_H;
kernRight = KO_R;
layers = (
{
anchors = (
{
name = bottom;
pos = (775,0);
},
{
name = top;
pos = (775,1361);
}
);
layerId = m01;
shapes = (
{
closed = 1;
nodes = (
(1401,1085,o),
(1357,1193,o),
(1270,1263,cs),
(1187,1330,o),
(1057,1363,o),
(881,1363,cs),
(829,1363,l),
(829,0,l),
(1425,0,l),
(1425,106,ls),
(1425,203,o),
(1403,289,o),
(1360,362,cs),
(1310,445,o),
(1236,504,o),
(1137,541,c),
(1313,604,o),
(1401,737,o),
(1401,938,cs)
);
},
{
closed = 1;
nodes = (
(663,0,l),
(663,1361,l),
(125,1361,l),
(125,0,l)
);
}
);
width = 1534;
}
);
metricLeft = H;
metricRight = B;
note = R;
unicode = 82;
userData = {
KernOnName = R;
};
}
{
color = 4;
glyphname = S;
kernLeft = KO_S;
kernRight = KO_S;
layers = (
{
anchors = (
{
name = bottom;
pos = (763,0);
},
{
name = top;
pos = (763,1361);
}
);
layerId = m01;
shapes = (
{
closed = 1;
nodes = (
(1401,1361,l),
(784,1361,l),
(1401,676,l)
);
},
{
closed = 1;
nodes = (
(1111,1,o),
(1225,29,o),
(1294,84,cs),
(1365,141,o),
(1401,235,o),
(1401,367,c),
(582,1361,l),
(271,1361,o),
(125,1234,o),
(125,959,c),
(131,959,l),
(954,1,l)
);
},
{
closed = 1;
nodes = (
(722,0,l),
(128,689,l),
(128,0,l)
);
}
);
width = 1526;
}
);
metricLeft = H;
metricRight = H;
note = S;
unicode = 83;
}
{
color = 4;
glyphname = T;
kernLeft = KO_T;
kernRight = KO_T;
layers = (
{
anchors = (
{
name = bottom;
pos = (894,0);
},
{
name = center;
pos = (894,681);
},
{
name = top;
pos = (894,1361);
}
);
layerId = m01;
shapes = (
{
closed = 1;
nodes = (
(1272,936,o),
(1286,845,o),
(1314,780,cs),
(1342,716,o),
(1377,681,o),
(1446,650,cs),
(1481,634,o),
(1535,626,o),
(1608,626,cs),
(1720,626,l),
(1720,1361,l),
(1272,1361,l),
(1272,1052,ls)
);
},
{
closed = 1;
nodes = (
(1164,0,l),
(1164,1361,l),
(626,1361,l),
(626,0,l)
);
},
{
closed = 1;
nodes = (
(182,626,ls),
(293,626,o),
(374,651,o),
(425,702,cs),
(487,764,o),
(518,881,o),
(518,1052,cs),
(518,1361,l),
(70,1361,l),
(70,626,l)
);
}
);
width = 1790;
}
);
note = T;
unicode = 84;
userData = {
KernOnName = T;
};
}
{
color = 4;
glyphname = U;
kernLeft = KO_U;
kernRight = KO_H;
layers = (
{
anchors = (
{
name = bottom;
pos = (747,0);
},
{
name = ogonek;
pos = (1361,10);
},
{
name = top;
pos = (747,1361);
},
{
name = topright;
pos = (1494,1361);
}
);
layerId = m01;
shapes = (
{
closed = 1;
nodes = (
(1384,0,l),
(1384,1362,l),
(828,1362,l),
(828,0,l)
);
},
{
closed = 1;
nodes = (
(110,366,o),
(118,304,o),
(134,250,cs),
(181,83,o),
(328,0,o),
(573,0,cs),
(663,0,l),
(663,1362,l),
(110,1362,l),
(110,437,ls)
);
}
);
width = 1509;
}
);
metricRight = H;
note = U;
unicode = 85;
}
{
color = 4;
glyphname = V;
kernLeft = KO_V;
kernRight = KO_V;
layers = (
{
layerId = m01;
shapes = (
{
closed = 1;
nodes = (
(907,0,ls),
(994,0,o),
(1068,15,o),
(1130,46,cs),
(1307,133,o),
(1396,332,o),
(1396,642,cs),
(1396,1361,l),
(1335,1361,ls),
(1163,1361,o),
(1028,1327,o),
(950,1260,cs),
(874,1194,o),
(836,1086,o),
(836,937,cs),
(836,0,l)
);
},
{
closed = 1;
nodes = (
(670,937,ls),
(670,1086,o),
(632,1194,o),
(556,1260,cs),
(478,1327,o),
(353,1361,o),
(171,1361,cs),
(110,1361,l),
(110,642,ls),
(110,439,o),
(148,283,o),
(224,175,cs),
(306,58,o),
(431,0,o),
(598,0,cs),
(670,0,l)
);
}
);
width = 1506;
}
);
metricLeft = U;
metricRight = "=|";
note = V;
unicode = 86;
}
{
color = 4;
glyphname = W;
kernLeft = KO_U;
kernRight = KO_J;
layers = (
{
anchors = (
{
name = bottom;
pos = (1129,0);
},
{
name = top;
pos = (1129,1361);
}
);
layerId = m01;
shapes = (
{
closed = 1;
nodes = (
(1640,0,ls),
(1808,0,o),
(1929,37,o),
(2003,112,cs),
(2070,181,o),
(2104,290,o),
(2104,437,cs),
(2104,1363,l),
(1551,1363,l),
(1551,0,l)
);
},
{
closed = 1;
nodes = (
(110,366,o),
(118,304,o),
(134,250,cs),
(181,83,o),
(328,0,o),
(574,0,cs),
(663,0,l),
(663,1363,l),
(110,1363,l),
(110,437,ls)
);
},
{
closed = 1;
nodes = (
(1385,-1,l),
(1385,1362,l),
(829,1362,l),
(829,-1,l)
);
}
);
width = 2229;
}
);
metricLeft = U;
metricRight = U;
note = W;
unicode = 87;
}
{
glyphname = X;
kernLeft = KO_X;
kernRight = KO_X;
layers = (
{
anchors = (
{
name = bottom;
pos = (708,0);
},
{
name = top;
pos = (708,1361);
}
);
layerId = m01;
shapes = (
{
closed = 1;
nodes = (
(962,0,l),
(1365,0,l),
(1365,143,ls),
(1365,325,o),
(1343,395,o),
(1208,546,cs),
(464,1361,l),
(40,1361,l),
(40,1152,ls),
(40,1088,o),
(58,982,o),
(155,877,cs)
);
},
{
closed = 1;
nodes = (
(964,866,ls),
(1090,866,o),
(1180,883,o),
(1233,918,cs),
(1308,966,o),
(1345,1061,o),
(1345,1203,cs),
(1345,1361,l),
(1291,1361,l),
(912,1361,l),
(912,866,l)
);
},
{
closed = 1;
nodes = (
(503,0,l),
(503,493,l),
(451,493,ls),
(325,493,o),
(235,476,o),
(182,442,cs),
(107,393,o),
(70,298,o),
(70,156,cs),
(70,0,l)
);
}
);
width = 1405;
}
);
metricRight = "=|";
note = X;
unicode = 88;
userData = {
KernOnName = X;
};
}
{
color = 4;
glyphname = Y;
kernLeft = KO_U;
kernRight = KO_H;
layers = (
{
anchors = (
{
name = bottom;
pos = (747,0);
},
{
name = top;
pos = (747,1361);
},
{
name = topleft;
pos = (0,1361);
}
);
layerId = m01;
shapes = (
{
closed = 1;
nodes = (
(829,1361,l),
(829,-510,l),
(891,-510,ls),
(1208,-510,o),
(1366,-352,o),
(1366,-37,cs),
(1366,1361,l)
);
},
{
closed = 1;
nodes = (
(110,366,o),
(118,304,o),
(134,250,cs),
(181,83,o),
(328,0,o),
(573,0,cs),
(663,0,l),
(663,1361,l),
(110,1361,l),
(110,437,ls)
);
}
);
width = 1491;
}
);
metricLeft = U;
metricRight = H;
note = Y;
unicode = 89;
}
{
color = 4;
glyphname = Z;
kernLeft = KO_Z;
kernRight = KO_Z;
layers = (
{
anchors = (
{
name = bottom;
pos = (796,0);
},
{
name = center;
pos = (796,681);
},
{
name = top;
pos = (796,1361);
}
);
background = {
shapes = (
{
closed = 1;
nodes = (
(545,0,l),
(1238,751,ls),
(1340,862,o),
(1404,1076,o),
(1404,1248,cs),
(1404,1361,l),
(964,1361,l),
(242,511,ls),
(143,394,o),
(125,240,o),
(125,128,cs),
(125,0,l)
);
},
{
closed = 1;
nodes = (
(141,947,o),
(174,824,o),
(241,785,c),
(271,785,l),
(763,1361,l),
(173,1361,l),
(152,1330,o),
(141,1271,o),
(141,1185,cs)
);
},
{
closed = 1;
nodes = (
(1391,279,o),
(1390,317,o),
(1387,354,cs),
(1378,472,o),
(1346,547,o),
(1291,578,c),
(757,0,l),
(1360,0,l),
(1380,31,o),
(1390,90,o),
(1390,177,cs),
(1391,238,ls)
);
}
);
};
layerId = m01;
shapes = (
{
closed = 1;
nodes = (
(545,0,l),
(1238,751,ls),
(1340,862,o),
(1404,1076,o),
(1404,1248,cs),
(1404,1361,l),
(964,1361,l),
(242,511,ls),
(143,394,o),
(125,240,o),
(125,128,cs),
(125,0,l)
);
},
{
closed = 1;
nodes = (
(294,894,ls),
(395,894,o),
(472,919,o),
(527,970,cs),
(572,1013,o),
(594,1065,o),
(594,1127,cs),
(594,1361,l),
(144,1361,l),
(144,894,l)
);
},
{
closed = 1;
nodes = (
(1240,467,ls),
(1139,467,o),
(1062,442,o),
(1007,391,cs),
(962,348,o),
(940,296,o),
(940,234,cs),
(940,0,l),
(1390,0,l),
(1390,467,l)
);
}
);
width = 1529;
}
);
metricLeft = H;
metricRight = H;
note = Z;
unicode = 90;
}
{
glyphname = bracketleft;
kernRight = KO_bracketleft;
layers = (
{
layerId = m01;
shapes = (
{
closed = 1;
nodes = (
(938,-340,l),
(938,-170,l),
(522,-170,l),
(522,1360,l),
(938,1360,l),
(938,1530,l),
(340,1530,l),
(340,-340,l)
);
}
);
userData = {
assembly = "PUSHW[ ]	/* 4 values pushed */
3 8 0 4
CALL[ ]	/* CallFunction */
SVTCA[0]	/* SetFreedomAndProjectionVectorToAxis */
PUSHW[ ]	/* 1 value pushed */
0
RCVT[ ]	/* ReadCVT */
IF[ ]	/* If */
PUSHW[ ]	/* 1 value pushed */
6
MDAP[1]	/* MoveDirectAbsPt */
ELSE[ ]	/* Else */
PUSHW[ ]	/* 2 values pushed */
6 16
MIAP[0]	/* MoveIndirectAbsPt */
EIF[ ]	/* EndIf */
PUSHW[ ]	/* 4 values pushed */
1 2 2 4
CALL[ ]	/* CallFunction */
PUSHW[ ]	/* 1 value pushed */
6
SRP0[ ]	/* SetRefPoint0 */
PUSHW[ ]	/* 2 values pushed */
4 2
MIRP[10100]	/* MoveIndirectRelPt */
IUP[0]	/* InterpolateUntPts */
IUP[1]	/* InterpolateUntPts */";
};
width = 1195;
}
);
note = bracketleft;
unicode = 91;
userData = {
KernOnSpecialSpacing = {
L = NoKerning;
R = parenthesis;
};
};
}
{
glyphname = backslash;
kernLeft = KO_backslash;
kernRight = KO_exclam;
layers = (
{
layerId = m01;
shapes = (
{
closed = 1;
nodes = (
(824,-166,l),
(411,1521,l),
(193,1521,l),
(606,-166,l)
);
}
);
userData = {
assembly = "PUSHW[ ]	/* 4 values pushed */
2 13 0 4
CALL[ ]	/* CallFunction */
PUSHW[ ]	/* 1 value pushed */
2
SRP0[ ]	/* SetRefPoint0 */
PUSHW[ ]	/* 1 value pushed */
5
MDRP[11100]	/* MoveDirectRelPt */
SVTCA[0]	/* SetFreedomAndProjectionVectorToAxis */
PUSHW[ ]	/* 3 values pushed */
1 3 3
CALL[ ]	/* CallFunction */
IUP[0]	/* InterpolateUntPts */
IUP[1]	/* InterpolateUntPts */";
};
width = 1018;
}
);
note = backslash;
unicode = 92;
userData = {
KernOnSpecialSpacing = {
L = "spaced-off";
R = "spaced-off";
};
};
}
{
glyphname = bracketright;
kernLeft = KO_bracketright;
layers = (
{
layerId = m01;
shapes = (
{
closed = 1;
nodes = (
(254,-340,l),
(852,-340,l),
(852,1530,l),
(254,1530,l),
(254,1360,l),
(670,1360,l),
(670,-170,l),
(254,-170,l)
);
}
);
userData = {
assembly = "PUSHW[ ]	/* 4 values pushed */
5 8 0 4
CALL[ ]	/* CallFunction */
SVTCA[0]	/* SetFreedomAndProjectionVectorToAxis */
PUSHW[ ]	/* 1 value pushed */
0
RCVT[ ]	/* ReadCVT */
IF[ ]	/* If */
PUSHW[ ]	/* 1 value pushed */
5
MDAP[1]	/* MoveDirectAbsPt */
ELSE[ ]	/* Else */
PUSHW[ ]	/* 2 values pushed */
5 16
MIAP[0]	/* MoveIndirectAbsPt */
EIF[ ]	/* EndIf */
PUSHW[ ]	/* 4 values pushed */
4 2 1 4
CALL[ ]	/* CallFunction */
PUSHW[ ]	/* 1 value pushed */
5
SRP0[ ]	/* SetRefPoint0 */
PUSHW[ ]	/* 2 values pushed */
0 2
MIRP[10100]	/* MoveIndirectRelPt */
IUP[0]	/* InterpolateUntPts */
IUP[1]	/* InterpolateUntPts */";
};
width = 1195;
}
);
note = bracketright;
unicode = 93;
userData = {
KernOnSpecialSpacing = {
L = parenthesis;
R = NoKerning;
};
};
}
{
glyphname = underscore;
kernLeft = KO_underscore;
kernRight = KO_underscore;
layers = (
{
layerId = m01;
shapes = (
{
closed = 1;
nodes = (
(-19,-337,l),
(1208,-337,l),
(1208,-173,l),
(-19,-173,l)
);
}
);
userData = {
assembly = "SVTCA[0]	/* SetFreedomAndProjectionVectorToAxis */
PUSHW[ ]	/* 4 values pushed */
0 2 1 4
CALL[ ]	/* CallFunction */
IUP[0]	/* InterpolateUntPts */
IUP[1]	/* InterpolateUntPts */";
};
width = 1189;
}
);
note = underscore;
unicode = 95;
userData = {
KernOnSpecialSpacing = {
L = underscore;
R = underscore;
};
};
}
{
glyphname = grave;
layers = (
{
layerId = m01;
shapes = (
{
closed = 1;
nodes = (
(276,1886,l),
(90,1699,l),
(310,1479,ls),
(406,1383,o),
(518,1332,o),
(598,1332,cs),
(671,1332,o),
(725,1349,o),
(760,1384,cs),
(805,1429,l)
);
}
);
width = 895;
}
);
metricLeft = "=hyphen";
metricRight = "=hyphen";
note = grave;
unicode = 96;
}
{
color = 4;
glyphname = a;
kernLeft = KO_a;
kernRight = KO_a;
layers = (
{
anchors = (
{
name = bottom;
pos = (707,0);
},
{
name = ogonek;
pos = (1321,10);
},
{
name = top;
pos = (707,1020);
}
);
layerId = m01;
shapes = (
{
closed = 1;
nodes = (
(792,254,o),
(830,152,o),
(907,91,cs),
(983,30,o),
(1108,0,o),
(1281,0,cs),
(1344,0,l),
(1344,1020,l),
(792,1020,l),
(792,395,ls)
);
},
{
closed = 1;
nodes = (
(70,346,o),
(114,226,o),
(202,138,cs),
(294,46,o),
(424,0,o),
(592,0,cs),
(644,0,l),
(644,1020,l),
(567,1020,ls),
(403,1020,o),
(277,969,o),
(189,868,cs),
(109,775,o),
(70,647,o),
(70,498,cs)
);
}
);
width = 1469;
}
);
metricLeft = o;
metricRight = "=|n";
note = a;
unicode = 97;
userData = {
KernOnName = a;
};
}
{
color = 4;
glyphname = b;
kernLeft = KO_h;
kernRight = KO_o;
layers = (
{
anchors = (
{
name = bottom;
pos = (763,0);
},
{
name = center;
pos = (380,1600);
},
{
name = top;
pos = (763,1020);
}
);
layerId = m01;
shapes = (
{
closed = 1;
nodes = (
(663,2,l),
(663,1530,l),
(125,1530,l),
(125,2,l)
);
},
{
closed = 1;
nodes = (
(863,0,ls),
(1032,0,o),
(1161,46,o),
(1252,138,cs),
(1339,227,o),
(1383,348,o),
(1383,502,cs),
(1383,653,o),
(1343,775,o),
(1264,868,cs),
(1177,969,o),
(1052,1020,o),
(888,1020,cs),
(811,1020,l),
(811,0,l)
);
}
);
width = 1453;
}
);
metricLeft = n;
metricRight = o;
note = b;
unicode = 98;
}
{
color = 4;
glyphname = c;
kernLeft = KO_a;
kernRight = KO_c;
layers = (
{
anchors = (
{
name = bottom;
pos = (706,0);
},
{
name = top;
pos = (706,1020);
}
);
layerId = m01;
shapes = (
{
closed = 1;
nodes = (
(790,698,o),
(827,597,o),
(901,538,cs),
(976,479,o),
(1099,449,o),
(1271,449,cs),
(1342,449,l),
(1342,1020,l),
(790,1020,l),
(790,841,ls)
);
},
{
closed = 1;
nodes = (
(70,345,o),
(114,225,o),
(201,138,cs),
(292,46,o),
(421,0,o),
(590,0,cs),
(642,0,l),
(642,1020,l),
(565,1020,ls),
(401,1020,o),
(276,969,o),
(189,868,cs),
(109,775,o),
(70,647,o),
(70,498,cs)
);
},
{
closed = 1;
nodes = (
(990,0,ls),
(1091,0,o),
(1168,25,o),
(1223,76,cs),
(1268,119,o),
(1290,171,o),
(1290,233,cs),
(1290,261,l),
(790,261,l),
(790,0,l)
);
}
);
width = 1464;
}
);
metricLeft = o;
note = c;
unicode = 99;
}
{
color = 4;
glyphname = d;
kernLeft = KO_a;
kernRight = KO_d;
layers = (
{
anchors = (
{
name = bottom;
pos = (707,0);
},
{
name = center;
pos = (1091,1600);
},
{
name = top;
pos = (363,1020);
},
{
name = topright;
pos = (1454,2000);
}
);
layerId = m01;
shapes = (
{
closed = 1;
nodes = (
(1325,0,l),
(1325,1531,l),
(792,1531,l),
(792,0,l)
);
},
{
closed = 1;
nodes = (
(70,346,o),
(114,226,o),
(202,138,cs),
(294,46,o),
(424,0,o),
(592,0,cs),
(644,0,l),
(644,1020,l),
(567,1020,ls),
(403,1020,o),
(277,969,o),
(189,868,cs),
(109,775,o),
(70,647,o),
(70,498,cs)
);
}
);
width = 1450;
}
);
metricLeft = o;
metricRight = "=|n";
note = d;
unicode = 100;
}
{
glyphname = e;
kernLeft = KO_a;
kernRight = KO_e;
layers = (
{
anchors = (
{
name = bottom;
pos = (708,0);
},
{
name = ogonek;
pos = (1322,10);
},
{
name = top;
pos = (708,1020);
}
);
layerId = m01;
shapes = (
{
closed = 1;
nodes = (
(1346,457,l),
(1346,567,ls),
(1346,642,o),
(1337,707,o),
(1319,764,cs),
(1264,935,o),
(1110,1020,o),
(858,1020,cs),
(792,1020,l),
(792,457,l)
);
},
{
closed = 1;
nodes = (
(70,346,o),
(114,226,o),
(202,138,cs),
(294,46,o),
(424,0,o),
(592,0,cs),
(644,0,l),
(644,1020,l),
(567,1020,ls),
(403,1020,o),
(277,969,o),
(189,868,cs),
(109,775,o),
(70,647,o),
(70,498,cs)
);
},
{
closed = 1;
nodes = (
(992,0,ls),
(1093,0,o),
(1170,25,o),
(1225,76,cs),
(1270,119,o),
(1292,171,o),
(1292,233,cs),
(1292,261,l),
(792,261,l),
(792,0,l)
);
}
);
width = 1416;
}
);
metricLeft = o;
metricRight = o;
note = e;
unicode = 101;
userData = {
KernOnName = e;
};
}
{
glyphname = f;
kernLeft = KO_f;
kernRight = KO_f;
layers = (
{
anchors = (
{
name = bottom;
pos = (750,0);
},
{
name = top;
pos = (750,2000);
}
);
layerId = m01;
shapes = (
{
closed = 1;
nodes = (
(703,0,l),
(703,1549,l),
(636,1549,ls),
(549,1549,o),
(476,1537,o),
(416,1512,cs),
(249,1445,o),
(165,1294,o),
(165,1061,cs),
(165,0,l)
);
},
{
closed = 1;
nodes = (
(1000,555,l),
(1000,706,l),
(10,706,l),
(10,555,l)
);
},
{
closed = 1;
nodes = (
(839,1546,o),
(752,1459,o),
(752,1285,cs),
(752,1108,o),
(832,1033,o),
(1007,1033,cs),
(1181,1033,o),
(1258,1108,o),
(1258,1285,cs),
(1258,1467,o),
(1187,1546,o),
(1015,1546,cs)
);
}
);
width = 1158;
}
);
note = f;
unicode = 102;
userData = {
KernOnName = f;
};
}
{
color = 4;
glyphname = g;
kernLeft = KO_a;
kernRight = KO_a;
layers = (
{
anchors = (
{
name = bottom;
pos = (689,-560);
},
{
name = top;
pos = (719,1020);
}
);
layerId = m01;
shapes = (
{
closed = 1;
nodes = (
(923,-450,ls),
(1248,-450,o),
(1326,-223,o),
(1326,23,cs),
(1326,1020,l),
(792,1020,l),
(792,-450,l)
);
},
{
closed = 1;
nodes = (
(70,182,o),
(267,0,o),
(592,0,cs),
(644,0,l),
(644,1020,l),
(567,1020,ls),
(242,1020,o),
(70,813,o),
(70,498,cs)
);
},
{
closed = 1;
nodes = (
(211,-199,ls),
(211,-380,o),
(323,-450,o),
(490,-450,cs),
(644,-450,l),
(644,-67,l),
(211,-67,l)
);
}
);
width = 1451;
}
);
metricLeft = o;
metricRight = "=|h";
note = g;
unicode = 103;
}
{
color = 4;
glyphname = h;
kernLeft = KO_h;
kernRight = KO_n;
layers = (
{
anchors = (
{
name = bottom;
pos = (743,0);
},
{
name = center;
pos = (380,1187);
},
{
name = top;
pos = (390,1532);
}
);
layerId = m01;
shapes = (
{
closed = 1;
nodes = (
(663,0,l),
(663,1531,l),
(125,1531,l),
(125,0,l)
);
},
{
closed = 1;
nodes = (
(1364,0,l),
(1364,583,ls),
(1364,654,o),
(1356,716,o),
(1340,770,cs),
(1293,937,o),
(1146,1020,o),
(901,1020,cs),
(811,1020,l),
(811,0,l)
);
}
);
width = 1484;
}
);
metricLeft = n;
metricRight = n;
note = h;
unicode = 104;
}
{
glyphname = i;
kernLeft = KO_i;
kernRight = KO_i;
layers = (
{
layerId = m01;
shapes = (
{
closed = 1;
nodes = (
(665,0,l),
(665,1019,l),
(127,1019,l),
(127,0,l)
);
},
{
closed = 1;
nodes = (
(616,1201,o),
(706,1264,o),
(706,1408,cs),
(706,1548,o),
(609,1607,o),
(390,1607,cs),
(171,1607,o),
(70,1548,o),
(70,1408,cs),
(70,1270,o),
(180,1201,o),
(401,1201,cs)
);
}
);
width = 776;
}
);
note = i;
unicode = 105;
userData = {
KernOnName = i;
};
}
{
color = 4;
glyphname = l;
kernLeft = KO_l;
kernRight = KO_l;
layers = (
{
anchors = (
{
name = bottom;
pos = (339,0);
},
{
name = center;
pos = (339,510);
},
{
name = top;
pos = (339,1531);
},
{
name = topright;
pos = (888,2000);
}
);
layerId = m01;
shapes = (
{
closed = 1;
nodes = (
(608,0,l),
(608,1531,l),
(70,1531,l),
(70,0,l)
);
}
);
userData = {
assembly = "PUSHW[ ]	/* 4 values pushed */
1 11 0 4
CALL[ ]	/* CallFunction */
PUSHW[ ]	/* 1 value pushed */
1
SRP0[ ]	/* SetRefPoint0 */
PUSHW[ ]	/* 1 value pushed */
5
MDRP[11100]	/* MoveDirectRelPt */
SVTCA[0]	/* SetFreedomAndProjectionVectorToAxis */
PUSHW[ ]	/* 1 value pushed */
0
RCVT[ ]	/* ReadCVT */
IF[ ]	/* If */
PUSHW[ ]	/* 1 value pushed */
2
MDAP[1]	/* MoveDirectAbsPt */
ELSE[ ]	/* Else */
PUSHW[ ]	/* 2 values pushed */
2 14
MIAP[0]	/* MoveIndirectAbsPt */
EIF[ ]	/* EndIf */
PUSHW[ ]	/* 1 value pushed */
0
MDRP[11100]	/* MoveDirectRelPt */
IUP[0]	/* InterpolateUntPts */
IUP[1]	/* InterpolateUntPts */";
};
width = 678;
}
);
metricLeft = i;
metricRight = i;
note = l;
unicode = 108;
userData = {
KernOnName = l;
};
}
{
color = 4;
glyphname = m;
kernLeft = KO_n;
kernRight = KO_n;
layers = (
{
anchors = (
{
name = bottom;
pos = (1145,0);
},
{
name = top;
pos = (1145,1020);
}
);
layerId = m01;
shapes = (
{
closed = 1;
nodes = (
(2083,0,l),
(2083,583,ls),
(2083,883,o),
(1944,1020,o),
(1620,1020,cs),
(1530,1020,l),
(1530,0,l)
);
},
{
closed = 1;
nodes = (
(1382,0,l),
(1382,583,ls),
(1382,883,o),
(1243,1020,o),
(919,1020,cs),
(829,1020,l),
(829,0,l)
);
},
{
closed = 1;
nodes = (
(681,0,l),
(681,1020,l),
(125,1020,l),
(125,0,l)
);
}
);
width = 2203;
}
);
metricLeft = n;
metricRight = n;
note = m;
unicode = 109;
userData = {
KernOnName = m;
};
}
{
color = 4;
glyphname = n;
kernLeft = KO_n;
kernRight = KO_n;
layers = (
{
anchors = (
{
name = bottom;
pos = (762,0);
},
{
name = top;
pos = (762,1020);
}
);
layerId = m01;
shapes = (
{
closed = 1;
nodes = (
(1382,0,l),
(1382,583,ls),
(1382,654,o),
(1374,716,o),
(1358,770,cs),
(1311,937,o),
(1164,1020,o),
(919,1020,cs),
(829,1020,l),
(829,0,l)
);
},
{
closed = 1;
nodes = (
(681,0,l),
(681,1020,l),
(125,1020,l),
(125,0,l)
);
}
);
width = 1502;
}
);
note = n;
unicode = 110;
userData = {
KernOnName = n;
};
}
{
color = 4;
glyphname = o;
kernLeft = KO_a;
kernRight = KO_o;
layers = (
{
anchors = (
{
name = bottom;
pos = (725,0);
},
{
name = center;
pos = (725,510);
},
{
name = ogonek;
pos = (1339,10);
},
{
name = top;
pos = (725,1020);
},
{
name = topright;
pos = (1472,1020);
}
);
layerId = m01;
shapes = (
{
closed = 1;
nodes = (
(844,0,ls),
(1171,0,o),
(1366,182,o),
(1366,502,cs),
(1366,809,o),
(1196,1020,o),
(869,1020,cs),
(792,1020,l),
(792,0,l)
);
},
{
closed = 1;
nodes = (
(70,182,o),
(267,0,o),
(592,0,cs),
(644,0,l),
(644,1020,l),
(567,1020,ls),
(242,1020,o),
(70,813,o),
(70,498,cs)
);
}
);
width = 1436;
}
);
metricRight = "=|";
note = o;
unicode = 111;
userData = {
KernOnName = o;
};
}
{
color = 4;
glyphname = p;
kernLeft = KO_n;
kernRight = KO_o;
layers = (
{
anchors = (
{
name = bottom;
pos = (726,0);
},
{
name = top;
pos = (726,1020);
}
);
layerId = m01;
shapes = (
{
closed = 1;
nodes = (
(863,0,ls),
(1031,0,o),
(1161,46,o),
(1253,138,cs),
(1341,226,o),
(1385,347,o),
(1385,502,cs),
(1385,654,o),
(1345,776,o),
(1266,868,cs),
(1178,969,o),
(1052,1020,o),
(888,1020,cs),
(811,1020,l),
(811,0,l)
);
},
{
closed = 1;
nodes = (
(663,-340,l),
(663,1020,l),
(125,1020,l),
(125,-340,l)
);
}
);
width = 1455;
}
);
metricLeft = h;
metricRight = o;
note = p;
unicode = 112;
}
{
color = 4;
glyphname = q;
kernLeft = KO_a;
kernRight = KO_a;
layers = (
{
anchors = (
{
name = bottom;
pos = (707,0);
},
{
name = top;
pos = (707,1020);
}
);
layerId = m01;
shapes = (
{
closed = 1;
nodes = (
(1330,-340,l),
(1330,1020,l),
(792,1020,l),
(792,-340,l)
);
},
{
closed = 1;
nodes = (
(70,346,o),
(114,226,o),
(202,138,cs),
(294,46,o),
(424,0,o),
(592,0,cs),
(644,0,l),
(644,1020,l),
(567,1020,ls),
(403,1020,o),
(277,969,o),
(189,868,cs),
(109,775,o),
(70,647,o),
(70,498,cs)
);
}
);
width = 1455;
}
);
metricLeft = o;
metricRight = "=|h";
note = q;
unicode = 113;
}
{
color = 4;
glyphname = r;
kernLeft = KO_n;
kernRight = KO_r;
layers = (
{
anchors = (
{
name = bottom;
pos = (704,0);
},
{
name = top;
pos = (704,1020);
}
);
layerId = m01;
shapes = (
{
closed = 1;
nodes = (
(681,0,l),
(681,1020,l),
(125,1020,l),
(125,0,l)
);
},
{
closed = 1;
nodes = (
(848,1022,o),
(761,935,o),
(761,761,cs),
(761,584,o),
(841,509,o),
(1016,509,cs),
(1190,509,o),
(1267,584,o),
(1267,761,cs),
(1267,943,o),
(1196,1022,o),
(1024,1022,cs)
);
}
);
width = 1311;
}
);
metricLeft = N;
note = r;
unicode = 114;
userData = {
KernOnName = r;
};
}
{
glyphname = s;
kernLeft = KO_s;
kernRight = KO_s;
layers = (
{
anchors = (
{
name = bottom;
pos = (687,0);
},
{
name = top;
pos = (687,1020);
}
);
layerId = m01;
shapes = (
{
closed = 1;
nodes = (
(888,-10,l),
(1008,-10,o),
(1099,19,o),
(1162,76,cs),
(1241,145,o),
(1265,273,o),
(1236,377,c),
(493,1030,l),
(368,1030,o),
(275,1002,o),
(215,946,cs),
(163,898,o),
(136,821,o),
(136,761,cs),
(136,734,o),
(137,710,o),
(140,690,cs),
(144,662,l),
(149,636,l),
(156,636,l)
);
},
{
closed = 1;
nodes = (
(118,0,l),
(498,0,l),
(498,138,ls),
(498,200,o),
(476,252,o),
(431,295,cs),
(376,346,o),
(299,371,o),
(198,371,cs),
(118,371,l)
);
},
{
closed = 1;
nodes = (
(1233,1020,l),
(853,1020,l),
(853,882,ls),
(853,820,o),
(875,768,o),
(920,725,cs),
(975,674,o),
(1052,649,o),
(1153,649,cs),
(1233,649,l)
);
}
);
width = 1373;
}
);
note = s;
unicode = 115;
userData = {
KernOnName = s;
};
}
{
color = 4;
glyphname = t;
kernLeft = KO_t;
kernRight = KO_t;
layers = (
{
anchors = (
{
name = bottom;
pos = (757,0);
},
{
name = center;
pos = (757,510);
},
{
name = top;
pos = (757,1291);
},
{
name = topright;
pos = (1504,2000);
}
);
layerId = m01;
shapes = (
{
closed = 1;
nodes = (
(693,1361,l),
(543,1361,l),
(120,1014,l),
(120,452,ls),
(120,151,o),
(285,0,o),
(615,0,cs),
(693,0,l)
);
},
{
closed = 1;
nodes = (
(1145,869,l),
(1145,1020,l),
(295,1020,l),
(295,869,l)
);
},
{
closed = 1;
nodes = (
(870,0,ls),
(971,0,o),
(1048,25,o),
(1103,76,cs),
(1148,119,o),
(1170,171,o),
(1170,233,cs),
(1170,371,l),
(790,371,l),
(790,0,l)
);
}
);
width = 1260;
}
);
metricLeft = "=|n";
note = t;
unicode = 116;
}
{
color = 4;
glyphname = u;
kernLeft = KO_u;
kernRight = KO_a;
layers = (
{
anchors = (
{
name = bottom;
pos = (757,0);
},
{
name = ogonek;
pos = (1371,10);
},
{
name = top;
pos = (757,1020);
},
{
name = topright;
pos = (1504,1020);
}
);
layerId = m01;
shapes = (
{
closed = 1;
nodes = (
(1377,0,l),
(1377,1020,l),
(821,1020,l),
(821,0,l)
);
},
{
closed = 1;
nodes = (
(120,366,o),
(128,304,o),
(144,250,cs),
(191,83,o),
(338,0,o),
(583,0,cs),
(673,0,l),
(673,1020,l),
(120,1020,l),
(120,437,ls)
);
}
);
width = 1502;
}
);
metricLeft = "=|n";
metricRight = "=|n";
note = u;
unicode = 117;
}
{
color = 4;
glyphname = v;
kernLeft = KO_v;
kernRight = KO_v;
layers = (
{
anchors = (
{
name = bottom;
pos = (757,0);
},
{
name = top;
pos = (757,1020);
}
);
layerId = m01;
shapes = (
{
closed = 1;
nodes = (
(879,0,ls),
(966,0,o),
(1040,15,o),
(1102,46,cs),
(1279,133,o),
(1368,332,o),
(1368,642,cs),
(1368,1020,l),
(1307,1020,ls),
(1135,1020,o),
(1010,987,o),
(932,920,cs),
(856,853,o),
(818,745,o),
(818,596,cs),
(818,0,l)
);
},
{
closed = 1;
nodes = (
(670,596,ls),
(670,745,o),
(632,853,o),
(556,920,cs),
(478,987,o),
(353,1020,o),
(181,1020,cs),
(120,1020,l),
(120,642,ls),
(120,439,o),
(158,283,o),
(234,175,cs),
(316,58,o),
(441,0,o),
(608,0,cs),
(670,0,l)
);
}
);
width = 1488;
}
);
metricLeft = u;
metricRight = n;
note = v;
unicode = 118;
}
{
color = 4;
glyphname = w;
kernLeft = KO_u;
kernRight = KO_w;
layers = (
{
anchors = (
{
name = bottom;
pos = (1139,0);
},
{
name = top;
pos = (1139,1020);
}
);
layerId = m01;
shapes = (
{
closed = 1;
nodes = (
(1614,0,ls),
(1782,0,o),
(1903,37,o),
(1977,112,cs),
(2044,181,o),
(2078,290,o),
(2078,437,cs),
(2078,1020,l),
(1525,1020,l),
(1525,0,l)
);
},
{
closed = 1;
nodes = (
(120,366,o),
(128,304,o),
(144,250,cs),
(191,83,o),
(338,0,o),
(584,0,cs),
(673,0,l),
(673,1020,l),
(120,1020,l),
(120,437,ls)
);
},
{
closed = 1;
nodes = (
(1377,-1,l),
(1377,1019,l),
(821,1019,l),
(821,-1,l)
);
}
);
width = 2198;
}
);
metricLeft = u;
metricRight = "=|";
note = w;
unicode = 119;
}
{
glyphname = x;
kernLeft = KO_x;
kernRight = KO_x;
layers = (
{
anchors = (
{
name = bottom;
pos = (698,0);
},
{
name = top;
pos = (698,1020);
}
);
layerId = m01;
shapes = (
{
closed = 1;
nodes = (
(572,0,l),
(572,279,l),
(882,0,l),
(1305,0,l),
(1305,107,ls),
(1305,222,o),
(1277,314,o),
(1246,353,cs),
(1232,370,o),
(1222,383,o),
(1216,394,cs),
(1202,418,o),
(1114,503,o),
(951,650,c),
(999,651,o),
(1044,654,o),
(1087,660,cs),
(1232,679,o),
(1305,760,o),
(1305,903,cs),
(1305,1020,l),
(824,1020,l),
(824,759,l),
(512,1020,l),
(90,1020,l),
(90,913,ls),
(90,790,o),
(115,701,o),
(166,645,c),
(471,370,l),
(419,370,o),
(370,368,o),
(323,364,cs),
(168,349,o),
(90,267,o),
(90,117,cs),
(90,0,l)
);
}
);
width = 1395;
}
);
note = x;
unicode = 120;
}
{
color = 4;
glyphname = y;
kernLeft = KO_u;
kernRight = KO_a;
layers = (
{
anchors = (
{
name = bottom;
pos = (757,0);
},
{
name = top;
pos = (757,1020);
}
);
layerId = m01;
shapes = (
{
closed = 1;
nodes = (
(821,1020,l),
(821,-540,l),
(883,-540,ls),
(1200,-540,o),
(1358,-382,o),
(1358,-67,cs),
(1358,1020,l)
);
},
{
closed = 1;
nodes = (
(120,366,o),
(128,304,o),
(144,250,cs),
(191,83,o),
(338,0,o),
(583,0,cs),
(673,0,l),
(673,1020,l),
(120,1020,l),
(120,437,ls)
);
}
);
width = 1483;
}
);
metricLeft = u;
metricRight = "=|h";
note = y;
unicode = 121;
}
{
glyphname = z;
kernLeft = KO_z;
kernRight = KO_z;
layers = (
{
anchors = (
{
name = bottom;
pos = (664,0);
},
{
name = center;
pos = (664,510);
},
{
name = top;
pos = (664,1020);
}
);
background = {
shapes = (
{
closed = 1;
nodes = (
(233,481,ls),
(162,418,o),
(127,354,o),
(127,261,cs),
(127,100,l),
(125,0,l),
(468,0,l),
(1106,542,l),
(1178,608,o),
(1214,681,o),
(1214,762,cs),
(1214,901,l),
(1215,1020,l),
(870,1020,l)
);
},
{
closed = 1;
nodes = (
(90,792,o),
(121,724,o),
(183,684,c),
(213,684,l),
(603,1020,l),
(118,1020,l),
(99,988,o),
(90,944,o),
(90,889,cs)
);
},
{
closed = 1;
nodes = (
(1237,224,o),
(1201,295,o),
(1129,346,c),
(726,0,l),
(1211,0,l),
(1228,31,o),
(1237,75,o),
(1237,131,cs)
);
}
);
};
layerId = m01;
shapes = (
{
closed = 1;
nodes = (
(233,481,ls),
(162,418,o),
(127,354,o),
(127,261,cs),
(127,100,l),
(125,0,l),
(468,0,l),
(1106,542,l),
(1178,608,o),
(1214,681,o),
(1214,762,cs),
(1214,901,l),
(1215,1020,l),
(870,1020,l)
);
},
{
closed = 1;
nodes = (
(1153,371,ls),
(1052,371,o),
(975,346,o),
(920,295,cs),
(875,252,o),
(853,200,o),
(853,138,cs),
(853,0,l),
(1233,0,l),
(1233,371,l)
);
},
{
closed = 1;
nodes = (
(198,649,ls),
(299,649,o),
(376,674,o),
(431,725,cs),
(476,768,o),
(498,820,o),
(498,882,cs),
(498,1020,l),
(118,1020,l),
(118,649,l)
);
}
);
width = 1327;
}
);
note = z;
unicode = 122;
userData = {
KernOnName = z;
};
}
{
glyphname = braceleft;
kernRight = KO_braceleft;
layers = (
{
layerId = m01;
shapes = (
{
closed = 1;
nodes = (
(666,-171,o),
(573,-132,o),
(573,-53,cs),
(573,-8,ls),
(573,32,o),
(575,79,o),
(578,123,cs),
(582,190,o),
(604,239,o),
(604,379,cs),
(604,523,o),
(551,603,o),
(446,618,c),
(446,632,l),
(551,645,o),
(604,724,o),
(604,870,cs),
(604,911,o),
(603,945,o),
(600,972,cs),
(596,1003,o),
(593,1028,o),
(582,1085,cs),
(576,1114,o),
(573,1165,o),
(573,1240,cs),
(573,1282,ls),
(573,1325,o),
(601,1360,o),
(656,1386,cs),
(705,1410,o),
(768,1421,o),
(848,1421,cs),
(888,1421,o),
(946,1415,o),
(1023,1403,c),
(1023,1593,l),
(982,1595,l),
(925,1598,l),
(854,1599,ls),
(539,1599,o),
(382,1491,o),
(382,1276,cs),
(382,1241,o),
(383,1205,o),
(386,1169,cs),
(390,1129,o),
(393,1093,o),
(408,1024,cs),
(415,989,o),
(419,938,o),
(419,870,cs),
(419,852,ls),
(419,813,o),
(405,781,o),
(378,755,cs),
(349,728,o),
(312,714,o),
(266,714,cs),
(171,712,l),
(171,535,l),
(266,535,ls),
(289,535,o),
(311,531,o),
(330,524,cs),
(389,501,o),
(419,458,o),
(419,397,cs),
(419,379,ls),
(419,311,o),
(412,244,o),
(398,179,cs),
(387,126,o),
(382,51,o),
(382,-47,cs),
(382,-155,o),
(422,-233,o),
(502,-282,cs),
(582,-330,o),
(712,-349,o),
(813,-349,cs),
(863,-349,o),
(903,-348,o),
(934,-347,cs),
(980,-345,l),
(1023,-343,l),
(1023,-154,l),
(951,-165,o),
(894,-171,o),
(852,-171,cs)
);
}
);
width = 1195;
}
);
note = braceleft;
unicode = 123;
userData = {
KernOnSpecialSpacing = {
R = parenthesis;
};
};
}
{
glyphname = bar;
layers = (
{
layerId = m01;
shapes = (
{
closed = 1;
nodes = (
(318,-170,l),
(318,1700,l),
(90,1700,l),
(90,-170,l)
);
}
);
userData = {
assembly = "PUSHW[ ]	/* 4 values pushed */
1 8 0 4
CALL[ ]	/* CallFunction */
SVTCA[0]	/* SetFreedomAndProjectionVectorToAxis */
PUSHW[ ]	/* 3 values pushed */
1 2 3
CALL[ ]	/* CallFunction */
IUP[0]	/* InterpolateUntPts */
IUP[1]	/* InterpolateUntPts */";
};
width = 408;
}
);
note = bar;
unicode = 124;
userData = {
KernOnSpecialSpacing = {
L = NoKerning;
R = NoKerning;
};
};
}
{
glyphname = braceright;
kernLeft = KO_braceright;
layers = (
{
layerId = m01;
shapes = (
{
closed = 1;
nodes = (
(214,-345,l),
(272,-348,l),
(344,-349,ls),
(502,-349,o),
(618,-327,o),
(692,-282,cs),
(771,-234,o),
(812,-154,o),
(812,-61,cs),
(812,-14,o),
(811,29,o),
(808,70,cs),
(804,115,o),
(801,155,o),
(786,225,cs),
(779,260,o),
(775,311,o),
(775,379,cs),
(775,397,ls),
(775,436,o),
(789,468,o),
(816,494,cs),
(845,521,o),
(882,535,o),
(928,535,cs),
(1023,535,l),
(1023,712,l),
(928,714,ls),
(905,714,o),
(883,718,o),
(864,725,cs),
(805,748,o),
(775,791,o),
(775,852,cs),
(775,870,ls),
(775,938,o),
(782,1004,o),
(796,1068,cs),
(807,1120,o),
(812,1189,o),
(812,1276,cs),
(812,1491,o),
(655,1599,o),
(340,1599,cs),
(258,1597,l),
(171,1593,l),
(171,1403,l),
(248,1415,o),
(316,1421,o),
(376,1421,cs),
(435,1421,o),
(489,1409,o),
(538,1386,cs),
(593,1360,o),
(621,1325,o),
(621,1282,cs),
(621,1204,ls),
(621,1163,o),
(617,1118,o),
(609,1070,cs),
(597,1001,ls),
(592,974,o),
(590,930,o),
(590,870,cs),
(590,724,o),
(643,645,o),
(748,632,c),
(748,618,l),
(643,603,o),
(590,524,o),
(590,379,cs),
(590,318,o),
(593,269,o),
(600,231,cs),
(612,158,ls),
(618,125,o),
(621,69,o),
(621,-8,cs),
(621,-53,ls),
(621,-95,o),
(593,-126,o),
(538,-146,cs),
(487,-165,o),
(426,-171,o),
(342,-171,cs),
(300,-171,o),
(243,-165,o),
(171,-154,c),
(171,-343,l)
);
}
);
width = 1195;
}
);
note = braceright;
unicode = 125;
userData = {
KernOnSpecialSpacing = {
L = parenthesis;
};
};
}
{
glyphname = asciitilde;
kernLeft = KO_asciitilde;
kernRight = KO_asciitilde;
layers = (
{
layerId = m01;
shapes = (
{
closed = 1;
nodes = (
(1012,613,l),
(1012,895,l),
(717,630,l),
(384,900,l),
(90,628,l),
(90,351,l),
(382,628,l),
(717,351,l)
);
}
);
width = 1102;
}
);
metricLeft = hyphen;
metricRight = hyphen;
note = asciitilde;
unicode = 126;
userData = {
KernOnSpecialSpacing = {
L = math;
R = math;
};
};
}
{
glyphname = exclamdown;
kernRight = KO_exclam;
layers = (
{
layerId = m01;
shapes = (
{
closed = 1;
nodes = (
(279,1013,o),
(383,955,o),
(599,955,cs),
(815,955,o),
(915,1013,o),
(915,1155,cs),
(915,1297,o),
(826,1361,o),
(610,1361,cs),
(389,1361,o),
(279,1292,o),
(279,1154,cs)
);
},
{
closed = 1;
nodes = (
(912,-339,l),
(873,682,l),
(322,682,l),
(282,-339,l)
);
}
);
width = 1194;
}
);
note = exclamdown;
unicode = 161;
userData = {
KernOnSpecialSpacing = {
R = "spaced-off";
};
};
}
{
glyphname = cent;
kernLeft = KO_cent;
kernRight = KO_cent;
layers = (
{
layerId = m01;
shapes = (
{
closed = 1;
nodes = (
(1201,1156,l),
(1237,1463,l),
(972,1463,l),
(938,1156,l)
);
},
{
closed = 1;
nodes = (
(1038,700,o),
(1081,599,o),
(1166,538,cs),
(1250,479,o),
(1388,449,o),
(1579,449,cs),
(1655,449,l),
(1655,1020,l),
(1038,1020,l),
(1038,841,ls)
);
},
{
closed = 1;
nodes = (
(219,346,o),
(268,226,o),
(365,138,cs),
(467,46,o),
(611,0,o),
(796,0,cs),
(871,0,l),
(871,1020,l),
(796,1020,ls),
(614,1020,o),
(470,969,o),
(365,868,cs),
(268,773,o),
(219,645,o),
(219,498,cs)
);
},
{
closed = 1;
nodes = (
(1208,0,ls),
(1321,0,o),
(1415,25,o),
(1492,76,cs),
(1563,123,o),
(1598,175,o),
(1598,233,cs),
(1598,261,l),
(1038,261,l),
(1038,0,l)
);
},
{
closed = 1;
nodes = (
(744,-450,l),
(1008,-450,l),
(1041,-167,l),
(778,-167,l)
);
}
);
width = 1874;
}
);
note = cent;
unicode = 162;
userData = {
KernOnSpecialSpacing = {
L = symbols;
R = symbols;
};
};
}
{
glyphname = sterling;
kernLeft = KO_sterling;
kernRight = KO_sterling;
layers = (
{
layerId = m01;
shapes = (
{
closed = 1;
nodes = (
(1127,1185,o),
(1157,1102,o),
(1234,1054,cs),
(1310,1005,o),
(1436,992,o),
(1628,992,cs),
(1693,992,l),
(1693,1371,l),
(1127,1371,l),
(1127,1328,ls)
);
},
{
closed = 1;
nodes = (
(126,644,l),
(305,644,l),
(302,421,o),
(289,261,o),
(264,166,cs),
(235,55,o),
(186,0,o),
(117,0,cs),
(958,0,l),
(958,644,l),
(1423,644,l),
(1423,811,l),
(958,811,l),
(958,1371,l),
(885,1371,ls),
(526,1371,o),
(333,1184,o),
(308,811,c),
(126,811,l)
);
},
{
closed = 1;
nodes = (
(1781,-1,l),
(1781,434,l),
(1610,434,ls),
(1431,434,o),
(1307,396,o),
(1238,321,cs),
(1184,262,o),
(1157,168,o),
(1157,40,cs),
(1157,-1,l)
);
}
);
width = 1874;
}
);
note = sterling;
unicode = 163;
userData = {
KernOnSpecialSpacing = {
L = symbols;
R = symbols;
};
};
}
{
glyphname = currency;
layers = (
{
layerId = m01;
shapes = (
{
closed = 1;
nodes = (
(1428,1464,l),
(1098,1133,l),
(1048,1150,o),
(994,1158,o),
(936,1158,cs),
(878,1158,o),
(822,1148,o),
(768,1129,c),
(433,1464,l),
(224,1257,l),
(542,939,l),
(512,882,o),
(497,818,o),
(497,749,cs),
(497,680,o),
(508,619,o),
(530,567,c),
(224,261,l),
(431,57,l),
(736,362,l),
(789,340,o),
(849,329,o),
(918,329,cs),
(987,329,o),
(1052,342,o),
(1115,369,c),
(1430,57,l),
(1636,261,l),
(1327,569,l),
(1352,622,o),
(1364,682,o),
(1364,751,cs),
(1364,819,o),
(1350,883,o),
(1321,943,c),
(1636,1257,l)
);
},
{
closed = 1;
nodes = (
(722,854,o),
(817,940,o),
(933,940,cs),
(990,940,o),
(1038,921,o),
(1078,884,cs),
(1119,845,o),
(1139,799,o),
(1139,745,cs),
(1139,690,o),
(1118,644,o),
(1076,606,cs),
(1034,568,o),
(983,549,o),
(923,549,cs),
(867,549,o),
(820,568,o),
(781,606,cs),
(742,644,o),
(722,690,o),
(722,745,cs)
);
}
);
width = 1874;
}
);
note = currency;
unicode = 164;
}
{
glyphname = yen;
kernRight = KO_yen;
layers = (
{
layerId = m01;
shapes = (
{
closed = 1;
nodes = (
(1513,1361,ls),
(1341,1361,o),
(1216,1327,o),
(1138,1260,cs),
(1062,1194,o),
(1024,1086,o),
(1024,937,cs),
(1024,829,l),
(850,829,l),
(850,937,ls),
(850,1086,o),
(812,1194,o),
(736,1260,cs),
(658,1327,o),
(533,1361,o),
(361,1361,cs),
(180,1361,l),
(180,1281,ls),
(180,1042,o),
(291,892,o),
(512,829,c),
(144,829,l),
(144,683,l),
(1723,683,l),
(1723,829,l),
(1366,829,l),
(1605,894,o),
(1724,1045,o),
(1724,1281,cs),
(1724,1361,l)
);
},
{
closed = 1;
nodes = (
(657,366,l),
(657,0,l),
(1217,0,l),
(1217,366,l),
(1725,366,l),
(1725,510,l),
(145,510,l),
(145,366,l)
);
}
);
width = 1874;
}
);
note = yen;
unicode = 165;
userData = {
KernOnSpecialSpacing = {
L = symbols;
R = symbols;
};
};
}
{
glyphname = brokenbar;
layers = (
{
layerId = m01;
shapes = (
{
closed = 1;
nodes = (
(318,1022,l),
(318,1700,l),
(90,1700,l),
(90,1022,l)
);
},
{
closed = 1;
nodes = (
(318,-170,l),
(318,508,l),
(90,508,l),
(90,-170,l)
);
}
);
userData = {
assembly = "PUSHW[ ]	/* 4 values pushed */
1 8 0 4
CALL[ ]	/* CallFunction */
PUSHW[ ]	/* 1 value pushed */
0
SRP0[ ]	/* SetRefPoint0 */
PUSHW[ ]	/* 1 value pushed */
4
MDRP[10000]	/* MoveDirectRelPt */
PUSHW[ ]	/* 1 value pushed */
1
SRP0[ ]	/* SetRefPoint0 */
PUSHW[ ]	/* 1 value pushed */
5
MDRP[10000]	/* MoveDirectRelPt */
SVTCA[0]	/* SetFreedomAndProjectionVectorToAxis */
PUSHW[ ]	/* 4 values pushed */
1 4 2 4
CALL[ ]	/* CallFunction */
IUP[0]	/* InterpolateUntPts */
IUP[1]	/* InterpolateUntPts */";
};
width = 408;
}
);
note = brokenbar;
unicode = 166;
}
{
glyphname = section;
kernLeft = KO_section;
layers = (
{
layerId = m01;
shapes = (
{
closed = 1;
nodes = (
(1575,1700,l),
(958,1700,l),
(1575,1015,l)
);
},
{
closed = 1;
nodes = (
(1171,-339,l),
(1296,-339,o),
(1395,-311,o),
(1466,-254,cs),
(1539,-195,o),
(1575,-113,o),
(1575,-7,c),
(1276,344,l),
(1260,344,l),
(1309,350,o),
(1353,361,o),
(1392,378,cs),
(1514,431,o),
(1575,529,o),
(1575,672,c),
(699,1700,l),
(574,1700,o),
(477,1671,o),
(406,1614,cs),
(335,1555,o),
(299,1473,o),
(299,1366,c),
(595,1017,l),
(611,1017,l),
(512,1005,o),
(435,970,o),
(382,913,cs),
(327,854,o),
(299,776,o),
(299,680,c),
(305,680,l)
);
},
{
closed = 1;
nodes = (
(896,-340,l),
(302,349,l),
(302,-340,l)
);
}
);
width = 1707;
}
);
note = section;
unicode = 167;
userData = {
KernOnSpecialSpacing = {
R = symbols;
};
};
}
{
glyphname = dieresis;
layers = (
{
layerId = m01;
shapes = (
{
closed = 1;
nodes = (
(1091,1687,o),
(1068,1695,o),
(1040,1700,cs),
(1011,1704,o),
(967,1706,o),
(906,1706,cs),
(784,1706,o),
(708,1671,o),
(708,1537,cs),
(708,1403,o),
(772,1360,o),
(979,1360,cs),
(1038,1360,o),
(1083,1372,o),
(1114,1395,cs),
(1149,1421,o),
(1166,1468,o),
(1166,1537,cs),
(1166,1604,o),
(1147,1650,o),
(1110,1674,cs)
);
},
{
closed = 1;
nodes = (
(473,1685,o),
(450,1693,o),
(422,1698,cs),
(393,1702,o),
(349,1704,o),
(288,1704,cs),
(166,1704,o),
(90,1669,o),
(90,1535,cs),
(90,1401,o),
(154,1358,o),
(361,1358,cs),
(420,1358,o),
(465,1370,o),
(496,1393,cs),
(531,1419,o),
(548,1466,o),
(548,1535,cs),
(548,1602,o),
(529,1648,o),
(492,1672,cs)
);
}
);
width = 1256;
}
);
metricLeft = "=hyphen";
metricRight = "=hyphen";
note = dieresis;
unicode = 168;
}
{
glyphname = copyright;
kernLeft = KO_registered;
kernRight = KO_copyright;
layers = (
{
layerId = m01;
shapes = (
{
closed = 1;
nodes = (
(160,145,o),
(249,7,o),
(378,-100,cs),
(570,-259,o),
(814,-339,o),
(1111,-339,cs),
(1306,-339,o),
(1480,-303,o),
(1635,-232,cs),
(1794,-159,o),
(1918,-54,o),
(2006,82,cs),
(2101,227,o),
(2148,398,o),
(2148,595,cs),
(2148,696,o),
(2136,790,o),
(2111,876,cs),
(2062,1044,o),
(1973,1182,o),
(1844,1290,cs),
(1655,1449,o),
(1410,1528,o),
(1111,1528,cs),
(919,1528,o),
(745,1493,o),
(588,1422,cs),
(355,1315,o),
(185,1131,o),
(111,876,cs),
(86,790,o),
(74,696,o),
(74,595,cs),
(74,493,o),
(86,399,o),
(111,314,cs)
);
},
{
closed = 1;
nodes = (
(280,848,o),
(359,1046,o),
(518,1189,cs),
(668,1325,o),
(866,1393,o),
(1111,1393,cs),
(1357,1393,o),
(1555,1325,o),
(1706,1189,cs),
(1865,1045,o),
(1944,847,o),
(1944,595,cs),
(1944,343,o),
(1865,145,o),
(1706,0,cs),
(1555,-137,o),
(1357,-206,o),
(1111,-206,cs),
(866,-206,o),
(668,-137,o),
(518,0,cs),
(359,144,o),
(280,342,o),
(280,595,cs)
);
},
{
closed = 1;
nodes = (
(1160,770,o),
(1195,687,o),
(1265,638,cs),
(1334,589,o),
(1449,565,o),
(1608,565,cs),
(1674,565,l),
(1674,1020,l),
(1160,1020,l),
(1160,885,ls)
);
},
{
closed = 1;
nodes = (
(489,478,o),
(529,373,o),
(609,292,cs),
(696,204,o),
(815,160,o),
(966,160,cs),
(1032,160,l),
(1032,1020,l),
(966,1020,ls),
(813,1020,o),
(694,981,o),
(609,902,cs),
(529,827,o),
(489,725,o),
(489,606,cs)
);
},
{
closed = 1;
nodes = (
(1303,160,ls),
(1396,160,o),
(1475,181,o),
(1540,222,cs),
(1599,261,o),
(1628,303,o),
(1628,349,cs),
(1628,372,l),
(1160,372,l),
(1160,160,l)
);
}
);
width = 2222;
}
);
note = copyright;
unicode = 169;
userData = {
KernOnSpecialSpacing = {
R = symbols;
};
};
}
{
glyphname = ordfeminine;
kernLeft = KO_ordmasculine;
layers = (
{
layerId = m01;
shapes = (
{
closed = 1;
nodes = (
(1104,1009,o),
(1145,923,o),
(1228,852,cs),
(1320,773,o),
(1444,734,o),
(1600,734,cs),
(1699,736,l),
(1699,1487,l),
(1104,1487,l),
(1104,1111,ls)
);
},
{
closed = 1;
nodes = (
(936,1487,l),
(839,1487,ls),
(679,1487,o),
(555,1451,o),
(466,1378,cs),
(382,1310,o),
(340,1221,o),
(340,1111,cs),
(340,1009,o),
(381,923,o),
(464,852,cs),
(555,773,o),
(678,734,o),
(834,734,cs),
(936,736,l)
);
}
);
width = 2040;
}
);
note = ordfeminine;
unicode = 170;
userData = {
KernOnSpecialSpacing = {
L = superiors;
R = superiors;
};
};
}
{
glyphname = guillemetleft;
kernLeft = KO_guillemotleft;
kernRight = KO_guillemotleft;
layers = (
{
layerId = m01;
shapes = (
{
closed = 1;
nodes = (
(1939,-108,l),
(1939,138,l),
(1462,510,l),
(1939,878,l),
(1939,1128,l),
(1165,510,l)
);
},
{
closed = 1;
nodes = (
(1032,-108,l),
(1032,138,l),
(555,510,l),
(1032,878,l),
(1032,1128,l),
(258,510,l)
);
}
);
userData = {
assembly = "PUSHW[ ]	/* 4 values pushed */
1 7 11 4
CALL[ ]	/* CallFunction */
PUSHW[ ]	/* 1 value pushed */
1
SRP0[ ]	/* SetRefPoint0 */
PUSHW[ ]	/* 1 value pushed */
3
MDRP[10000]	/* MoveDirectRelPt */
PUSHW[ ]	/* 1 value pushed */
1
SRP0[ ]	/* SetRefPoint0 */
PUSHW[ ]	/* 1 value pushed */
13
MDRP[11100]	/* MoveDirectRelPt */
SVTCA[0]	/* SetFreedomAndProjectionVectorToAxis */
PUSHW[ ]	/* 3 values pushed */
0 4 3
CALL[ ]	/* CallFunction */
IUP[0]	/* InterpolateUntPts */
IUP[1]	/* InterpolateUntPts */";
};
width = 2224;
}
);
note = guillemotleft;
unicode = 171;
userData = {
KernOnSpecialSpacing = {
L = quotes;
R = quotes;
};
};
}
{
glyphname = logicalnot;
kernLeft = KO_logicalnot;
kernRight = KO_logicalnot;
layers = (
{
layerId = m01;
shapes = (
{
closed = 1;
nodes = (
(1266,655,l),
(1265,138,l),
(1438,138,l),
(1438,825,l),
(268,827,l),
(268,655,l)
);
}
);
userData = {
assembly = "PUSHW[ ]	/* 4 values pushed */
2 8 3 4
CALL[ ]	/* CallFunction */
PUSHW[ ]	/* 1 value pushed */
2
SRP0[ ]	/* SetRefPoint0 */
PUSHW[ ]	/* 1 value pushed */
7
MDRP[11100]	/* MoveDirectRelPt */
SVTCA[0]	/* SetFreedomAndProjectionVectorToAxis */
PUSHW[ ]	/* 4 values pushed */
1 2 4 4
CALL[ ]	/* CallFunction */
IUP[0]	/* InterpolateUntPts */
IUP[1]	/* InterpolateUntPts */";
};
width = 1707;
}
);
note = logicalnot;
unicode = 172;
}
{
glyphname = registered;
kernLeft = KO_registered;
kernRight = KO_copyright;
layers = (
{
layerId = m01;
shapes = (
{
closed = 1;
nodes = (
(160,145,o),
(249,7,o),
(378,-100,cs),
(570,-259,o),
(814,-339,o),
(1111,-339,cs),
(1306,-339,o),
(1480,-303,o),
(1635,-232,cs),
(1794,-159,o),
(1918,-54,o),
(2006,82,cs),
(2101,227,o),
(2148,398,o),
(2148,595,cs),
(2148,696,o),
(2136,790,o),
(2111,876,cs),
(2062,1044,o),
(1973,1182,o),
(1844,1290,cs),
(1655,1449,o),
(1410,1528,o),
(1111,1528,cs),
(919,1528,o),
(745,1493,o),
(588,1422,cs),
(355,1315,o),
(185,1131,o),
(111,876,cs),
(86,790,o),
(74,696,o),
(74,595,cs),
(74,493,o),
(86,399,o),
(111,314,cs)
);
},
{
closed = 1;
nodes = (
(280,848,o),
(359,1046,o),
(518,1189,cs),
(668,1325,o),
(866,1393,o),
(1111,1393,cs),
(1357,1393,o),
(1555,1325,o),
(1706,1189,cs),
(1865,1045,o),
(1944,847,o),
(1944,595,cs),
(1944,343,o),
(1865,145,o),
(1706,0,cs),
(1555,-137,o),
(1357,-206,o),
(1111,-206,cs),
(866,-206,o),
(668,-137,o),
(518,0,cs),
(359,144,o),
(280,342,o),
(280,595,cs)
);
},
{
closed = 1;
nodes = (
(1695,816,o),
(1687,846,o),
(1672,874,cs),
(1619,971,o),
(1478,1020,o),
(1247,1020,cs),
(1133,1020,l),
(1133,159,l),
(1674,159,l),
(1674,287,ls),
(1674,341,o),
(1667,382,o),
(1654,410,cs),
(1638,445,o),
(1614,473,o),
(1530,507,cs),
(1487,524,o),
(1412,533,o),
(1305,536,c),
(1565,559,o),
(1695,642,o),
(1695,785,cs)
);
},
{
closed = 1;
nodes = (
(991,160,l),
(991,1020,l),
(522,1020,l),
(522,160,l)
);
}
);
width = 2222;
}
);
note = registered;
unicode = 174;
userData = {
KernOnSpecialSpacing = {
L = superiors;
};
};
}
{
glyphname = macron;
layers = (
{
layerId = m01;
shapes = (
{
closed = 1;
nodes = (
(932,1200,l),
(932,1417,l),
(90,1417,l),
(90,1200,l)
);
}
);
userData = {
assembly = "SVTCA[0]	/* SetFreedomAndProjectionVectorToAxis */
PUSHW[ ]	/* 4 values pushed */
1 1 2 4
CALL[ ]	/* CallFunction */
IUP[0]	/* InterpolateUntPts */
IUP[1]	/* InterpolateUntPts */";
};
width = 1022;
}
);
metricLeft = "=hyphen";
metricRight = "=hyphen";
note = macron;
unicode = 175;
}
{
glyphname = degree;
kernLeft = KO_degree;
kernRight = KO_degree;
layers = (
{
layerId = m01;
shapes = (
{
closed = 1;
nodes = (
(705,1171,o),
(810,1208,o),
(896,1282,cs),
(986,1360,o),
(1031,1462,o),
(1031,1587,cs),
(1031,1714,o),
(991,1816,o),
(910,1891,cs),
(832,1964,o),
(731,2000,o),
(607,2000,cs),
(483,2000,o),
(379,1964,o),
(296,1891,cs),
(208,1814,o),
(164,1713,o),
(164,1587,cs),
(164,1460,o),
(203,1359,o),
(282,1282,cs),
(357,1210,o),
(461,1171,o),
(580,1171,cs)
);
},
{
closed = 1;
nodes = (
(534,1391,o),
(487,1410,o),
(448,1448,cs),
(409,1486,o),
(389,1532,o),
(389,1587,cs),
(389,1696,o),
(484,1782,o),
(600,1782,cs),
(657,1782,o),
(705,1763,o),
(745,1726,cs),
(786,1687,o),
(806,1641,o),
(806,1587,cs),
(806,1532,o),
(785,1486,o),
(742,1448,cs),
(703,1412,o),
(648,1391,o),
(591,1391,cs)
);
}
);
width = 1195;
}
);
note = degree;
unicode = 176;
userData = {
KernOnSpecialSpacing = {
L = superiors;
R = superiors;
};
};
}
{
glyphname = plusminus;
kernLeft = KO_plusminus;
kernRight = KO_plusminus;
layers = (
{
layerId = m01;
shapes = (
{
closed = 1;
nodes = (
(684,669,l),
(684,358,l),
(854,358,l),
(854,669,l),
(1279,669,l),
(1279,840,l),
(854,840,l),
(854,1298,l),
(684,1298,l),
(684,840,l),
(259,840,l),
(259,669,l)
);
},
{
closed = 1;
nodes = (
(1279,-1,l),
(1279,171,l),
(258,171,l),
(258,-1,l)
);
}
);
userData = {
assembly = "PUSHW[ ]	/* 4 values pushed */
4 8 1 4
CALL[ ]	/* CallFunction */
PUSHW[ ]	/* 1 value pushed */
4
SRP0[ ]	/* SetRefPoint0 */
PUSHW[ ]	/* 1 value pushed */
7
MDRP[10000]	/* MoveDirectRelPt */
PUSHW[ ]	/* 1 value pushed */
1
SRP0[ ]	/* SetRefPoint0 */
PUSHW[ ]	/* 1 value pushed */
9
MDRP[10000]	/* MoveDirectRelPt */
SVTCA[0]	/* SetFreedomAndProjectionVectorToAxis */
PUSHW[ ]	/* 1 value pushed */
0
RCVT[ ]	/* ReadCVT */
IF[ ]	/* If */
PUSHW[ ]	/* 1 value pushed */
14
MDAP[1]	/* MoveDirectAbsPt */
ELSE[ ]	/* Else */
PUSHW[ ]	/* 2 values pushed */
14 14
MIAP[0]	/* MoveIndirectAbsPt */
EIF[ ]	/* EndIf */
PUSHW[ ]	/* 4 values pushed */
5 2 6 4
CALL[ ]	/* CallFunction */
PUSHW[ ]	/* 1 value pushed */
5
SRP0[ ]	/* SetRefPoint0 */
PUSHW[ ]	/* 1 value pushed */
0
MDRP[10000]	/* MoveDirectRelPt */
PUSHW[ ]	/* 1 value pushed */
6
SRP0[ ]	/* SetRefPoint0 */
PUSHW[ ]	/* 1 value pushed */
10
MDRP[10000]	/* MoveDirectRelPt */
PUSHW[ ]	/* 1 value pushed */
14
SRP0[ ]	/* SetRefPoint0 */
PUSHW[ ]	/* 2 values pushed */
12 2
MIRP[10100]	/* MoveIndirectRelPt */
IUP[0]	/* InterpolateUntPts */
IUP[1]	/* InterpolateUntPts */";
};
width = 1538;
}
);
note = plusminus;
unicode = 177;
userData = {
KernOnSpecialSpacing = {
L = math;
R = math;
};
};
}
{
glyphname = twosuperior;
kernLeft = KO_twosuperior;
kernRight = KO_numbersign;
layers = (
{
layerId = m01;
shapes = (
{
closed = 1;
nodes = (
(1111,1259,ls),
(1312,1259,o),
(1415,1362,o),
(1415,1553,cs),
(1415,1606,o),
(1409,1652,o),
(1397,1692,cs),
(1361,1811,o),
(1261,1870,o),
(1096,1870,cs),
(934,1870,l),
(934,1259,l)
);
},
{
closed = 1;
nodes = (
(783,1450,l),
(783,1870,l),
(576,1870,ls),
(503,1870,o),
(441,1846,o),
(390,1798,cs),
(336,1748,o),
(309,1682,o),
(309,1600,cs),
(309,1450,l)
);
},
{
closed = 1;
nodes = (
(783,850,l),
(783,1320,l),
(618,1320,ls),
(568,1320,o),
(524,1313,o),
(486,1300,cs),
(369,1258,o),
(312,1164,o),
(314,1019,cs),
(315,850,l)
);
},
{
closed = 1;
nodes = (
(1382,850,l),
(1382,1106,l),
(934,1106,l),
(934,850,l)
);
}
);
width = 1700;
}
);
note = twosuperior;
unicode = 178;
userData = {
KernOnSpecialSpacing = {
L = superiors;
R = superiors;
};
};
}
{
glyphname = threesuperior;
kernLeft = KO_threesuperior;
kernRight = KO_threesuperior;
layers = (
{
layerId = m01;
shapes = (
{
closed = 1;
nodes = (
(1444,1770,o),
(1309,1866,o),
(1039,1866,cs),
(920,1866,l),
(920,1431,l),
(760,1431,l),
(760,1306,l),
(920,1306,l),
(920,850,l),
(1053,850,ls),
(1346,850,o),
(1478,955,o),
(1478,1138,cs),
(1478,1163,o),
(1471,1187,o),
(1458,1210,cs),
(1415,1287,o),
(1320,1338,o),
(1173,1364,c),
(1354,1397,o),
(1444,1468,o),
(1444,1577,cs)
);
},
{
closed = 1;
nodes = (
(766,1522,l),
(766,1866,l),
(601,1866,ls),
(360,1866,o),
(239,1768,o),
(239,1571,cs),
(239,1522,l)
);
},
{
closed = 1;
nodes = (
(766,1194,l),
(239,1194,l),
(239,1144,ls),
(239,948,o),
(360,850,o),
(601,850,cs),
(766,850,l)
);
}
);
width = 1698;
}
);
note = threesuperior;
unicode = 179;
userData = {
KernOnSpecialSpacing = {
L = superiors;
R = superiors;
};
};
}
{
glyphname = acute;
layers = (
{
layerId = m01;
shapes = (
{
closed = 1;
nodes = (
(868,1699,l),
(682,1886,l),
(153,1429,l),
(198,1384,ls),
(234,1349,o),
(288,1332,o),
(360,1332,cs),
(439,1332,o),
(552,1383,o),
(648,1479,cs)
);
}
);
width = 1018;
}
);
note = acute;
unicode = 180;
}
{
glyphname = micro;
kernLeft = KO_micro;
kernRight = KO_micro;
layers = (
{
layerId = m01;
shapes = (
{
closed = 1;
nodes = (
(1569,0,l),
(1569,1020,l),
(1013,1020,l),
(1013,0,l)
);
},
{
closed = 1;
nodes = (
(848,-510,l),
(848,1020,l),
(295,1020,l),
(295,-510,l)
);
}
);
userData = {
assembly = "PUSHW[ ]	/* 1 value pushed */
8
MDAP[1]	/* MoveDirectAbsPt */
PUSHW[ ]	/* 1 value pushed */
0
MDAP[1]	/* MoveDirectAbsPt */
PUSHW[ ]	/* 2 values pushed */
1 11
MIRP[10100]	/* MoveIndirectRelPt */
PUSHW[ ]	/* 1 value pushed */
8
SRP0[ ]	/* SetRefPoint0 */
PUSHW[ ]	/* 1 value pushed */
4
MDRP[10000]	/* MoveDirectRelPt */
PUSHW[ ]	/* 1 value pushed */
4
MDAP[1]	/* MoveDirectAbsPt */
PUSHW[ ]	/* 2 values pushed */
5 11
MIRP[10100]	/* MoveIndirectRelPt */
PUSHW[ ]	/* 1 value pushed */
1
SRP0[ ]	/* SetRefPoint0 */
PUSHW[ ]	/* 1 value pushed */
9
MDRP[11100]	/* MoveDirectRelPt */
SVTCA[0]	/* SetFreedomAndProjectionVectorToAxis */
PUSHW[ ]	/* 1 value pushed */
0
RCVT[ ]	/* ReadCVT */
IF[ ]	/* If */
PUSHW[ ]	/* 1 value pushed */
0
MDAP[1]	/* MoveDirectAbsPt */
ELSE[ ]	/* Else */
PUSHW[ ]	/* 2 values pushed */
0 18
MIAP[0]	/* MoveIndirectAbsPt */
EIF[ ]	/* EndIf */
PUSHW[ ]	/* 1 value pushed */
0
RCVT[ ]	/* ReadCVT */
IF[ ]	/* If */
PUSHW[ ]	/* 1 value pushed */
4
MDAP[1]	/* MoveDirectAbsPt */
ELSE[ ]	/* Else */
PUSHW[ ]	/* 2 values pushed */
4 18
MIAP[0]	/* MoveIndirectAbsPt */
EIF[ ]	/* EndIf */
IUP[0]	/* InterpolateUntPts */
IUP[1]	/* InterpolateUntPts */";
};
width = 1874;
}
);
note = mu;
unicode = 181;
}
{
glyphname = paragraph;
layers = (
{
layerId = m01;
shapes = (
{
closed = 1;
nodes = (
(1709,-171,l),
(1709,1530,l),
(1171,1530,l),
(1171,-171,l)
);
},
{
closed = 1;
nodes = (
(991,1530,l),
(917,1530,ls),
(722,1530,o),
(574,1468,o),
(473,1343,cs),
(383,1232,o),
(338,1094,o),
(338,929,cs),
(338,780,o),
(385,647,o),
(478,532,cs),
(581,404,o),
(718,340,o),
(889,340,cs),
(991,340,l)
);
}
);
width = 2047;
}
);
note = paragraph;
unicode = 182;
userData = {
KernOnSpecialSpacing = {
L = NoKerning;
R = NoKerning;
};
};
}
{
glyphname = periodcentered;
layers = (
{
layerId = m01;
shapes = (
{
closed = 1;
nodes = (
(656,444,o),
(745,509,o),
(745,651,cs),
(745,793,o),
(645,850,o),
(429,850,cs),
(213,850,o),
(109,792,o),
(109,651,cs),
(109,513,o),
(219,444,o),
(440,444,cs)
);
}
);
width = 854;
}
);
note = periodcentered;
unicode = 183;
userData = {
KernOnSpecialSpacing = {
L = NoKerning;
R = NoKerning;
};
};
}
{
glyphname = cedilla;
layers = (
{
layerId = m01;
shapes = (
{
closed = 1;
nodes = (
(620,-259,l),
(426,-9,l),
(222,-158,ls),
(142,-216,o),
(98,-275,o),
(90,-334,cs),
(87,-362,o),
(99,-393,o),
(126,-428,cs),
(224,-556,l)
);
}
);
width = 710;
}
);
metricLeft = "=hyphen";
metricRight = "=hyphen";
note = cedilla;
unicode = 184;
}
{
glyphname = onesuperior;
kernLeft = KO_onesuperior;
kernRight = KO_onesuperior;
layers = (
{
layerId = m01;
shapes = (
{
closed = 1;
nodes = (
(877,850,l),
(877,1962,l),
(318,1819,l),
(318,850,l)
);
}
);
userData = {
assembly = "PUSHW[ ]	/* 4 values pushed */
1 12 0 4
CALL[ ]	/* CallFunction */
SVTCA[0]	/* SetFreedomAndProjectionVectorToAxis */
PUSHW[ ]	/* 3 values pushed */
1 2 3
CALL[ ]	/* CallFunction */
IUP[0]	/* InterpolateUntPts */
IUP[1]	/* InterpolateUntPts */";
};
width = 1195;
}
);
note = onesuperior;
unicode = 185;
userData = {
KernOnSpecialSpacing = {
L = superiors;
R = superiors;
};
};
}
{
glyphname = ordmasculine;
kernLeft = KO_ordmasculine;
layers = (
{
layerId = m01;
shapes = (
{
closed = 1;
nodes = (
(1207,734,ls),
(1362,734,o),
(1485,773,o),
(1576,852,cs),
(1659,923,o),
(1700,1009,o),
(1700,1111,cs),
(1700,1220,o),
(1658,1309,o),
(1575,1378,cs),
(1486,1451,o),
(1362,1487,o),
(1202,1487,cs),
(1105,1487,l),
(1105,736,l)
);
},
{
closed = 1;
nodes = (
(937,1487,l),
(840,1487,ls),
(680,1487,o),
(555,1451,o),
(466,1378,cs),
(383,1310,o),
(341,1221,o),
(341,1111,cs),
(341,1009,o),
(382,923,o),
(464,852,cs),
(555,773,o),
(679,734,o),
(835,734,cs),
(937,736,l)
);
}
);
width = 2040;
}
);
note = ordmasculine;
unicode = 186;
userData = {
KernOnSpecialSpacing = {
L = superiors;
R = superiors;
};
};
}
{
glyphname = guillemetright;
kernLeft = KO_guillemetright;
kernRight = KO_guillemetright;
layers = (
{
layerId = m01;
shapes = (
{
closed = 1;
nodes = (
(1900,510,l),
(1126,1128,l),
(1126,878,l),
(1603,510,l),
(1126,138,l),
(1126,-108,l)
);
},
{
closed = 1;
nodes = (
(1059,510,l),
(285,1128,l),
(285,878,l),
(762,510,l),
(285,138,l),
(285,-108,l)
);
}
);
userData = {
assembly = "PUSHW[ ]	/* 4 values pushed */
4 7 8 4
CALL[ ]	/* CallFunction */
PUSHW[ ]	/* 1 value pushed */
8
SRP0[ ]	/* SetRefPoint0 */
PUSHW[ ]	/* 1 value pushed */
6
MDRP[10000]	/* MoveDirectRelPt */
PUSHW[ ]	/* 1 value pushed */
4
SRP0[ ]	/* SetRefPoint0 */
PUSHW[ ]	/* 1 value pushed */
13
MDRP[11100]	/* MoveDirectRelPt */
SVTCA[0]	/* SetFreedomAndProjectionVectorToAxis */
PUSHW[ ]	/* 3 values pushed */
3 5 3
CALL[ ]	/* CallFunction */
IUP[0]	/* InterpolateUntPts */
IUP[1]	/* InterpolateUntPts */";
};
width = 2224;
}
);
note = guillemotright;
unicode = 187;
userData = {
KernOnSpecialSpacing = {
L = quotes;
R = quotes;
};
};
}
{
glyphname = onequarter;
layers = (
{
layerId = m01;
shapes = (
{
closed = 1;
nodes = (
(1290,850,l),
(1290,1962,l),
(731,1819,l),
(731,850,l)
);
},
{
closed = 1;
nodes = (
(943,-255,l),
(943,510,l),
(829,510,ls),
(718,510,o),
(630,493,o),
(566,460,cs),
(506,429,o),
(472,388,o),
(443,310,cs),
(428,271,o),
(421,210,o),
(421,127,cs),
(421,-255,l)
);
},
{
closed = 1;
nodes = (
(1098,-510,l),
(1617,-510,l),
(1617,252,l),
(1098,252,l)
);
}
);
width = 2038;
}
);
note = onequarter;
unicode = 188;
userData = {
KernOnSpecialSpacing = {
L = NoKerning;
R = NoKerning;
};
};
}
{
glyphname = onehalf;
layers = (
{
layerId = m01;
shapes = (
{
closed = 1;
nodes = (
(1296,850,l),
(1296,1962,l),
(737,1819,l),
(737,850,l)
);
},
{
closed = 1;
nodes = (
(1268,-101,ls),
(1469,-101,o),
(1572,2,o),
(1572,193,cs),
(1572,246,o),
(1566,292,o),
(1554,332,cs),
(1518,451,o),
(1418,510,o),
(1253,510,cs),
(1091,510,l),
(1091,-101,l)
);
},
{
closed = 1;
nodes = (
(940,90,l),
(940,510,l),
(733,510,ls),
(660,510,o),
(598,486,o),
(547,438,cs),
(493,388,o),
(466,322,o),
(466,240,cs),
(466,90,l)
);
},
{
closed = 1;
nodes = (
(940,-510,l),
(940,-40,l),
(775,-40,ls),
(725,-40,o),
(681,-47,o),
(643,-60,cs),
(526,-102,o),
(469,-196,o),
(471,-341,cs),
(472,-510,l)
);
},
{
closed = 1;
nodes = (
(1091,-510,l),
(1539,-510,l),
(1539,-254,l),
(1091,-254,l)
);
}
);
width = 2038;
}
);
note = onehalf;
unicode = 189;
userData = {
KernOnSpecialSpacing = {
L = NoKerning;
R = NoKerning;
};
};
}
{
glyphname = threequarters;
layers = (
{
layerId = m01;
shapes = (
{
closed = 1;
nodes = (
(1621,1770,o),
(1486,1866,o),
(1216,1866,cs),
(1097,1866,l),
(1097,1431,l),
(937,1431,l),
(937,1306,l),
(1097,1306,l),
(1097,850,l),
(1230,850,ls),
(1523,850,o),
(1655,955,o),
(1655,1138,cs),
(1655,1163,o),
(1649,1187,o),
(1636,1210,cs),
(1593,1287,o),
(1497,1338,o),
(1350,1364,c),
(1531,1397,o),
(1621,1468,o),
(1621,1577,cs)
);
},
{
closed = 1;
nodes = (
(943,1522,l),
(943,1866,l),
(778,1866,ls),
(537,1866,o),
(416,1768,o),
(416,1571,cs),
(416,1522,l)
);
},
{
closed = 1;
nodes = (
(943,1194,l),
(416,1194,l),
(416,1144,ls),
(416,948,o),
(537,850,o),
(778,850,cs),
(943,850,l)
);
},
{
closed = 1;
nodes = (
(937,-255,l),
(937,510,l),
(823,510,ls),
(712,510,o),
(624,493,o),
(560,460,cs),
(500,429,o),
(466,388,o),
(437,310,cs),
(422,271,o),
(415,210,o),
(415,127,cs),
(415,-255,l)
);
},
{
closed = 1;
nodes = (
(1092,-510,l),
(1611,-510,l),
(1611,252,l),
(1092,252,l)
);
}
);
width = 2038;
}
);
note = threequarters;
unicode = 190;
userData = {
KernOnSpecialSpacing = {
L = NoKerning;
R = NoKerning;
};
};
}
{
glyphname = questiondown;
kernLeft = KO_questiondown;
kernRight = KO_questiondown;
layers = (
{
layerId = m01;
shapes = (
{
closed = 1;
nodes = (
(1027,1500,o),
(1099,1516,o),
(1156,1548,cs),
(1214,1581,o),
(1243,1627,o),
(1243,1684,cs),
(1243,1740,o),
(1210,1785,o),
(1145,1820,cs),
(1084,1853,o),
(1008,1869,o),
(919,1869,cs),
(830,1869,o),
(759,1853,o),
(704,1820,cs),
(646,1786,o),
(617,1741,o),
(617,1684,cs),
(617,1627,o),
(649,1582,o),
(712,1548,cs),
(773,1516,o),
(848,1500,o),
(938,1500,cs)
);
},
{
closed = 1;
nodes = (
(299,329,o),
(339,206,o),
(418,114,cs),
(506,13,o),
(632,-38,o),
(796,-38,cs),
(873,-38,l),
(873,982,l),
(821,982,ls),
(654,982,o),
(524,936,o),
(431,843,cs),
(343,755,o),
(299,628,o),
(299,483,cs)
);
},
{
closed = 1;
nodes = (
(1087,-38,ls),
(1174,-38,o),
(1248,-29,o),
(1310,-10,cs),
(1487,45,o),
(1575,186,o),
(1575,415,cs),
(1575,525,l),
(1021,525,l),
(1021,-38,l)
);
}
);
width = 1874;
}
);
note = questiondown;
unicode = 191;
userData = {
KernOnSpecialSpacing = {
R = "spaced-off";
};
};
}
{
color = 4;
glyphname = AE;
kernRight = KO_AE;
layers = (
{
anchors = (
{
name = bottom;
pos = (1101,0);
},
{
name = top;
pos = (1101,1361);
}
);
layerId = m01;
shapes = (
{
closed = 1;
nodes = (
(1562,1235,o),
(1572,1179,o),
(1593,1138,cs),
(1644,1035,o),
(1784,983,o),
(2013,983,cs),
(2117,983,l),
(2117,1361,l),
(1562,1361,l),
(1562,1304,ls)
);
},
{
closed = 1;
nodes = (
(1389,2,l),
(1389,552,l),
(1790,552,l),
(1790,813,l),
(1389,813,l),
(1389,1361,l),
(851,1361,l),
(851,2,l)
);
},
{
closed = 1;
nodes = (
(2117,0,l),
(2117,406,l),
(2038,406,ls),
(1941,406,o),
(1862,397,o),
(1800,378,cs),
(1641,329,o),
(1561,235,o),
(1561,97,cs),
(1561,0,l)
);
},
{
closed = 1;
nodes = (
(1200,462,l),
(1200,639,l),
(358,639,l),
(358,462,l)
);
},
{
closed = 1;
nodes = (
(613,1361,ls),
(446,1361,o),
(321,1303,o),
(239,1186,cs),
(163,1078,o),
(125,922,o),
(125,719,cs),
(125,0,l),
(186,0,ls),
(368,0,o),
(493,34,o),
(571,101,cs),
(647,167,o),
(685,275,o),
(685,424,cs),
(685,1361,l)
);
}
);
width = 2242;
}
);
metricLeft = A;
metricRight = E;
note = AE;
unicode = 198;
}
{
glyphname = Eth;
kernLeft = KO_Eth;
kernRight = KO_Dcroat;
layers = (
{
layerId = m01;
shapes = (
{
closed = 1;
nodes = (
(921,0,ls),
(1098,0,o),
(1232,67,o),
(1322,202,cs),
(1406,329,o),
(1450,517,o),
(1450,724,cs),
(1450,825,o),
(1442,913,o),
(1426,988,cs),
(1372,1237,o),
(1204,1361,o),
(921,1361,cs),
(837,1361,l),
(837,0,l)
);
},
{
closed = 1;
nodes = (
(671,2,l),
(671,1361,l),
(133,1361,l),
(133,811,l),
(-44,811,l),
(-44,644,l),
(133,644,l),
(133,2,l)
);
}
);
width = 1534;
}
);
note = Eth;
unicode = 208;
}
{
glyphname = multiply;
kernLeft = KO_multiply;
kernRight = KO_multiply;
layers = (
{
layerId = m01;
shapes = (
{
closed = 1;
nodes = (
(441,93,l),
(769,420,l),
(1097,93,l),
(1233,229,l),
(905,556,l),
(1233,884,l),
(1096,1020,l),
(768,692,l),
(441,1020,l),
(305,884,l),
(632,556,l),
(305,229,l)
);
}
);
userData = {
assembly = "PUSHW[ ]	/* 4 values pushed */
5 10 1 4
CALL[ ]	/* CallFunction */
PUSHW[ ]	/* 1 value pushed */
5
SRP0[ ]	/* SetRefPoint0 */
PUSHW[ ]	/* 1 value pushed */
13
MDRP[11100]	/* MoveDirectRelPt */
SVTCA[0]	/* SetFreedomAndProjectionVectorToAxis */
PUSHW[ ]	/* 1 value pushed */
0
RCVT[ ]	/* ReadCVT */
IF[ ]	/* If */
PUSHW[ ]	/* 1 value pushed */
2
MDAP[1]	/* MoveDirectAbsPt */
ELSE[ ]	/* Else */
PUSHW[ ]	/* 2 values pushed */
2 18
MIAP[0]	/* MoveIndirectAbsPt */
EIF[ ]	/* EndIf */
PUSHW[ ]	/* 1 value pushed */
0
RCVT[ ]	/* ReadCVT */
IF[ ]	/* If */
PUSHW[ ]	/* 1 value pushed */
4
MDAP[1]	/* MoveDirectAbsPt */
ELSE[ ]	/* Else */
PUSHW[ ]	/* 2 values pushed */
4 18
MIAP[0]	/* MoveIndirectAbsPt */
EIF[ ]	/* EndIf */
IUP[0]	/* InterpolateUntPts */
IUP[1]	/* InterpolateUntPts */";
};
width = 1538;
}
);
note = multiply;
unicode = 215;
userData = {
KernOnSpecialSpacing = {
L = math;
R = math;
};
};
}
{
glyphname = Oslash;
kernRight = KO_Oslash;
layers = (
{
layerId = m01;
shapes = (
{
closed = 1;
nodes = (
(1516,1393,l),
(1358,1550,l),
(1160,1318,l),
(1094,1347,o),
(1016,1361,o),
(926,1361,cs),
(848,1361,l),
(848,0,l),
(926,0,ls),
(1117,0,o),
(1258,75,o),
(1349,226,cs),
(1426,355,o),
(1464,518,o),
(1464,717,cs),
(1464,914,o),
(1420,1071,o),
(1331,1187,c),
(1330,1187,l)
);
},
{
closed = 1;
nodes = (
(685,1361,l),
(607,1361,ls),
(477,1361,o),
(370,1329,o),
(285,1266,cs),
(141,1159,o),
(69,976,o),
(69,717,cs),
(69,490,o),
(117,311,o),
(212,182,c),
(214,182,l),
(16,-34,l),
(172,-190,l),
(381,45,l),
(444,15,o),
(519,0,o),
(607,0,cs),
(685,0,l)
);
}
);
width = 1534;
}
);
note = Oslash;
unicode = 216;
}
{
color = 4;
glyphname = Thorn;
kernLeft = KO_H;
kernRight = KO_Thorn;
layers = (
{
layerId = m01;
shapes = (
{
closed = 1;
nodes = (
(663,2,l),
(663,1361,l),
(125,1361,l),
(125,2,l)
);
},
{
closed = 1;
nodes = (
(931,249,ls),
(1295,249,o),
(1482,394,o),
(1482,670,cs),
(1482,741,o),
(1471,803,o),
(1450,857,cs),
(1383,1022,o),
(1201,1104,o),
(903,1104,cs),
(829,1104,l),
(829,249,l)
);
}
);
width = 1552;
}
);
metricLeft = H;
metricRight = P;
note = Thorn;
unicode = 222;
}
{
color = 4;
glyphname = germandbls;
kernLeft = KO_germandbls;
kernRight = KO_germandbls;
layers = (
{
layerId = m01;
shapes = (
{
closed = 1;
nodes = (
(1048,0,ls),
(1219,0,o),
(1348,37,o),
(1437,112,cs),
(1522,183,o),
(1568,292,o),
(1568,415,cs),
(1568,476,o),
(1560,526,o),
(1543,566,cs),
(1495,677,o),
(1382,745,o),
(1203,771,c),
(1294,798,o),
(1362,844,o),
(1409,909,cs),
(1448,965,o),
(1468,1030,o),
(1468,1103,cs),
(1468,1137,o),
(1456,1172,o),
(1433,1207,cs),
(1364,1310,o),
(1230,1361,o),
(1033,1361,cs),
(956,1361,l),
(956,0,l)
);
},
{
closed = 1;
nodes = (
(808,0,l),
(808,1361,l),
(718,1361,ls),
(551,1361,o),
(430,1323,o),
(356,1248,cs),
(289,1179,o),
(255,1071,o),
(255,924,cs),
(255,847,l),
(90,847,l),
(90,680,l),
(255,680,l),
(255,0,l)
);
}
);
width = 1638;
}
);
metricRight = b;
note = germandbls;
unicode = 223;
}
{
color = 4;
glyphname = ae;
kernLeft = KO_a;
kernRight = KO_e;
layers = (
{
anchors = (
{
name = bottom;
pos = (1048,0);
},
{
name = top;
pos = (1048,1020);
}
);
layerId = m01;
shapes = (
{
closed = 1;
nodes = (
(2046,457,l),
(2046,567,ls),
(2046,642,o),
(2037,707,o),
(2019,764,cs),
(1964,935,o),
(1810,1020,o),
(1558,1020,cs),
(1492,1020,l),
(1492,457,l)
);
},
{
closed = 1;
nodes = (
(792,254,o),
(830,152,o),
(907,91,cs),
(983,30,o),
(1108,0,o),
(1281,0,cs),
(1344,0,l),
(1344,1020,l),
(792,1020,l),
(792,395,ls)
);
},
{
closed = 1;
nodes = (
(70,346,o),
(114,226,o),
(202,138,cs),
(294,46,o),
(424,0,o),
(592,0,cs),
(644,0,l),
(644,1020,l),
(567,1020,ls),
(403,1020,o),
(277,969,o),
(189,868,cs),
(109,775,o),
(70,647,o),
(70,498,cs)
);
},
{
closed = 1;
nodes = (
(1692,0,ls),
(1793,0,o),
(1870,25,o),
(1925,76,cs),
(1970,119,o),
(1992,171,o),
(1992,233,cs),
(1992,261,l),
(1492,261,l),
(1492,0,l)
);
}
);
width = 2116;
}
);
metricLeft = a;
metricRight = e;
note = ae;
unicode = 230;
}
{
glyphname = eth;
kernLeft = KO_ae;
layers = (
{
layerId = m01;
shapes = (
{
closed = 1;
nodes = (
(1642,1486,l),
(1591,1676,l),
(1276,1592,l),
(1189,1711,o),
(1073,1771,o),
(926,1771,cs),
(848,1771,l),
(848,1484,l),
(867,1484,l),
(527,1395,l),
(576,1206,l),
(848,1277,l),
(848,0,l),
(926,0,ls),
(995,0,o),
(1055,15,o),
(1108,44,cs),
(1211,100,o),
(1292,194,o),
(1349,326,cs),
(1426,502,o),
(1464,699,o),
(1464,917,cs),
(1464,1094,o),
(1434,1259,o),
(1375,1412,c),
(1358,1412,l)
);
},
{
closed = 1;
nodes = (
(135,346,o),
(179,226,o),
(267,138,cs),
(359,46,o),
(489,0,o),
(657,0,cs),
(709,0,l),
(709,1020,l),
(632,1020,ls),
(468,1020,o),
(342,969,o),
(254,868,cs),
(174,775,o),
(135,647,o),
(135,498,cs)
);
}
);
width = 1534;
}
);
note = eth;
unicode = 240;
}
{
glyphname = divide;
kernLeft = KO_divide;
kernRight = KO_divide;
layers = (
{
layerId = m01;
shapes = (
{
closed = 1;
nodes = (
(659,1156,o),
(604,1101,o),
(604,992,cs),
(604,882,o),
(659,827,o),
(769,827,cs),
(879,827,o),
(934,882,o),
(934,992,cs),
(934,1101,o),
(879,1156,o),
(769,1156,cs)
);
},
{
closed = 1;
nodes = (
(1245,469,l),
(1245,660,l),
(293,660,l),
(293,469,l)
);
},
{
closed = 1;
nodes = (
(879,-30,o),
(934,25,o),
(934,136,cs),
(934,246,o),
(879,301,o),
(769,301,cs),
(659,301,o),
(604,246,o),
(604,136,cs),
(604,25,o),
(659,-30,o),
(769,-30,cs)
);
}
);
width = 1538;
}
);
note = divide;
unicode = 247;
userData = {
KernOnSpecialSpacing = {
L = math;
R = math;
};
};
}
{
glyphname = oslash;
layers = (
{
anchors = (
{
name = top;
pos = (767,1020);
}
);
layerId = m01;
shapes = (
{
closed = 1;
nodes = (
(1548,1054,l),
(1393,1208,l),
(1164,972,l),
(1101,1004,o),
(1022,1020,o),
(925,1020,cs),
(848,1020,l),
(848,0,l),
(900,0,ls),
(1068,0,o),
(1198,46,o),
(1290,138,cs),
(1378,226,o),
(1422,347,o),
(1422,502,cs),
(1422,627,o),
(1392,736,o),
(1332,830,c),
(1329,830,l)
);
},
{
closed = 1;
nodes = (
(686,1020,l),
(609,1020,ls),
(445,1020,o),
(319,969,o),
(231,868,cs),
(152,776,o),
(112,654,o),
(112,502,cs),
(112,380,o),
(142,275,o),
(201,188,c),
(204,188,l),
(-18,-34,l),
(136,-188,l),
(374,50,l),
(449,17,o),
(536,0,o),
(634,0,cs),
(686,0,l)
);
}
);
width = 1534;
}
);
note = oslash;
unicode = 248;
}
{
color = 4;
glyphname = thorn;
kernRight = KO_thorn;
layers = (
{
layerId = m01;
shapes = (
{
closed = 1;
nodes = (
(663,-540,l),
(663,1530,l),
(125,1530,l),
(125,-540,l)
);
},
{
closed = 1;
nodes = (
(863,0,ls),
(1032,0,o),
(1161,46,o),
(1252,138,cs),
(1339,227,o),
(1383,348,o),
(1383,502,cs),
(1383,653,o),
(1343,775,o),
(1264,868,cs),
(1177,969,o),
(1052,1020,o),
(888,1020,cs),
(811,1020,l),
(811,0,l)
);
}
);
width = 1453;
}
);
metricLeft = h;
metricRight = p;
note = thorn;
unicode = 254;
}
{
color = 4;
glyphname = Aogonek;
kernLeft = KO_Aogonek;
kernRight = KO_M;
layers = (
{
layerId = m01;
shapes = (
{
closed = 1;
nodes = (
(819,-354,o),
(854,-427,o),
(925,-483,cs),
(990,-534,o),
(1069,-560,o),
(1163,-560,cs),
(1379,-560,l),
(1379,-230,l),
(1253,-230,ls),
(1202,-230,o),
(1174,-218,o),
(1146,-174,cs),
(1131,-151,o),
(1124,-103,o),
(1124,-28,cs),
(1124,0,l),
(1379,0,l),
(1379,924,ls),
(1379,995,o),
(1371,1057,o),
(1355,1112,cs),
(1308,1278,o),
(1161,1361,o),
(916,1361,cs),
(826,1361,l),
(826,0,l),
(934,0,l),
(857,-62,o),
(819,-150,o),
(819,-263,cs)
);
},
{
closed = 1;
nodes = (
(678,0,l),
(678,1361,l),
(588,1361,ls),
(421,1361,o),
(300,1323,o),
(226,1248,cs),
(159,1179,o),
(125,1071,o),
(125,924,cs),
(125,0,l)
);
},
{
closed = 1;
nodes = (
(1175,462,l),
(1175,639,l),
(370,639,l),
(370,462,l)
);
}
);
width = 1504;
}
);
metricLeft = A;
metricRight = A;
note = Aogonek;
unicode = 260;
}
{
glyphname = aogonek;
kernLeft = KO_aogonek;
kernRight = KO_aogonek;
layers = (
{
layerId = m01;
shapes = (
{
closed = 1;
nodes = (
(1404,1020,l),
(852,1020,l),
(852,395,ls),
(852,215,o),
(913,105,o),
(1052,44,c),
(1056,44,l),
(1024,36,o),
(995,23,o),
(969,5,cs),
(886,-53,o),
(844,-142,o),
(844,-263,cs),
(844,-354,o),
(879,-427,o),
(950,-483,cs),
(1015,-534,o),
(1094,-560,o),
(1188,-560,cs),
(1404,-560,l),
(1404,-230,l),
(1278,-230,ls),
(1227,-230,o),
(1199,-218,o),
(1171,-174,cs),
(1156,-151,o),
(1149,-103,o),
(1149,-28,cs),
(1149,15,l),
(1200,5,o),
(1264,0,o),
(1341,0,cs),
(1404,0,l)
);
},
{
closed = 1;
nodes = (
(130,346,o),
(174,226,o),
(262,138,cs),
(354,46,o),
(484,0,o),
(652,0,cs),
(704,0,l),
(704,1020,l),
(627,1020,ls),
(463,1020,o),
(337,969,o),
(249,868,cs),
(169,775,o),
(130,647,o),
(130,498,cs)
);
}
);
width = 1534;
}
);
note = aogonek;
unicode = 261;
}
{
glyphname = Dcroat;
kernLeft = KO_Dcroat;
kernRight = KO_Dcroat;
layers = (
{
layerId = m01;
shapes = (
{
closed = 1;
nodes = (
(1091,0,ls),
(1268,0,o),
(1402,67,o),
(1492,202,cs),
(1576,329,o),
(1620,517,o),
(1620,724,cs),
(1620,825,o),
(1612,913,o),
(1596,988,cs),
(1542,1237,o),
(1374,1361,o),
(1091,1361,cs),
(1007,1361,l),
(1007,0,l)
);
},
{
closed = 1;
nodes = (
(841,2,l),
(841,1361,l),
(303,1361,l),
(303,811,l),
(126,811,l),
(126,644,l),
(303,644,l),
(303,2,l)
);
}
);
width = 1704;
}
);
note = Dcroat;
unicode = 272;
}
{
glyphname = dcroat;
kernLeft = KO_ae;
layers = (
{
layerId = m01;
shapes = (
{
closed = 1;
nodes = (
(1404,0,l),
(1404,1191,l),
(1550,1191,l),
(1550,1361,l),
(1404,1361,l),
(1404,1531,l),
(871,1531,l),
(871,1361,l),
(570,1361,l),
(570,1191,l),
(871,1191,l),
(871,0,l)
);
},
{
closed = 1;
nodes = (
(130,346,o),
(174,226,o),
(262,138,cs),
(354,46,o),
(484,0,o),
(652,0,cs),
(704,0,l),
(704,1020,l),
(627,1020,ls),
(463,1020,o),
(337,969,o),
(249,868,cs),
(169,775,o),
(130,647,o),
(130,498,cs)
);
}
);
width = 1534;
}
);
note = dcroat;
unicode = 273;
}
{
color = 4;
glyphname = hbar;
layers = (
{
layerId = m01;
shapes = (
{
closed = 1;
nodes = (
(667,0,l),
(667,1191,l),
(955,1191,l),
(955,1361,l),
(667,1361,l),
(667,1531,l),
(129,1531,l),
(129,1361,l),
(-25,1361,l),
(-25,1191,l),
(129,1191,l),
(129,0,l)
);
},
{
closed = 1;
nodes = (
(1368,0,l),
(1368,583,ls),
(1368,654,o),
(1360,716,o),
(1344,770,cs),
(1297,937,o),
(1150,1020,o),
(905,1020,cs),
(815,1020,l),
(815,0,l)
);
}
);
width = 1488;
}
);
metricRight = h;
note = hbar;
unicode = 295;
}
{
glyphname = iogonek;
layers = (
{
layerId = m01;
shapes = (
{
closed = 1;
nodes = (
(144,-354,o),
(179,-427,o),
(250,-483,cs),
(315,-534,o),
(394,-560,o),
(488,-560,cs),
(704,-560,l),
(704,-230,l),
(578,-230,ls),
(527,-230,o),
(499,-218,o),
(471,-174,cs),
(456,-151,o),
(449,-103,o),
(449,-28,cs),
(449,0,l),
(704,0,l),
(704,1019,l),
(166,1019,l),
(166,0,l),
(259,0,l),
(182,-62,o),
(144,-150,o),
(144,-263,cs)
);
},
{
closed = 1;
nodes = (
(655,1201,o),
(745,1264,o),
(745,1408,cs),
(745,1548,o),
(648,1607,o),
(429,1607,cs),
(210,1607,o),
(109,1548,o),
(109,1408,cs),
(109,1270,o),
(219,1201,o),
(440,1201,cs)
);
}
);
width = 856;
}
);
note = iogonek;
unicode = 303;
}
{
color = 4;
glyphname = kgreenlandic;
layers = (
{
anchors = (
{
name = bottom;
pos = (753,0);
},
{
name = top;
pos = (753,1020);
}
);
layerId = m01;
shapes = (
{
closed = 1;
nodes = (
(808,798,o),
(817,767,o),
(835,742,cs),
(888,666,o),
(983,628,o),
(1118,628,cs),
(1203,628,o),
(1271,645,o),
(1323,678,cs),
(1380,714,o),
(1409,766,o),
(1409,833,cs),
(1409,868,o),
(1401,899,o),
(1384,924,cs),
(1336,997,o),
(1245,1033,o),
(1111,1033,cs),
(1025,1033,o),
(955,1017,o),
(900,986,cs),
(839,951,o),
(808,900,o),
(808,833,cs)
);
},
{
closed = 1;
nodes = (
(662,0,l),
(662,1020,l),
(125,1020,l),
(125,0,l)
);
},
{
closed = 1;
nodes = (
(1399,0,l),
(1399,72,ls),
(1399,143,o),
(1391,205,o),
(1376,260,cs),
(1328,426,o),
(1181,509,o),
(936,509,cs),
(846,509,l),
(846,0,l)
);
}
);
width = 1499;
}
);
metricLeft = n;
note = kgreenlandic;
unicode = 312;
}
{
color = 4;
glyphname = lcaron;
kernLeft = KO_l;
kernRight = KO_l;
layers = (
{
anchors = (
{
name = bottom;
pos = (339,0);
},
{
name = center;
pos = (339,510);
},
{
name = top;
pos = (339,1531);
},
{
name = topright;
pos = (888,2000);
}
);
layerId = m01;
shapes = (
{
closed = 1;
nodes = (
(608,0,l),
(608,1531,l),
(70,1531,l),
(70,0,l)
);
},
{
closed = 1;
nodes = (
(777,937,ls),
(970,937,o),
(1052,980,o),
(1083,1087,cs),
(1098,1140,o),
(1106,1221,o),
(1106,1329,cs),
(1106,1586,l),
(714,1586,l),
(714,937,l)
);
}
);
userData = {
assembly = "PUSHW[ ]	/* 1 value pushed */
13
MDAP[1]	/* MoveDirectAbsPt */
PUSHW[ ]	/* 1 value pushed */
0
MDAP[1]	/* MoveDirectAbsPt */
PUSHW[ ]	/* 2 values pushed */
1 8
MIRP[10100]	/* MoveIndirectRelPt */
PUSHW[ ]	/* 1 value pushed */
13
SRP0[ ]	/* SetRefPoint0 */
PUSHW[ ]	/* 1 value pushed */
9
MDRP[10000]	/* MoveDirectRelPt */
PUSHW[ ]	/* 1 value pushed */
9
MDAP[1]	/* MoveDirectAbsPt */
PUSHW[ ]	/* 2 values pushed */
10 11
MIRP[10100]	/* MoveIndirectRelPt */
PUSHW[ ]	/* 1 value pushed */
1
SRP0[ ]	/* SetRefPoint0 */
PUSHW[ ]	/* 1 value pushed */
14
MDRP[11100]	/* MoveDirectRelPt */
SVTCA[0]	/* SetFreedomAndProjectionVectorToAxis */
PUSHW[ ]	/* 4 values pushed */
0 4 8 4
CALL[ ]	/* CallFunction */
IUP[0]	/* InterpolateUntPts */
IUP[1]	/* InterpolateUntPts */";
};
width = 1056;
}
);
metricLeft = l;
note = lcaron;
unicode = 318;
}
{
color = 4;
glyphname = Ldot;
kernLeft = KO_H;
layers = (
{
layerId = m01;
shapes = (
{
closed = 1;
nodes = (
(1630,646,o),
(1720,709,o),
(1720,853,cs),
(1720,993,o),
(1623,1052,o),
(1404,1052,cs),
(1185,1052,o),
(1084,993,o),
(1084,853,cs),
(1084,715,o),
(1194,646,o),
(1415,646,cs)
);
},
{
closed = 1;
nodes = (
(672,2,l),
(672,1361,l),
(134,1361,l),
(134,2,l)
);
},
{
closed = 1;
nodes = (
(1400,0,l),
(1400,406,l),
(1321,406,ls),
(1224,406,o),
(1145,397,o),
(1084,378,cs),
(924,329,o),
(844,235,o),
(844,97,cs),
(844,0,l)
);
}
);
width = 1740;
}
);
note = Ldot;
unicode = 319;
userData = {
KernOnSpecialSpacing = {
R = NoKerning;
};
};
}
{
glyphname = Lslash;
kernLeft = KO_Lslash;
kernRight = KO_Lslash;
layers = (
{
layerId = m01;
shapes = (
{
closed = 1;
nodes = (
(672,2,l),
(672,670,l),
(656,670,l),
(1135,856,l),
(1135,1061,l),
(672,882,l),
(672,1361,l),
(134,1361,l),
(134,679,l),
(150,679,l),
(-25,612,l),
(-25,407,l),
(134,468,l),
(134,2,l)
);
},
{
closed = 1;
nodes = (
(1400,0,l),
(1400,406,l),
(1321,406,ls),
(1224,406,o),
(1145,397,o),
(1084,378,cs),
(924,329,o),
(844,235,o),
(844,97,cs),
(844,0,l)
);
}
);
width = 1534;
}
);
note = Lslash;
unicode = 321;
}
{
glyphname = lslash;
kernRight = KO_lslash;
layers = (
{
layerId = m01;
shapes = (
{
closed = 1;
nodes = (
(778,0,l),
(778,826,l),
(768,826,l),
(1035,1021,l),
(885,1170,l),
(778,1092,l),
(778,1531,l),
(240,1531,l),
(240,704,l),
(250,704,l),
(-17,509,l),
(132,360,l),
(240,439,l),
(240,0,l)
);
}
);
width = 1018;
}
);
note = lslash;
unicode = 322;
}
{
color = 4;
glyphname = eng;
kernLeft = KO_eng;
kernRight = KO_n;
layers = (
{
layerId = m01;
shapes = (
{
closed = 1;
nodes = (
(938,-508,ls),
(1025,-508,o),
(1098,-496,o),
(1158,-472,cs),
(1329,-403,o),
(1414,-247,o),
(1414,-5,cs),
(1414,583,ls),
(1414,654,o),
(1406,716,o),
(1390,770,cs),
(1343,937,o),
(1196,1020,o),
(951,1020,cs),
(861,1020,l),
(861,-508,l)
);
},
{
closed = 1;
nodes = (
(696,0,l),
(696,1020,l),
(140,1020,l),
(140,0,l)
);
}
);
width = 1534;
}
);
note = eng;
unicode = 331;
}
{
color = 4;
glyphname = OE;
kernLeft = KO_G;
kernRight = KO_R;
layers = (
{
anchors = (
{
name = bottom;
pos = (1129,0);
},
{
name = top;
pos = (1129,1361);
}
);
layerId = m01;
shapes = (
{
closed = 1;
nodes = (
(1583,1190,o),
(1610,1115,o),
(1664,1068,cs),
(1730,1011,o),
(1853,983,o),
(2034,983,cs),
(2138,983,l),
(2138,1361,l),
(1583,1361,l),
(1583,1294,ls)
);
},
{
closed = 1;
nodes = (
(1410,2,l),
(1410,552,l),
(1811,552,l),
(1811,813,l),
(1410,813,l),
(1410,1361,l),
(872,1361,l),
(872,2,l)
);
},
{
closed = 1;
nodes = (
(706,1361,l),
(628,1361,ls),
(498,1361,o),
(391,1329,o),
(306,1266,cs),
(162,1159,o),
(90,976,o),
(90,717,cs),
(90,590,o),
(106,475,o),
(138,374,cs),
(219,125,o),
(382,0,o),
(628,0,cs),
(706,0,l)
);
},
{
closed = 1;
nodes = (
(2138,0,l),
(2138,406,l),
(2059,406,ls),
(1962,406,o),
(1883,397,o),
(1822,378,cs),
(1662,329,o),
(1582,235,o),
(1582,97,cs),
(1582,0,l)
);
}
);
width = 2263;
}
);
metricLeft = O;
metricRight = E;
note = OE;
unicode = 338;
}
{
color = 4;
glyphname = oe;
kernLeft = KO_a;
kernRight = KO_e;
layers = (
{
anchors = (
{
name = bottom;
pos = (1066,0);
},
{
name = top;
pos = (1066,1020);
}
);
layerId = m01;
shapes = (
{
closed = 1;
nodes = (
(2071,457,l),
(2071,567,ls),
(2071,642,o),
(2062,707,o),
(2044,764,cs),
(1989,935,o),
(1835,1020,o),
(1583,1020,cs),
(1517,1020,l),
(1517,457,l)
);
},
{
closed = 1;
nodes = (
(844,0,ls),
(919,0,o),
(971,20,o),
(1056,59,cs),
(1081,70,l),
(1122,51,ls),
(1183,22,o),
(1242,0,o),
(1317,0,cs),
(1369,0,l),
(1369,1020,l),
(1292,1020,ls),
(1241,1020,o),
(1185,1005,o),
(1124,975,cs),
(1094,960,l),
(1081,953,l),
(1050,968,ls),
(975,1003,o),
(936,1020,o),
(869,1020,cs),
(792,1020,l),
(792,0,l)
);
},
{
closed = 1;
nodes = (
(70,346,o),
(114,226,o),
(202,138,cs),
(294,46,o),
(424,0,o),
(592,0,cs),
(644,0,l),
(644,1020,l),
(567,1020,ls),
(403,1020,o),
(277,969,o),
(189,868,cs),
(109,775,o),
(70,647,o),
(70,498,cs)
);
},
{
closed = 1;
nodes = (
(1717,0,ls),
(1818,0,o),
(1895,25,o),
(1950,76,cs),
(1995,119,o),
(2017,171,o),
(2017,233,cs),
(2017,261,l),
(1517,261,l),
(1517,0,l)
);
}
);
width = 2141;
}
);
metricLeft = o;
metricRight = e;
note = oe;
unicode = 339;
}
{
color = 4;
glyphname = tcaron;
kernRight = KO_tcaron;
layers = (
{
layerId = m01;
shapes = (
{
closed = 1;
nodes = (
(695,1361,l),
(545,1361,l),
(122,1014,l),
(122,452,ls),
(122,151,o),
(287,0,o),
(617,0,cs),
(695,0,l)
);
},
{
closed = 1;
nodes = (
(967,869,l),
(967,1020,l),
(297,1020,l),
(297,869,l)
);
},
{
closed = 1;
nodes = (
(928,0,ls),
(1029,0,o),
(1106,25,o),
(1161,76,cs),
(1206,119,o),
(1228,171,o),
(1228,233,cs),
(1228,371,l),
(848,371,l),
(848,0,l)
);
},
{
closed = 1;
nodes = (
(1141,937,ls),
(1334,937,o),
(1416,980,o),
(1447,1087,cs),
(1462,1140,o),
(1470,1221,o),
(1470,1329,cs),
(1470,1586,l),
(1078,1586,l),
(1078,937,l)
);
}
);
width = 1520;
}
);
note = tcaron;
unicode = 357;
}
{
color = 4;
glyphname = Tbar;
layers = (
{
anchors = (
{
name = bottom;
pos = (894,0);
},
{
name = center;
pos = (894,681);
},
{
name = top;
pos = (894,1361);
}
);
background = {
shapes = (
{
closed = 1;
nodes = (
(1316,1106,o),
(1330,1015,o),
(1358,950,cs),
(1386,886,o),
(1421,851,o),
(1490,820,cs),
(1525,804,o),
(1579,796,o),
(1652,796,cs),
(1764,796,l),
(1764,1361,l),
(1316,1361,l),
(1316,1222,ls)
);
},
{
closed = 1;
nodes = (
(669,338,l),
(669,0,l),
(1207,0,l),
(1207,338,l),
(1413,338,l),
(1413,508,l),
(1207,508,l),
(1207,1361,l),
(669,1361,l),
(669,508,l),
(493,508,l),
(493,338,l)
);
},
{
closed = 1;
nodes = (
(221,796,ls),
(332,796,o),
(413,821,o),
(464,872,cs),
(526,934,o),
(557,1051,o),
(557,1222,cs),
(557,1361,l),
(109,1361,l),
(109,796,l)
);
}
);
};
layerId = m01;
shapes = (
{
closed = 1;
nodes = (
(1272,936,o),
(1286,845,o),
(1314,780,cs),
(1342,716,o),
(1377,681,o),
(1446,650,cs),
(1481,634,o),
(1535,626,o),
(1608,626,cs),
(1720,626,l),
(1720,1361,l),
(1272,1361,l),
(1272,1052,ls)
);
},
{
closed = 1;
nodes = (
(1164,0,l),
(1164,1361,l),
(626,1361,l),
(626,0,l)
);
},
{
closed = 1;
nodes = (
(182,626,ls),
(293,626,o),
(374,651,o),
(425,702,cs),
(487,764,o),
(518,881,o),
(518,1052,cs),
(518,1361,l),
(70,1361,l),
(70,626,l)
);
},
{
closed = 1;
nodes = (
(1367,271,l),
(1367,448,l),
(425,448,l),
(425,271,l)
);
}
);
width = 1790;
}
);
note = Tbar;
unicode = 358;
}
{
glyphname = tbar;
layers = (
{
layerId = m01;
shapes = (
{
closed = 1;
nodes = (
(883,1291,l),
(733,1291,l),
(310,1021,l),
(310,718,l),
(145,718,l),
(145,578,l),
(310,578,l),
(310,452,ls),
(310,151,o),
(475,0,o),
(805,0,cs),
(883,0,l)
);
},
{
closed = 1;
nodes = (
(1507,850,l),
(1507,1020,l),
(816,1020,l),
(816,850,l)
);
},
{
closed = 1;
nodes = (
(1507,578,l),
(1507,718,l),
(1028,718,l),
(1028,578,l)
);
},
{
closed = 1;
nodes = (
(1108,0,ls),
(1209,0,o),
(1286,25,o),
(1341,76,cs),
(1386,119,o),
(1408,171,o),
(1408,233,cs),
(1408,371,l),
(1028,371,l),
(1028,0,l)
);
}
);
width = 1704;
}
);
note = tbar;
unicode = 359;
}
{
color = 4;
glyphname = Bhook;
kernRight = KO_B;
layers = (
{
anchors = (
{
name = bottom;
pos = (1203,0);
},
{
name = center;
pos = (820,340);
},
{
name = top;
pos = (1203,1361);
}
);
layerId = m01;
shapes = (
{
closed = 1;
nodes = (
(1772,742,o),
(1821,829,o),
(1821,948,cs),
(1821,1224,o),
(1608,1361,o),
(1326,1361,cs),
(1249,1361,l),
(1249,0,l),
(1341,0,ls),
(1631,0,o),
(1861,121,o),
(1861,406,cs),
(1861,542,o),
(1797,636,o),
(1670,689,c),
(1673,689,l)
);
},
{
closed = 1;
nodes = (
(1083,2,l),
(1083,1361,l),
(545,1361,l),
(545,2,l)
);
},
{
closed = 1;
nodes = (
(379,1016,l),
(379,1361,l),
(274,1361,ls),
(198,1361,o),
(20,1279,o),
(20,1065,cs),
(20,1016,l)
);
}
);
width = 1970;
}
);
metricRight = B;
unicode = 385;
}
{
color = 4;
glyphname = Oopen;
kernLeft = KO_Oopen;
kernRight = KO_O;
layers = (
{
anchors = (
{
name = bottom;
pos = (779,0);
},
{
name = top;
pos = (779,1361);
}
);
layerId = m01;
shapes = (
{
closed = 1;
nodes = (
(677,1361,l),
(125,1361,l),
(125,661,l),
(196,661,ls),
(368,661,o),
(491,691,o),
(566,750,cs),
(640,809,o),
(677,910,o),
(677,1053,cs)
);
},
{
closed = 1;
nodes = (
(895,0,ls),
(1224,0,o),
(1415,394,o),
(1415,723,cs),
(1415,1059,o),
(1232,1361,o),
(920,1361,cs),
(843,1361,l),
(843,0,l)
);
},
{
closed = 1;
nodes = (
(677,261,l),
(177,261,l),
(177,233,ls),
(177,171,o),
(199,119,o),
(244,76,cs),
(299,25,o),
(376,0,o),
(477,0,cs),
(677,0,l)
);
}
);
width = 1505;
}
);
metricLeft = "=|C";
metricRight = O;
unicode = 390;
}
{
color = 4;
glyphname = Dhook;
kernRight = KO_D;
layers = (
{
anchors = (
{
name = bottom;
pos = (1204,0);
},
{
name = center;
pos = (821,681);
},
{
name = top;
pos = (1204,1361);
}
);
layerId = m01;
shapes = (
{
closed = 1;
nodes = (
(1333,0,ls),
(1510,0,o),
(1644,67,o),
(1734,202,cs),
(1858,387,o),
(1895,725,o),
(1837,988,cs),
(1784,1237,o),
(1616,1361,o),
(1333,1361,cs),
(1249,1361,l),
(1249,0,l)
);
},
{
closed = 1;
nodes = (
(1083,2,l),
(1083,1361,l),
(545,1361,l),
(545,2,l)
);
},
{
closed = 1;
nodes = (
(379,1016,l),
(379,1361,l),
(274,1361,ls),
(158,1361,o),
(20,1279,o),
(20,1065,cs),
(20,1016,l)
);
}
);
width = 1954;
}
);
unicode = 394;
}
{
color = 4;
glyphname = Eturned;
kernLeft = KO_Eturned;
kernRight = KO_H;
layers = (
{
anchors = (
{
name = bottom;
pos = (692,0);
},
{
name = ogonek;
pos = (78,10);
},
{
name = top;
pos = (692,1361);
},
{
name = topright;
pos = (1439,1361);
}
);
layerId = m01;
shapes = (
{
closed = 1;
nodes = (
(620,1361,l),
(125,1361,l),
(125,913,l),
(380,913,ls),
(514,913,o),
(620,1020,o),
(620,1137,cs)
);
},
{
closed = 1;
nodes = (
(1325,1361,l),
(787,1361,l),
(787,786,l),
(356,786,l),
(356,635,l),
(787,635,l),
(787,2,l),
(1325,2,l)
);
},
{
closed = 1;
nodes = (
(621,255,ls),
(621,458,o),
(481,526,o),
(367,526,cs),
(125,526,l),
(125,0,l),
(621,0,l)
);
}
);
width = 1450;
}
);
unicode = 398;
}
{
color = 4;
glyphname = Schwa;
kernLeft = KO_S;
kernRight = KO_D;
layers = (
{
anchors = (
{
name = bottom;
pos = (831,0);
},
{
name = top;
pos = (831,1361);
}
);
layerId = m01;
shapes = (
{
closed = 1;
nodes = (
(675,323,o),
(653,375,o),
(608,417,cs),
(553,468,o),
(476,494,o),
(375,494,cs),
(125,494,l),
(125,0,l),
(675,0,l),
(675,191,ls)
);
},
{
closed = 1;
nodes = (
(606,1361,ls),
(434,1361,o),
(311,1331,o),
(236,1271,cs),
(162,1212,o),
(125,1112,o),
(125,969,cs),
(125,675,l),
(677,675,l),
(677,1361,l)
);
},
{
closed = 1;
nodes = (
(843,0,l),
(921,0,ls),
(1051,0,o),
(1158,32,o),
(1243,95,cs),
(1387,202,o),
(1459,385,o),
(1459,644,cs),
(1459,771,o),
(1443,886,o),
(1410,987,cs),
(1330,1236,o),
(1167,1361,o),
(921,1361,cs),
(843,1361,l)
);
}
);
width = 1549;
}
);
metricLeft = H;
metricRight = O;
unicode = 399;
}
{
color = 4;
glyphname = Eopen;
layers = (
{
anchors = (
{
name = bottom;
pos = (775,0);
},
{
name = top;
pos = (775,1361);
}
);
layerId = m01;
shapes = (
{
closed = 1;
nodes = (
(721,611,l),
(903,611,l),
(903,778,l),
(721,778,l),
(721,1361,l),
(644,1361,ls),
(479,1361,o),
(353,1325,o),
(268,1253,cs),
(189,1186,o),
(149,1093,o),
(149,974,cs),
(149,828,o),
(244,733,o),
(435,689,c),
(272,656,o),
(169,587,o),
(128,484,cs),
(115,453,o),
(109,413,o),
(109,366,cs),
(109,271,o),
(153,167,o),
(240,102,cs),
(329,34,o),
(458,0,o),
(629,0,cs),
(721,0,l)
);
},
{
closed = 1;
nodes = (
(1440,966,ls),
(1440,1100,o),
(1393,1201,o),
(1300,1270,cs),
(1217,1331,o),
(1103,1361,o),
(960,1361,cs),
(835,1361,l),
(835,900,l),
(1440,900,l)
);
},
{
closed = 1;
nodes = (
(1440,461,l),
(835,461,l),
(835,0,l),
(960,0,ls),
(1184,0,o),
(1331,71,o),
(1402,214,cs),
(1427,264,o),
(1440,324,o),
(1440,395,cs)
);
}
);
width = 1549;
}
);
unicode = 400;
}
{
glyphname = florin;
layers = (
{
layerId = m01;
shapes = (
{
closed = 1;
nodes = (
(1175,1186,o),
(1209,1135,o),
(1277,1104,cs),
(1310,1088,o),
(1371,1080,o),
(1460,1080,cs),
(1546,1080,l),
(1633,1550,l),
(1216,1550,l),
(1186,1388,ls),
(1179,1343,o),
(1175,1299,o),
(1175,1256,cs)
);
},
{
closed = 1;
nodes = (
(684,-340,l),
(1031,1549,l),
(964,1549,ls),
(878,1549,o),
(803,1537,o),
(739,1512,cs),
(560,1443,o),
(449,1293,o),
(404,1061,cs),
(146,-340,l)
);
},
{
closed = 1;
nodes = (
(1356,510,l),
(1414,825,l),
(1083,825,l),
(1025,510,l)
);
}
);
width = 1712;
}
);
note = florin;
unicode = 402;
}
{
color = 0;
glyphname = Khook;
layers = (
{
anchors = (
{
name = bottom;
pos = (783,0);
},
{
name = top;
pos = (783,1361);
}
);
layerId = m01;
shapes = (
{
closed = 1;
nodes = (
(663,2,l),
(663,1361,l),
(125,1361,l),
(125,2,l)
);
},
{
closed = 1;
nodes = (
(1640,932,l),
(1640,1068,ls),
(1640,1282,o),
(1462,1359,o),
(1336,1359,cs),
(1137,1359,ls),
(959,1359,o),
(829,1281,o),
(829,934,c)
);
},
{
closed = 1;
nodes = (
(1441,617,o),
(1353,756,o),
(1190,756,cs),
(829,756,l),
(829,0,l),
(1441,0,l),
(1441,481,ls)
);
}
);
width = 1670;
}
);
unicode = 408;
}
{
color = 4;
glyphname = khook;
layers = (
{
anchors = (
{
name = bottom;
pos = (744,0);
},
{
name = top;
pos = (391,1531);
}
);
layerId = m01;
shapes = (
{
closed = 1;
nodes = (
(662,0,l),
(662,1531,l),
(125,1531,l),
(125,0,l)
);
},
{
closed = 1;
nodes = (
(772,798,o),
(781,767,o),
(799,742,cs),
(852,666,o),
(947,628,o),
(1082,628,cs),
(1167,628,o),
(1235,645,o),
(1287,678,cs),
(1344,714,o),
(1373,766,o),
(1373,833,cs),
(1373,868,o),
(1365,899,o),
(1348,924,cs),
(1300,997,o),
(1209,1033,o),
(1075,1033,cs),
(989,1033,o),
(919,1017,o),
(864,986,cs),
(803,951,o),
(772,900,o),
(772,833,cs)
);
},
{
closed = 1;
nodes = (
(1363,0,l),
(1363,72,ls),
(1363,143,o),
(1355,205,o),
(1340,260,cs),
(1292,426,o),
(1145,509,o),
(900,509,cs),
(810,509,l),
(810,0,l)
);
},
{
closed = 1;
nodes = (
(1309,1228,ls),
(1309,1328,o),
(1270,1404,o),
(1193,1456,cs),
(1126,1502,o),
(1032,1524,o),
(915,1524,cs),
(810,1524,l),
(810,1179,l),
(1309,1179,l)
);
}
);
width = 1463;
}
);
metricLeft = h;
metricRight = k;
unicode = 409;
}
{
glyphname = Mturned;
layers = (
{
anchors = (
{
name = bottom;
pos = (1122,0);
},
{
name = top;
pos = (1122,1361);
}
);
layerId = m01;
shapes = (
{
closed = 1;
nodes = (
(125,1361,l),
(125,436,ls),
(125,365,o),
(133,303,o),
(148,249,cs),
(196,82,o),
(343,-1,o),
(588,-1,cs),
(678,-1,l),
(678,1361,l)
);
},
{
closed = 1;
nodes = (
(844,1361,l),
(844,-1,l),
(1400,-1,l),
(1400,1361,l)
);
},
{
closed = 1;
nodes = (
(1566,1361,l),
(1566,-1,l),
(2122,-1,l),
(2122,1361,l)
);
}
);
width = 2247;
}
);
metricLeft = "=|M";
metricRight = H;
unicode = 412;
}
{
color = 4;
glyphname = Nhookleft;
layers = (
{
anchors = (
{
name = bottom;
pos = (765,0);
},
{
name = top;
pos = (765,1361);
}
);
layerId = m01;
shapes = (
{
closed = 1;
nodes = (
(1382,0,l),
(1382,1020,ls),
(1382,1228,o),
(1241,1361,o),
(919,1361,cs),
(829,1361,l),
(829,0,l)
);
},
{
closed = 1;
nodes = (
(110,-341,l),
(200,-341,ls),
(522,-341,o),
(663,-208,o),
(663,0,cs),
(663,1361,l),
(110,1361,l)
);
}
);
width = 1492;
}
);
unicode = 413;
}
{
color = 4;
glyphname = Yhook;
kernLeft = KO_U;
kernRight = KO_Yhook;
layers = (
{
anchors = (
{
name = bottom;
pos = (747,0);
},
{
name = top;
pos = (747,1361);
},
{
name = topleft;
pos = (0,1361);
}
);
layerId = m01;
shapes = (
{
closed = 1;
nodes = (
(829,1361,l),
(829,-510,l),
(891,-510,ls),
(1208,-510,o),
(1366,-352,o),
(1366,-37,cs),
(1366,1361,l)
);
},
{
closed = 1;
nodes = (
(110,366,o),
(118,304,o),
(134,250,cs),
(181,83,o),
(328,0,o),
(573,0,cs),
(663,0,l),
(663,1361,l),
(110,1361,l),
(110,437,ls)
);
},
{
closed = 1;
nodes = (
(1891,1065,ls),
(1891,1279,o),
(1753,1361,o),
(1637,1361,cs),
(1532,1361,l),
(1532,1016,l),
(1891,1016,l)
);
}
);
width = 1911;
}
);
metricLeft = Y;
unicode = 435;
}
{
glyphname = jdotless;
layers = (
{
anchors = (
{
name = bottom;
pos = (598,-560);
},
{
name = top;
pos = (598,1020);
}
);
layerId = m01;
shapes = (
{
closed = 1;
nodes = (
(413,-508,ls),
(578,-508,o),
(698,-462,o),
(774,-369,cs),
(841,-288,o),
(874,-166,o),
(874,-5,cs),
(874,1020,l),
(336,1020,l),
(336,-508,l)
);
}
);
width = 1196;
}
);
note = dotlessj;
unicode = 567;
}
{
color = 4;
glyphname = oopen;
layers = (
{
anchors = (
{
name = bottom;
pos = (758,0);
},
{
name = top;
pos = (758,1020);
}
);
layerId = m01;
shapes = (
{
closed = 1;
nodes = (
(674,1020,l),
(122,1020,l),
(122,449,l),
(193,449,ls),
(365,449,o),
(488,479,o),
(563,538,cs),
(637,597,o),
(674,698,o),
(674,841,cs)
);
},
{
closed = 1;
nodes = (
(1394,647,o),
(1355,775,o),
(1275,868,cs),
(1188,969,o),
(1063,1020,o),
(899,1020,cs),
(822,1020,l),
(822,0,l),
(874,0,ls),
(1043,0,o),
(1172,46,o),
(1263,138,cs),
(1350,225,o),
(1394,345,o),
(1394,498,cs)
);
},
{
closed = 1;
nodes = (
(674,261,l),
(174,261,l),
(174,233,ls),
(174,171,o),
(196,119,o),
(241,76,cs),
(296,25,o),
(373,0,o),
(474,0,cs),
(674,0,l)
);
}
);
width = 1464;
}
);
unicode = 596;
}
{
color = 4;
glyphname = dhook;
kernLeft = KO_a;
kernRight = KO_dhook;
layers = (
{
anchors = (
{
name = bottom;
pos = (707,0);
},
{
name = center;
pos = (1064,1531);
},
{
name = top;
pos = (707,1020);
}
);
layerId = m01;
shapes = (
{
closed = 1;
nodes = (
(1325,0,l),
(1325,1531,l),
(792,1531,l),
(792,0,l)
);
},
{
closed = 1;
nodes = (
(70,346,o),
(114,226,o),
(202,138,cs),
(294,46,o),
(424,0,o),
(592,0,cs),
(644,0,l),
(644,1020,l),
(567,1020,ls),
(403,1020,o),
(277,969,o),
(189,868,cs),
(109,775,o),
(70,647,o),
(70,498,cs)
);
},
{
closed = 1;
nodes = (
(1852,1235,ls),
(1852,1449,o),
(1674,1531,o),
(1538,1531,cs),
(1473,1531,l),
(1473,1186,l),
(1852,1186,l)
);
}
);
width = 1450;
}
);
unicode = 599;
}
{
color = 0;
glyphname = schwa;
kernLeft = KO_schwa;
kernRight = KO_schwa;
layers = (
{
anchors = (
{
name = bottom;
pos = (767,0);
},
{
name = ogonekabove;
pos = (153,1010);
},
{
name = top;
pos = (767,1020);
}
);
layerId = m01;
shapes = (
{
closed = 1;
nodes = (
(129,563,l),
(129,453,ls),
(129,378,o),
(138,313,o),
(156,256,cs),
(211,85,o),
(365,0,o),
(617,0,cs),
(683,0,l),
(683,563,l)
);
},
{
closed = 1;
nodes = (
(1405,674,o),
(1361,794,o),
(1273,882,cs),
(1181,974,o),
(1051,1020,o),
(883,1020,cs),
(831,1020,l),
(831,0,l),
(908,0,ls),
(1072,0,o),
(1198,51,o),
(1286,152,cs),
(1366,245,o),
(1405,373,o),
(1405,522,cs)
);
},
{
closed = 1;
nodes = (
(483,1020,ls),
(382,1020,o),
(305,995,o),
(250,944,cs),
(205,901,o),
(183,849,o),
(183,787,cs),
(183,759,l),
(683,759,l),
(683,1020,l)
);
}
);
width = 1534;
}
);
unicode = 601;
}
{
color = 4;
glyphname = eopen;
kernLeft = KO_eopen;
kernRight = KO_eopen;
layers = (
{
anchors = (
{
name = bottom;
pos = (717,0);
},
{
name = top;
pos = (718,1020);
}
);
background = {
shapes = (
{
ref = o;
}
);
};
layerId = m01;
shapes = (
{
closed = 1;
nodes = (
(642,458,l),
(992,458,l),
(992,583,l),
(642,583,l),
(642,1020,l),
(509,1020,ls),
(292,1020,o),
(102,944,o),
(102,730,cs),
(102,621,o),
(181,549,o),
(338,516,c),
(183,488,o),
(70,424,o),
(70,274,cs),
(70,70,o),
(290,0,o),
(496,0,cs),
(642,0,l)
);
},
{
closed = 1;
nodes = (
(1337,724,ls),
(1337,938,o),
(1159,1020,o),
(943,1020,cs),
(790,1020,l),
(790,675,l),
(1337,675,l)
);
},
{
closed = 1;
nodes = (
(1337,345,l),
(790,345,l),
(790,0,l),
(943,0,ls),
(1173,0,o),
(1337,92,o),
(1337,296,cs)
);
}
);
width = 1407;
}
);
metricLeft = o;
metricRight = o;
unicode = 603;
}
{
color = 4;
glyphname = hturned;
kernLeft = KO_u;
kernRight = KO_a;
layers = (
{
anchors = (
{
name = bottom;
pos = (1094,-512);
},
{
name = center;
pos = (1104,-167);
},
{
name = top;
pos = (741,1020);
}
);
layerId = m01;
shapes = (
{
closed = 1;
nodes = (
(821,1020,l),
(821,-511,l),
(1359,-511,l),
(1359,1020,l)
);
},
{
closed = 1;
nodes = (
(120,1020,l),
(120,437,ls),
(120,366,o),
(128,304,o),
(144,250,cs),
(191,83,o),
(338,0,o),
(583,0,cs),
(673,0,l),
(673,1020,l)
);
}
);
width = 1484;
}
);
unicode = 613;
}
{
color = 4;
glyphname = mturned;
kernLeft = KO_u;
kernRight = KO_a;
layers = (
{
anchors = (
{
name = bottom;
pos = (1098,0);
},
{
name = top;
pos = (1098,1020);
}
);
layerId = m01;
shapes = (
{
closed = 1;
nodes = (
(120,1020,l),
(120,437,ls),
(120,137,o),
(259,0,o),
(583,0,cs),
(673,0,l),
(673,1020,l)
);
},
{
closed = 1;
nodes = (
(821,1020,l),
(821,437,ls),
(821,137,o),
(960,0,o),
(1284,0,cs),
(1374,0,l),
(1374,1020,l)
);
},
{
closed = 1;
nodes = (
(1522,1020,l),
(1522,0,l),
(2078,0,l),
(2078,1020,l)
);
}
);
width = 2203;
}
);
metricLeft = u;
metricRight = u;
unicode = 623;
}
{
color = 9;
glyphname = nhookleft;
kernLeft = KO_n;
kernRight = KO_n;
layers = (
{
anchors = (
{
name = bottom;
pos = (755,0);
},
{
name = top;
pos = (755,1020);
}
);
background = {
shapes = (
{
closed = 1;
nodes = (
(686,0,l),
(686,1020,l),
(130,1020,l),
(130,0,l)
);
}
);
};
layerId = m01;
shapes = (
{
closed = 1;
nodes = (
(1385,0,l),
(1385,583,ls),
(1385,654,o),
(1377,716,o),
(1361,770,cs),
(1314,937,o),
(1167,1020,o),
(922,1020,cs),
(832,1020,l),
(832,0,l)
);
},
{
closed = 1;
nodes = (
(678,1020,l),
(125,1020,l),
(125,-373,l),
(215,-373,ls),
(460,-373,o),
(607,-290,o),
(654,-123,cs),
(670,-69,o),
(678,-7,o),
(678,64,cs)
);
}
);
width = 1505;
}
);
metricLeft = n;
metricRight = n;
unicode = 626;
}
{
glyphname = commaturnedmod;
kernLeft = KO_commaturnedmod;
kernRight = KO_commaturnedmod;
layers = (
{
anchors = (
{
name = _top;
pos = (410,1020);
}
);
layerId = m01;
shapes = (
{
closed = 1;
nodes = (
(270,1791,o),
(90,1689,o),
(90,1537,cs),
(90,1424,ls),
(90,1291,o),
(195,1225,o),
(405,1225,cs),
(624,1225,o),
(727,1283,o),
(727,1424,cs),
(727,1557,o),
(626,1626,o),
(424,1631,c),
(424,1791,l)
);
}
);
width = 817;
}
);
metricLeft = "=hyphen";
metricRight = "=hyphen";
unicode = 699;
userData = {
KernOnSpecialSpacing = {
L = quotes;
R = quotes;
};
};
}
{
glyphname = circumflex;
layers = (
{
layerId = m01;
shapes = (
{
closed = 1;
nodes = (
(362,1332,o),
(475,1384,o),
(590,1509,cs),
(618,1540,l),
(678,1479,ls),
(775,1381,o),
(872,1332,o),
(970,1332,cs),
(1022,1332,o),
(1065,1349,o),
(1100,1384,cs),
(1145,1429,l),
(618,1884,l),
(90,1429,l),
(135,1384,ls),
(171,1349,o),
(222,1332,o),
(289,1332,cs)
);
}
);
width = 1235;
}
);
metricLeft = "=hyphen";
metricRight = "=hyphen";
note = circumflex;
unicode = 710;
}
{
glyphname = caron;
layers = (
{
layerId = m01;
shapes = (
{
closed = 1;
nodes = (
(1207,1727,l),
(1162,1772,ls),
(1127,1807,o),
(1081,1824,o),
(1022,1824,cs),
(930,1824,o),
(835,1775,o),
(737,1677,cs),
(680,1616,l),
(620,1677,ls),
(522,1775,o),
(425,1824,o),
(328,1824,cs),
(276,1824,o),
(233,1807,o),
(198,1772,cs),
(153,1727,l),
(680,1272,l)
);
}
);
width = 1229;
}
);
note = caron;
unicode = 711;
}
{
glyphname = breve;
layers = (
{
layerId = m01;
shapes = (
{
closed = 1;
nodes = (
(1053,1341,o),
(1160,1465,o),
(1160,1672,cs),
(1160,1699,l),
(841,1699,l),
(841,1663,o),
(836,1633,o),
(826,1609,cs),
(798,1542,o),
(731,1509,o),
(626,1509,cs),
(554,1509,o),
(498,1523,o),
(457,1550,cs),
(409,1583,o),
(385,1633,o),
(385,1699,c),
(90,1699,l),
(90,1647,ls),
(90,1519,o),
(142,1424,o),
(245,1362,cs),
(391,1275,o),
(647,1263,o),
(839,1300,cs)
);
}
);
width = 1250;
}
);
metricLeft = "=hyphen";
metricRight = "=hyphen";
note = breve;
unicode = 728;
}
{
glyphname = dotaccent;
layers = (
{
layerId = m01;
shapes = (
{
closed = 1;
nodes = (
(637,1294,o),
(726,1359,o),
(726,1501,cs),
(726,1643,o),
(626,1700,o),
(410,1700,cs),
(194,1700,o),
(90,1642,o),
(90,1501,cs),
(90,1363,o),
(200,1294,o),
(421,1294,cs)
);
}
);
width = 816;
}
);
metricLeft = "=hyphen";
metricRight = "=hyphen";
note = dotaccent;
unicode = 729;
}
{
glyphname = ring;
layers = (
{
layerId = m01;
shapes = (
{
closed = 1;
nodes = (
(620,1250,o),
(713,1278,o),
(790,1333,cs),
(871,1391,o),
(911,1467,o),
(911,1561,cs),
(911,1656,o),
(875,1732,o),
(802,1788,cs),
(733,1843,o),
(643,1870,o),
(533,1870,cs),
(422,1870,o),
(330,1843,o),
(256,1788,cs),
(178,1731,o),
(139,1656,o),
(139,1561,cs),
(139,1466,o),
(174,1390,o),
(245,1333,cs),
(314,1278,o),
(403,1250,o),
(510,1250,cs)
);
},
{
closed = 1;
nodes = (
(376,1644,o),
(441,1692,o),
(531,1692,cs),
(621,1692,o),
(673,1644,o),
(673,1561,cs),
(673,1478,o),
(606,1429,o),
(515,1429,cs),
(424,1429,o),
(376,1478,o),
(376,1561,cs)
);
}
);
width = 1019;
}
);
note = ring;
unicode = 730;
}
{
glyphname = ogonek;
layers = (
{
layerId = m01;
shapes = (
{
closed = 1;
nodes = (
(145,-353,o),
(180,-427,o),
(251,-483,cs),
(316,-534,o),
(395,-560,o),
(489,-560,cs),
(705,-560,l),
(705,-230,l),
(579,-230,ls),
(531,-230,o),
(501,-219,o),
(472,-174,cs),
(457,-151,o),
(450,-103,o),
(450,-28,cs),
(450,52,l),
(360,52,o),
(287,23,o),
(230,-34,cs),
(177,-89,o),
(145,-167,o),
(145,-262,cs)
);
}
);
width = 1229;
}
);
note = ogonek;
unicode = 731;
}
{
glyphname = tilde;
layers = (
{
layerId = m01;
shapes = (
{
closed = 1;
nodes = (
(176,1072,ls),
(214,1072,o),
(249,1079,o),
(280,1092,cs),
(369,1131,o),
(436,1207,o),
(480,1320,c),
(493,1287,o),
(509,1256,o),
(528,1226,cs),
(595,1123,o),
(681,1072,o),
(785,1072,cs),
(885,1072,ls),
(990,1072,o),
(1073,1104,o),
(1136,1168,cs),
(1195,1228,o),
(1225,1303,o),
(1225,1393,cs),
(1225,1530,l),
(1139,1530,ls),
(1101,1530,o),
(1066,1523,o),
(1034,1510,cs),
(943,1470,o),
(877,1393,o),
(835,1280,c),
(808,1353,o),
(771,1411,o),
(722,1454,cs),
(665,1505,o),
(602,1530,o),
(531,1530,cs),
(430,1530,ls),
(325,1530,o),
(241,1498,o),
(178,1434,cs),
(119,1374,o),
(90,1299,o),
(90,1209,cs),
(90,1072,l)
);
}
);
width = 1315;
}
);
metricLeft = "=hyphen";
metricRight = "=hyphen";
note = tilde;
unicode = 732;
}
{
glyphname = hungarumlaut;
layers = (
{
layerId = m01;
shapes = (
{
closed = 1;
nodes = (
(810,1349,o),
(859,1332,o),
(922,1332,cs),
(1026,1332,o),
(1127,1381,o),
(1225,1479,cs),
(1445,1699,l),
(1259,1886,l),
(730,1429,l),
(775,1384,ls)
);
},
{
closed = 1;
nodes = (
(805,1699,l),
(619,1886,l),
(90,1429,l),
(135,1384,ls),
(170,1349,o),
(224,1332,o),
(297,1332,cs),
(376,1332,o),
(489,1383,o),
(585,1479,cs)
);
}
);
width = 1535;
}
);
metricLeft = "=hyphen";
metricRight = "=hyphen";
note = hungarumlaut;
unicode = 733;
}
{
glyphname = gravecomb;
layers = (
{
anchors = (
{
name = _top;
pos = (492,1020);
},
{
name = top;
pos = (492,1886);
}
);
layerId = m01;
shapes = (
{
closed = 1;
nodes = (
(331,1707,l),
(90,1467,l),
(223,1334,ls),
(366,1191,o),
(496,1136,o),
(612,1171,cs),
(648,1182,o),
(682,1202,o),
(712,1233,cs),
(759,1279,l)
);
}
);
width = 849;
}
);
metricLeft = hyphen;
metricRight = hyphen;
note = grave;
unicode = 768;
userData = {
KernOnSpecialSpacing = {
L = NoKerning;
R = NoKerning;
};
};
}
{
glyphname = acutecomb;
layers = (
{
anchors = (
{
name = _top;
pos = (332,1020);
},
{
name = top;
pos = (332,1886);
}
);
layerId = m01;
shapes = (
{
closed = 1;
nodes = (
(137,1233,ls),
(167,1202,o),
(201,1182,o),
(237,1171,cs),
(353,1136,o),
(483,1191,o),
(626,1334,cs),
(759,1467,l),
(518,1707,l),
(90,1279,l)
);
}
);
width = 849;
}
);
metricLeft = hyphen;
metricRight = hyphen;
note = acute;
unicode = 769;
userData = {
KernOnSpecialSpacing = {
L = NoKerning;
R = NoKerning;
};
};
}
{
glyphname = circumflexcomb;
layers = (
{
anchors = (
{
name = _top;
pos = (591,1020);
},
{
name = top;
pos = (589,1654);
}
);
background = {
shapes = (
{
closed = 1;
nodes = (
(217,1332,o),
(330,1384,o),
(445,1509,cs),
(473,1540,l),
(533,1479,ls),
(630,1381,o),
(727,1332,o),
(825,1332,cs),
(877,1332,o),
(920,1349,o),
(955,1384,cs),
(1000,1429,l),
(473,1884,l),
(-55,1429,l),
(-10,1384,ls),
(26,1349,o),
(77,1332,o),
(144,1332,cs)
);
}
);
};
layerId = m01;
shapes = (
{
closed = 1;
nodes = (
(660,1677,l),
(518,1677,l),
(90,1249,l),
(112,1227,ls),
(143,1196,o),
(176,1176,o),
(212,1165,cs),
(328,1130,o),
(451,1179,o),
(588,1325,c),
(730,1185,o),
(855,1132,o),
(970,1167,cs),
(1006,1178,o),
(1041,1196,o),
(1070,1229,cs),
(1088,1249,l)
);
}
);
width = 1178;
}
);
metricLeft = hyphen;
metricRight = hyphen;
note = circumflex;
unicode = 770;
userData = {
KernOnSpecialSpacing = {
L = NoKerning;
R = NoKerning;
};
};
}
{
glyphname = tildecomb;
layers = (
{
anchors = (
{
name = _top;
pos = (718,1020);
},
{
name = top;
pos = (718,1530);
}
);
background = {
shapes = (
{
closed = 1;
nodes = (
(286,1252,ls),
(324,1252,o),
(359,1259,o),
(390,1272,cs),
(479,1311,o),
(546,1387,o),
(590,1500,c),
(603,1467,o),
(619,1436,o),
(638,1406,cs),
(705,1303,o),
(791,1252,o),
(895,1252,cs),
(995,1252,ls),
(1100,1252,o),
(1183,1284,o),
(1246,1348,cs),
(1305,1408,o),
(1335,1483,o),
(1335,1573,cs),
(1335,1710,l),
(1249,1710,ls),
(1211,1710,o),
(1176,1703,o),
(1144,1690,cs),
(1053,1650,o),
(987,1573,o),
(945,1460,c),
(918,1533,o),
(881,1591,o),
(832,1634,cs),
(775,1685,o),
(712,1710,o),
(641,1710,cs),
(540,1710,ls),
(435,1710,o),
(351,1678,o),
(288,1614,cs),
(229,1554,o),
(200,1479,o),
(200,1389,cs),
(200,1252,l)
);
}
);
};
layerId = m01;
shapes = (
{
closed = 1;
nodes = (
(781,1228,o),
(895,1176,o),
(1008,1219,cs),
(1043,1233,o),
(1075,1255,o),
(1103,1288,cs),
(1124,1311,l),
(1351,1609,l),
(1328,1630,ls),
(1295,1658,o),
(1261,1676,o),
(1224,1684,cs),
(1119,1709,o),
(1003,1650,o),
(889,1527,c),
(741,1663,ls),
(647,1745,o),
(547,1793,o),
(434,1750,cs),
(398,1737,o),
(367,1715,o),
(338,1682,cs),
(318,1658,l),
(90,1360,l),
(113,1340,ls),
(146,1311,o),
(181,1294,o),
(217,1285,cs),
(322,1261,o),
(437,1319,o),
(551,1442,c),
(696,1307,ls)
);
}
);
width = 1441;
}
);
metricLeft = hyphen;
metricRight = hyphen;
note = tilde;
unicode = 771;
userData = {
KernOnSpecialSpacing = {
L = NoKerning;
R = NoKerning;
};
};
}
{
glyphname = macroncomb;
layers = (
{
anchors = (
{
name = _top;
pos = (511,1020);
},
{
name = top;
pos = (511,1417);
}
);
layerId = m01;
shapes = (
{
closed = 1;
nodes = (
(932,1160,l),
(932,1427,l),
(90,1427,l),
(90,1160,l)
);
}
);
userData = {
assembly = "SVTCA[0]	/* SetFreedomAndProjectionVectorToAxis */
PUSHW[ ]	/* 4 values pushed */
1 1 2 4
CALL[ ]	/* CallFunction */
IUP[0]	/* InterpolateUntPts */
IUP[1]	/* InterpolateUntPts */";
};
width = 1022;
}
);
metricLeft = hyphen;
metricRight = hyphen;
note = macron;
unicode = 772;
userData = {
KernOnSpecialSpacing = {
L = NoKerning;
R = NoKerning;
};
};
}
{
glyphname = brevecomb;
layers = (
{
anchors = (
{
name = _top;
pos = (467,1020);
},
{
name = top;
pos = (474,1521);
}
);
background = {
shapes = (
{
closed = 1;
nodes = (
(90,1599,l),
(90,1397,o),
(199,1231,o),
(469,1231,cs),
(723,1231,o),
(850,1397,o),
(850,1599,c)
);
}
);
};
layerId = m01;
shapes = (
{
closed = 1;
nodes = (
(90,1326,o),
(199,1160,o),
(471,1160,cs),
(741,1160,o),
(850,1326,o),
(850,1528,c),
(90,1528,l)
);
}
);
width = 940;
}
);
metricLeft = hyphen;
metricRight = hyphen;
note = breve;
unicode = 774;
userData = {
KernOnSpecialSpacing = {
L = NoKerning;
R = NoKerning;
};
};
}
{
glyphname = dotaccentcomb;
layers = (
{
anchors = (
{
name = _top;
pos = (409,1020);
},
{
name = top;
pos = (409,1700);
}
);
layerId = m01;
shapes = (
{
closed = 1;
nodes = (
(636,1160,o),
(726,1223,o),
(726,1367,cs),
(726,1507,o),
(629,1566,o),
(410,1566,cs),
(191,1566,o),
(90,1507,o),
(90,1367,cs),
(90,1229,o),
(200,1160,o),
(421,1160,cs)
);
}
);
width = 816;
}
);
metricLeft = hyphen;
metricRight = hyphen;
note = dotaccent;
unicode = 775;
userData = {
KernOnSpecialSpacing = {
L = NoKerning;
R = NoKerning;
};
};
}
{
glyphname = dieresiscomb;
layers = (
{
anchors = (
{
name = _top;
pos = (604,1020);
},
{
name = top;
pos = (604,1505);
}
);
layerId = m01;
shapes = (
{
closed = 1;
nodes = (
(1027,1506,o),
(866,1506,cs),
(744,1506,o),
(668,1471,o),
(668,1337,cs),
(668,1203,o),
(732,1160,o),
(929,1160,cs),
(1056,1160,o),
(1116,1208,o),
(1116,1337,cs),
(1116,1488,o)
);
},
{
closed = 1;
nodes = (
(446,1504,o),
(288,1504,cs),
(166,1504,o),
(90,1469,o),
(90,1335,cs),
(90,1201,o),
(154,1158,o),
(351,1158,cs),
(478,1158,o),
(538,1206,o),
(538,1335,cs),
(538,1489,o)
);
}
);
width = 1206;
}
);
metricLeft = hyphen;
metricRight = hyphen;
note = dieresis;
unicode = 776;
userData = {
KernOnSpecialSpacing = {
L = NoKerning;
R = NoKerning;
};
};
}
{
glyphname = hookabovecomb;
layers = (
{
anchors = (
{
name = _top;
pos = (271,1020);
}
);
layerId = m01;
shapes = (
{
closed = 1;
nodes = (
(90,1160,l),
(458,1160,l),
(458,1432,o),
(292,1541,o),
(90,1541,c)
);
}
);
width = 548;
}
);
metricLeft = hyphen;
metricRight = hyphen;
unicode = 777;
}
{
glyphname = ringcomb;
layers = (
{
anchors = (
{
name = _top;
pos = (476,1020);
},
{
name = top;
pos = (476,1870);
}
);
layerId = m01;
shapes = (
{
closed = 1;
nodes = (
(663,1180,o),
(862,1289,o),
(862,1491,cs),
(862,1694,o),
(687,1800,o),
(484,1800,cs),
(277,1800,o),
(90,1691,o),
(90,1491,cs),
(90,1289,o),
(259,1180,o),
(461,1180,cs)
);
},
{
closed = 1;
nodes = (
(327,1574,o),
(392,1622,o),
(482,1622,cs),
(572,1622,o),
(624,1574,o),
(624,1491,cs),
(624,1408,o),
(557,1359,o),
(466,1359,cs),
(375,1359,o),
(327,1408,o),
(327,1491,cs)
);
}
);
width = 952;
}
);
metricLeft = hyphen;
metricRight = hyphen;
note = ring;
unicode = 778;
userData = {
KernOnSpecialSpacing = {
L = NoKerning;
R = NoKerning;
};
};
}
{
glyphname = hungarumlautcomb;
layers = (
{
anchors = (
{
name = _top;
pos = (563,1020);
},
{
name = top;
pos = (768,1886);
}
);
layerId = m01;
shapes = (
{
closed = 1;
nodes = (
(137,1233,ls),
(167,1202,o),
(201,1182,o),
(237,1171,cs),
(353,1136,o),
(483,1191,o),
(626,1334,cs),
(759,1467,l),
(518,1707,l),
(90,1279,l)
);
},
{
closed = 1;
nodes = (
(741,1233,ls),
(771,1202,o),
(805,1182,o),
(841,1171,cs),
(957,1136,o),
(1087,1191,o),
(1230,1334,cs),
(1363,1467,l),
(1122,1707,l),
(694,1279,l)
);
}
);
width = 1453;
}
);
metricLeft = hyphen;
metricRight = hyphen;
note = hungarumlaut;
unicode = 779;
userData = {
KernOnSpecialSpacing = {
L = NoKerning;
R = NoKerning;
};
};
}
{
glyphname = caroncomb;
layers = (
{
anchors = (
{
name = _top;
pos = (588,1020);
},
{
name = top;
pos = (589,1654);
}
);
layerId = m01;
shapes = (
{
closed = 1;
nodes = (
(1070,1608,ls),
(1041,1641,o),
(1006,1659,o),
(970,1670,cs),
(855,1705,o),
(730,1652,o),
(588,1512,c),
(451,1658,o),
(328,1707,o),
(212,1672,cs),
(176,1661,o),
(143,1641,o),
(112,1610,cs),
(90,1588,l),
(518,1160,l),
(660,1160,l),
(1088,1588,l)
);
}
);
width = 1178;
}
);
metricLeft = hyphen;
metricRight = hyphen;
note = caron;
unicode = 780;
userData = {
KernOnSpecialSpacing = {
L = NoKerning;
R = NoKerning;
};
};
}
{
glyphname = commaturnedabovecomb;
layers = (
{
anchors = (
{
name = _top;
pos = (431,1020);
},
{
name = top;
pos = (431,1616);
}
);
layerId = m01;
shapes = (
{
closed = 1;
nodes = (
(659,1616,l),
(566,1616,ls),
(494,1616,o),
(435,1608,o),
(388,1592,cs),
(265,1549,o),
(203,1472,o),
(203,1362,cs),
(203,1205,l),
(659,1205,l)
);
}
);
width = 600;
}
);
unicode = 786;
userData = {
KernOnSpecialSpacing = {
L = NoKerning;
R = NoKerning;
};
};
}
{
glyphname = horncomb;
layers = (
{
anchors = (
{
name = _topright;
pos = (310,1020);
},
{
name = topright;
pos = (698,1401);
}
);
layerId = m01;
shapes = (
{
closed = 1;
nodes = (
(310,1020,l),
(678,1020,l),
(678,1292,o),
(512,1401,o),
(310,1401,c)
);
},
{
closed = 1;
nodes = (
(512,639,o),
(678,748,o),
(678,1020,c),
(310,1020,l),
(310,639,l)
);
}
);
width = 600;
}
);
unicode = 795;
}
{
glyphname = dotbelowcomb;
layers = (
{
anchors = (
{
name = _bottom;
pos = (488,0);
},
{
name = bottom;
pos = (488,-513);
}
);
layerId = m01;
shapes = (
{
closed = 1;
nodes = (
(716,-543,o),
(806,-480,o),
(806,-336,cs),
(806,-196,o),
(709,-137,o),
(490,-137,cs),
(271,-137,o),
(170,-196,o),
(170,-336,cs),
(170,-474,o),
(280,-543,o),
(501,-543,cs)
);
}
);
width = 984;
}
);
unicode = 803;
}
{
glyphname = commaaccentcomb;
layers = (
{
anchors = (
{
name = _bottom;
pos = (318,0);
},
{
name = bottom;
pos = (318,-560);
}
);
layerId = m01;
shapes = (
{
closed = 1;
nodes = (
(90,-560,l),
(183,-560,ls),
(255,-560,o),
(314,-552,o),
(361,-536,cs),
(484,-493,o),
(546,-416,o),
(546,-306,cs),
(546,-149,l),
(90,-149,l)
);
}
);
width = 636;
}
);
metricLeft = hyphen;
metricRight = hyphen;
note = commaaccent;
unicode = 806;
userData = {
KernOnSpecialSpacing = {
L = NoKerning;
R = NoKerning;
};
};
}
{
glyphname = Delta;
kernLeft = KO_Delta;
kernRight = KO_Delta;
layers = (
{
layerId = m01;
shapes = (
{
closed = 1;
nodes = (
(857,1530,l),
(856,1529,l),
(99,0,l),
(1599,0,l)
);
}
);
width = 1698;
}
);
note = Delta;
unicode = 916;
}
{
glyphname = Omega;
kernLeft = KO_Omega;
kernRight = KO_Omega;
layers = (
{
layerId = m01;
shapes = (
{
closed = 1;
nodes = (
(1698,332,o),
(1728,360,o),
(1756,388,cs),
(1849,479,o),
(1895,617,o),
(1895,800,cs),
(1895,973,o),
(1841,1109,o),
(1733,1208,cs),
(1621,1310,o),
(1465,1361,o),
(1265,1361,cs),
(1187,1361,l),
(1187,0,l),
(1987,0,l),
(1987,339,l),
(1872,339,ls),
(1824,339,o),
(1755,328,o),
(1666,305,c)
);
},
{
closed = 1;
nodes = (
(1024,0,l),
(1024,1361,l),
(946,1361,ls),
(746,1361,o),
(590,1310,o),
(478,1208,cs),
(369,1110,o),
(315,974,o),
(315,800,cs),
(315,667,o),
(340,557,o),
(389,470,cs),
(415,424,o),
(466,369,o),
(542,306,c),
(462,328,o),
(395,339,o),
(340,339,cs),
(225,339,l),
(225,0,l)
);
}
);
width = 2211;
}
);
note = Omega;
unicode = 937;
}
{
glyphname = pi;
kernLeft = KO_pi;
kernRight = KO_pi;
layers = (
{
layerId = m01;
shapes = (
{
closed = 1;
nodes = (
(1642,850,l),
(1642,1190,l),
(232,1190,l),
(232,850,l)
);
},
{
closed = 1;
nodes = (
(1081,265,o),
(1087,180,o),
(1120,112,cs),
(1159,37,o),
(1246,0,o),
(1381,0,cs),
(1471,0,l),
(1471,680,l),
(1081,680,l),
(1081,437,ls)
);
},
{
closed = 1;
nodes = (
(791,0,l),
(791,680,l),
(402,680,l),
(402,0,l)
);
}
);
width = 1874;
}
);
note = pi;
unicode = 960;
}
{
color = 0;
glyphname = Germandbls;
kernLeft = KO_Aogonek;
kernRight = KO_Germandbls;
layers = (
{
background = {
shapes = (
{
closed = 1;
nodes = (
(678,2,l),
(678,1361,l),
(140,1361,l),
(140,2,l)
);
}
);
};
layerId = m01;
shapes = (
{
closed = 1;
nodes = (
(1406,1174,l),
(1406,1361,l),
(844,1361,l),
(844,0,l),
(936,0,ls),
(1104,0,o),
(1234,37,o),
(1325,112,cs),
(1412,183,o),
(1456,281,o),
(1456,406,cs),
(1456,542,o),
(1340,730,o),
(1094,730,c)
);
},
{
closed = 1;
nodes = (
(125,0,l),
(678,0,l),
(678,1361,l),
(588,1361,ls),
(343,1361,o),
(196,1278,o),
(149,1111,cs),
(133,1057,o),
(125,995,o),
(125,924,cs)
);
}
);
width = 1565;
}
);
metricLeft = H;
metricRight = B;
unicode = 7838;
}
{
glyphname = endash;
kernLeft = KO_endash;
kernRight = KO_endash;
layers = (
{
layerId = m01;
shapes = (
{
closed = 1;
nodes = (
(1190,479,l),
(1190,650,l),
(173,650,l),
(173,479,l)
);
}
);
userData = {
assembly = "PUSHW[ ]	/* 4 values pushed */
1 7 0 4
CALL[ ]	/* CallFunction */
PUSHW[ ]	/* 1 value pushed */
1
SRP0[ ]	/* SetRefPoint0 */
PUSHW[ ]	/* 1 value pushed */
5
MDRP[11100]	/* MoveDirectRelPt */
SVTCA[0]	/* SetFreedomAndProjectionVectorToAxis */
PUSHW[ ]	/* 4 values pushed */
1 2 2 4
CALL[ ]	/* CallFunction */
IUP[0]	/* InterpolateUntPts */
IUP[1]	/* InterpolateUntPts */";
};
width = 1368;
}
);
note = endash;
unicode = 8211;
userData = {
KernOnSpecialSpacing = {
L = dashes;
R = dashes;
};
};
}
{
glyphname = emdash;
kernLeft = KO_emdash;
kernRight = KO_emdash;
layers = (
{
layerId = m01;
shapes = (
{
closed = 1;
nodes = (
(1870,479,l),
(1870,650,l),
(170,650,l),
(170,479,l)
);
}
);
userData = {
assembly = "SVTCA[0]	/* SetFreedomAndProjectionVectorToAxis */
PUSHW[ ]	/* 4 values pushed */
1 2 2 4
CALL[ ]	/* CallFunction */
IUP[0]	/* InterpolateUntPts */
IUP[1]	/* InterpolateUntPts */";
};
width = 2046;
}
);
note = emdash;
unicode = 8212;
userData = {
KernOnSpecialSpacing = {
L = dashes;
R = dashes;
};
};
}
{
glyphname = quoteleft;
kernLeft = KO_quoteleft;
kernRight = KO_quoteleft;
layers = (
{
layerId = m01;
shapes = (
{
closed = 1;
nodes = (
(444,1707,o),
(367,1682,o),
(300,1632,cs),
(230,1581,o),
(195,1521,o),
(195,1453,cs),
(195,1210,ls),
(195,1077,o),
(300,1011,o),
(510,1011,cs),
(729,1011,o),
(832,1069,o),
(832,1210,cs),
(832,1343,o),
(731,1412,o),
(529,1417,c),
(529,1707,l)
);
}
);
width = 1018;
}
);
note = quoteleft;
unicode = 8216;
userData = {
KernOnSpecialSpacing = {
L = quotes;
R = quotes;
};
};
}
{
glyphname = quoteright;
kernLeft = KO_quoteright;
kernRight = KO_quoteright;
layers = (
{
layerId = m01;
shapes = (
{
closed = 1;
nodes = (
(287,1700,o),
(184,1642,o),
(184,1501,cs),
(184,1368,o),
(285,1299,o),
(487,1294,c),
(487,1004,l),
(572,1004,o),
(649,1029,o),
(716,1078,cs),
(786,1130,o),
(821,1190,o),
(821,1258,cs),
(821,1501,ls),
(821,1634,o),
(716,1700,o),
(506,1700,cs)
);
}
);
width = 1018;
}
);
note = quoteright;
unicode = 8217;
userData = {
KernOnSpecialSpacing = {
L = quotes;
R = quotes;
};
};
}
{
glyphname = quotesinglbase;
kernRight = KO_quotesinglbase;
layers = (
{
layerId = m01;
shapes = (
{
closed = 1;
nodes = (
(572,-290,o),
(649,-265,o),
(716,-216,cs),
(786,-164,o),
(821,-104,o),
(821,-36,cs),
(821,207,ls),
(821,340,o),
(716,406,o),
(506,406,cs),
(287,406,o),
(184,348,o),
(184,207,cs),
(184,74,o),
(285,5,o),
(487,0,c),
(487,-290,l)
);
}
);
width = 1018;
}
);
note = quotesinglbase;
unicode = 8218;
userData = {
KernOnSpecialSpacing = {
L = quotes;
R = quotes;
};
};
}
{
glyphname = quotedblleft;
kernLeft = KO_quotedblleft;
kernRight = KO_quotedblleft;
layers = (
{
layerId = m01;
shapes = (
{
closed = 1;
nodes = (
(1548,1011,o),
(1651,1069,o),
(1651,1210,cs),
(1651,1343,o),
(1550,1412,o),
(1348,1417,c),
(1348,1707,l),
(1263,1707,o),
(1186,1682,o),
(1119,1632,cs),
(1049,1581,o),
(1014,1521,o),
(1014,1453,cs),
(1014,1210,ls),
(1014,1077,o),
(1119,1011,o),
(1329,1011,cs)
);
},
{
closed = 1;
nodes = (
(452,1707,o),
(375,1682,o),
(308,1632,cs),
(238,1581,o),
(203,1521,o),
(203,1453,cs),
(203,1210,ls),
(203,1077,o),
(308,1011,o),
(518,1011,cs),
(737,1011,o),
(840,1069,o),
(840,1210,cs),
(840,1343,o),
(739,1412,o),
(537,1417,c),
(537,1707,l)
);
}
);
width = 1874;
}
);
note = quotedblleft;
unicode = 8220;
userData = {
KernOnSpecialSpacing = {
L = quotes;
R = quotes;
};
};
}
{
glyphname = quotedblright;
kernLeft = KO_quotedblright;
kernRight = KO_quotedblright;
layers = (
{
layerId = m01;
shapes = (
{
closed = 1;
nodes = (
(1111,1696,o),
(1008,1638,o),
(1008,1497,cs),
(1008,1364,o),
(1109,1295,o),
(1311,1290,c),
(1311,1000,l),
(1396,1000,o),
(1473,1025,o),
(1540,1074,cs),
(1610,1126,o),
(1645,1186,o),
(1645,1254,cs),
(1645,1497,ls),
(1645,1630,o),
(1540,1696,o),
(1330,1696,cs)
);
},
{
closed = 1;
nodes = (
(327,1695,o),
(224,1637,o),
(224,1496,cs),
(224,1363,o),
(325,1294,o),
(527,1289,c),
(527,999,l),
(612,999,o),
(689,1024,o),
(756,1074,cs),
(826,1125,o),
(861,1185,o),
(861,1253,cs),
(861,1496,ls),
(861,1629,o),
(756,1695,o),
(546,1695,cs)
);
}
);
width = 1874;
}
);
note = quotedblright;
unicode = 8221;
userData = {
KernOnSpecialSpacing = {
L = quotes;
R = quotes;
};
};
}
{
glyphname = quotedblbase;
kernRight = KO_quotedblbase;
layers = (
{
layerId = m01;
shapes = (
{
closed = 1;
nodes = (
(1390,-283,o),
(1467,-258,o),
(1534,-208,cs),
(1604,-157,o),
(1639,-97,o),
(1639,-29,cs),
(1639,214,ls),
(1639,347,o),
(1534,413,o),
(1324,413,cs),
(1105,413,o),
(1002,355,o),
(1002,214,cs),
(1002,81,o),
(1103,12,o),
(1305,7,c),
(1305,-283,l)
);
},
{
closed = 1;
nodes = (
(622,-283,o),
(699,-258,o),
(766,-208,cs),
(836,-157,o),
(871,-97,o),
(871,-29,cs),
(871,214,ls),
(871,347,o),
(766,413,o),
(556,413,cs),
(337,413,o),
(234,355,o),
(234,214,cs),
(234,81,o),
(335,12,o),
(537,7,c),
(537,-283,l)
);
}
);
width = 1874;
}
);
note = quotedblbase;
unicode = 8222;
userData = {
KernOnSpecialSpacing = {
L = quotes;
R = quotes;
};
};
}
{
glyphname = dagger;
kernLeft = KO_dagger;
layers = (
{
layerId = m01;
shapes = (
{
closed = 1;
nodes = (
(490,-540,ls),
(655,-540,o),
(775,-494,o),
(851,-401,cs),
(918,-320,o),
(951,-198,o),
(951,-37,cs),
(951,828,l),
(1260,828,l),
(1260,1019,l),
(951,1019,l),
(951,1700,l),
(413,1700,l),
(413,1019,l),
(90,1019,l),
(90,828,l),
(413,828,l),
(413,-540,l)
);
}
);
width = 1350;
}
);
note = dagger;
unicode = 8224;
}
{
glyphname = daggerdbl;
kernLeft = KO_daggerdbl;
kernRight = KO_daggerdbl;
layers = (
{
layerId = m01;
shapes = (
{
closed = 1;
nodes = (
(413,317,l),
(413,-540,l),
(490,-540,ls),
(655,-540,o),
(775,-494,o),
(851,-401,cs),
(918,-320,o),
(951,-198,o),
(951,-37,cs),
(951,317,l),
(1260,317,l),
(1260,508,l),
(951,508,l),
(951,828,l),
(1260,828,l),
(1260,1019,l),
(951,1019,l),
(951,1700,l),
(413,1700,l),
(413,1019,l),
(90,1019,l),
(90,828,l),
(413,828,l),
(413,508,l),
(90,508,l),
(90,317,l)
);
}
);
width = 1350;
}
);
note = daggerdbl;
unicode = 8225;
}
{
glyphname = bullet;
layers = (
{
layerId = m01;
shapes = (
{
closed = 1;
nodes = (
(604,347,o),
(697,375,o),
(774,430,cs),
(855,488,o),
(895,564,o),
(895,657,cs),
(895,752,o),
(859,828,o),
(786,885,cs),
(718,939,o),
(628,966,o),
(517,966,cs),
(405,966,o),
(313,939,o),
(240,885,cs),
(162,827,o),
(123,751,o),
(123,657,cs),
(123,562,o),
(158,487,o),
(229,430,cs),
(298,375,o),
(387,347,o),
(494,347,cs)
);
}
);
width = 1018;
}
);
note = bullet;
unicode = 8226;
userData = {
KernOnSpecialSpacing = {
L = NoKerning;
R = NoKerning;
};
};
}
{
glyphname = ellipsis;
kernLeft = KO_ellipsis;
kernRight = KO_ellipsis;
layers = (
{
layerId = m01;
shapes = (
{
closed = 1;
nodes = (
(2364,0,o),
(2453,65,o),
(2453,207,cs),
(2453,349,o),
(2353,406,o),
(2137,406,cs),
(1921,406,o),
(1817,348,o),
(1817,207,cs),
(1817,69,o),
(1927,0,o),
(2148,0,cs)
);
},
{
closed = 1;
nodes = (
(1510,0,o),
(1599,65,o),
(1599,207,cs),
(1599,349,o),
(1499,406,o),
(1283,406,cs),
(1067,406,o),
(963,348,o),
(963,207,cs),
(963,69,o),
(1073,0,o),
(1294,0,cs)
);
},
{
closed = 1;
nodes = (
(656,0,o),
(745,65,o),
(745,207,cs),
(745,349,o),
(645,406,o),
(429,406,cs),
(213,406,o),
(109,348,o),
(109,207,cs),
(109,69,o),
(219,0,o),
(440,0,cs)
);
}
);
width = 2562;
}
);
note = ellipsis;
unicode = 8230;
}
{
glyphname = perthousand;
kernLeft = KO_percent;
layers = (
{
layerId = m01;
shapes = (
{
closed = 1;
nodes = (
(1160,-340,l),
(1817,1644,l),
(1579,1709,l),
(922,-274,l)
);
},
{
closed = 1;
nodes = (
(786,497,ls),
(962,497,o),
(1052,587,o),
(1051,732,cs),
(1051,1096,ls),
(1051,1132,o),
(1045,1164,o),
(1034,1193,cs),
(999,1284,o),
(917,1330,o),
(786,1330,cs),
(747,1330,l),
(747,497,l)
);
},
{
closed = 1;
nodes = (
(570,1330,l),
(531,1330,ls),
(487,1330,o),
(448,1325,o),
(415,1314,cs),
(315,1281,o),
(265,1208,o),
(265,1096,cs),
(265,732,ls),
(264,587,o),
(354,497,o),
(531,497,cs),
(570,497,l)
);
},
{
closed = 1;
nodes = (
(3242,-12,ls),
(3285,-12,o),
(3323,-7,o),
(3356,4,cs),
(3456,37,o),
(3506,110,o),
(3506,222,cs),
(3506,593,ls),
(3506,629,o),
(3501,661,o),
(3490,690,cs),
(3455,781,o),
(3372,827,o),
(3242,827,cs),
(3201,827,l),
(3201,-12,l)
);
},
{
closed = 1;
nodes = (
(2719,78,o),
(2810,-12,o),
(2985,-12,cs),
(3024,-12,l),
(3024,827,l),
(2985,827,ls),
(2810,827,o),
(2719,737,o),
(2720,593,cs),
(2720,222,ls)
);
},
{
closed = 1;
nodes = (
(2210,-12,ls),
(2253,-12,o),
(2291,-7,o),
(2324,4,cs),
(2424,37,o),
(2474,110,o),
(2474,222,cs),
(2474,593,ls),
(2474,629,o),
(2469,661,o),
(2458,690,cs),
(2423,781,o),
(2340,827,o),
(2210,827,cs),
(2169,827,l),
(2169,-12,l)
);
},
{
closed = 1;
nodes = (
(1687,78,o),
(1778,-12,o),
(1953,-12,cs),
(1992,-12,l),
(1992,827,l),
(1953,827,ls),
(1778,827,o),
(1687,737,o),
(1688,593,cs),
(1688,222,ls)
);
}
);
width = 3740;
}
);
note = perthousand;
unicode = 8240;
}
{
glyphname = euro;
layers = (
{
anchors = (
{
name = bottom;
pos = (975,0);
}
);
layerId = m01;
shapes = (
{
closed = 1;
nodes = (
(1019,1200,o),
(1056,1099,o),
(1130,1040,cs),
(1205,981,o),
(1328,951,o),
(1460,951,cs),
(1551,951,l),
(1551,1361,l),
(1019,1361,l),
(1019,1273,ls)
);
},
{
closed = 1;
nodes = (
(911,1361,l),
(834,1361,ls),
(777,1361,o),
(725,1352,o),
(678,1334,cs),
(587,1298,o),
(513,1236,o),
(457,1148,cs),
(378,1024,o),
(339,882,o),
(339,723,cs),
(339,617,o),
(358,510,o),
(397,402,cs),
(439,285,o),
(497,191,o),
(571,120,cs),
(655,40,o),
(751,0,o),
(859,0,cs),
(911,0,l)
);
},
{
closed = 1;
nodes = (
(1199,0,ls),
(1300,0,o),
(1377,25,o),
(1432,76,cs),
(1477,119,o),
(1499,171,o),
(1499,233,cs),
(1499,261,l),
(1029,261,l),
(1029,0,l)
);
},
{
closed = 1;
nodes = (
(1441,705,l),
(1441,849,l),
(138,849,l),
(138,705,l),
(373,705,l)
);
},
{
closed = 1;
nodes = (
(1353,440,l),
(1353,584,l),
(50,584,l),
(50,440,l),
(285,440,l)
);
}
);
width = 1676;
}
);
metricRight = H;
note = Euro;
unicode = 8364;
userData = {
KernOnSpecialSpacing = {
L = symbols;
R = symbols;
};
};
}
{
glyphname = trademark;
kernLeft = KO_trademark;
kernRight = KO_trademark;
layers = (
{
layerId = m01;
shapes = (
{
closed = 1;
nodes = (
(3498,340,l),
(3498,925,ls),
(3498,1072,o),
(3466,1180,o),
(3402,1250,cs),
(3333,1325,o),
(3219,1362,o),
(3060,1362,cs),
(2995,1362,l),
(2995,340,l)
);
},
{
closed = 1;
nodes = (
(2889,340,l),
(2889,1361,l),
(2383,1361,l),
(2383,340,l)
);
},
{
closed = 1;
nodes = (
(2277,340,l),
(2277,1361,l),
(1771,1361,l),
(1771,340,l)
);
},
{
closed = 1;
nodes = (
(1160,1053,o),
(1189,936,o),
(1246,872,cs),
(1292,821,o),
(1367,796,o),
(1471,796,cs),
(1558,796,l),
(1558,1361,l),
(1160,1361,l),
(1160,1222,ls)
);
},
{
closed = 1;
nodes = (
(1068,340,l),
(1068,1361,l),
(580,1361,l),
(580,340,l)
);
},
{
closed = 1;
nodes = (
(177,796,ls),
(224,796,o),
(266,801,o),
(304,812,cs),
(427,845,o),
(488,982,o),
(488,1222,cs),
(488,1361,l),
(90,1361,l),
(90,796,l)
);
}
);
width = 3588;
}
);
note = trademark;
unicode = 8482;
userData = {
KernOnSpecialSpacing = {
L = superiors;
};
};
}
{
glyphname = partialdiff;
layers = (
{
layerId = m01;
shapes = (
{
closed = 1;
nodes = (
(1096,0,ls),
(1223,0,o),
(1330,53,o),
(1418,160,cs),
(1534,300,o),
(1599,519,o),
(1623,727,cs),
(1630,795,o),
(1634,857,o),
(1634,914,cs),
(1634,971,o),
(1630,1031,o),
(1622,1094,cs),
(1595,1324,o),
(1527,1500,o),
(1418,1622,cs),
(1330,1721,o),
(1223,1771,o),
(1096,1771,cs),
(1018,1771,l),
(1018,0,l)
);
},
{
closed = 1;
nodes = (
(305,346,o),
(349,226,o),
(437,138,cs),
(529,46,o),
(659,0,o),
(827,0,cs),
(879,0,l),
(879,1020,l),
(802,1020,ls),
(638,1020,o),
(512,969,o),
(424,868,cs),
(343,773,o),
(305,645,o),
(305,498,cs)
);
}
);
width = 1874;
}
);
note = partialdiff;
unicode = 8706;
}
{
glyphname = summation;
layers = (
{
layerId = m01;
shapes = (
{
closed = 1;
nodes = (
(1014,1190,o),
(1041,1115,o),
(1095,1068,cs),
(1161,1011,o),
(1284,983,o),
(1465,983,cs),
(1569,983,l),
(1569,1361,l),
(1014,1361,l),
(1014,1294,ls)
);
},
{
closed = 1;
nodes = (
(839,2,l),
(1144,680,l),
(839,1361,l),
(305,1361,l),
(610,680,l),
(305,2,l)
);
},
{
closed = 1;
nodes = (
(1569,0,l),
(1569,406,l),
(1490,406,ls),
(1393,406,o),
(1314,397,o),
(1252,378,cs),
(1093,329,o),
(1013,235,o),
(1013,97,cs),
(1013,0,l)
);
}
);
width = 1872;
}
);
note = summation;
unicode = 8721;
}
{
glyphname = radical;
kernRight = KO_radical;
layers = (
{
layerId = m01;
shapes = (
{
closed = 1;
nodes = (
(392,680,l),
(170,680,l),
(680,-337,l),
(680,-339,l),
(681,-340,l),
(681,-337,l),
(1360,1360,l),
(1126,1360,l),
(665,123,l)
);
}
);
width = 1529;
}
);
note = radical;
unicode = 8730;
}
{
glyphname = infinity;
layers = (
{
layerId = m01;
shapes = (
{
closed = 1;
nodes = (
(720,388,o),
(796,458,o),
(863,570,c),
(882,537,o),
(903,507,o),
(924,480,cs),
(993,395,o),
(1092,352,o),
(1219,352,cs),
(1324,352,o),
(1406,393,o),
(1464,475,cs),
(1518,550,o),
(1545,649,o),
(1545,772,cs),
(1545,904,o),
(1518,1005,o),
(1464,1076,cs),
(1409,1147,o),
(1326,1186,o),
(1223,1186,cs),
(1119,1186,o),
(1054,1159,o),
(974,1092,cs),
(934,1058,o),
(892,1002,o),
(849,923,c),
(828,962,o),
(807,997,o),
(786,1030,cs),
(719,1135,o),
(632,1187,o),
(524,1187,cs),
(404,1187,o),
(312,1144,o),
(247,1058,cs),
(190,981,o),
(161,886,o),
(161,772,cs),
(161,641,o),
(191,537,o),
(252,462,cs),
(313,386,o),
(410,344,o),
(511,344,cs),
(562,344,o),
(603,349,o),
(636,360,cs)
);
},
{
closed = 1;
nodes = (
(988,802,o),
(1019,878,o),
(1058,936,cs),
(1095,990,o),
(1133,1020,o),
(1213,1020,cs),
(1293,1020,o),
(1362,933,o),
(1362,782,cs),
(1362,706,o),
(1345,641,o),
(1311,588,cs),
(1263,513,o),
(1195,492,o),
(1120,526,cs),
(1053,557,o),
(992,618,o),
(939,709,c)
);
},
{
closed = 1;
nodes = (
(726,689,o),
(683,620,o),
(647,578,cs),
(609,533,o),
(569,510,o),
(528,510,cs),
(470,510,o),
(424,534,o),
(390,581,cs),
(357,626,o),
(338,687,o),
(338,789,cs),
(338,840,o),
(355,890,o),
(390,940,cs),
(427,993,o),
(472,1020,o),
(526,1020,cs),
(615,1020,o),
(698,942,o),
(776,786,c)
);
}
);
width = 1707;
}
);
note = infinity;
unicode = 8734;
}
{
glyphname = integral;
layers = (
{
layerId = m01;
shapes = (
{
closed = 1;
nodes = (
(1559,1233,o),
(1595,1144,o),
(1668,1101,cs),
(1715,1074,o),
(1789,1060,o),
(1890,1060,cs),
(2006,1060,l),
(2006,1550,l),
(1559,1550,l),
(1559,1368,ls)
);
},
{
closed = 1;
nodes = (
(835,-340,l),
(902,-340,ls),
(989,-340,o),
(1062,-328,o),
(1122,-304,cs),
(1289,-236,o),
(1373,-85,o),
(1373,148,cs),
(1375,1549,l),
(1308,1549,ls),
(1221,1549,o),
(1148,1537,o),
(1088,1512,cs),
(921,1445,o),
(837,1294,o),
(837,1061,cs),
(837,150,l),
(835,142,l)
);
},
{
closed = 1;
nodes = (
(204,-341,l),
(651,-341,l),
(651,-159,ls),
(651,-24,o),
(615,65,o),
(542,108,cs),
(495,135,o),
(421,149,o),
(320,149,cs),
(204,149,l)
);
}
);
width = 2211;
}
);
note = integral;
unicode = 8747;
}
{
glyphname = approxequal;
kernLeft = KO_approxequal;
kernRight = KO_approxequal;
layers = (
{
layerId = m01;
shapes = (
{
closed = 1;
nodes = (
(1012,262,l),
(1012,544,l),
(717,279,l),
(384,549,l),
(90,277,l),
(90,0,l),
(382,277,l),
(717,0,l)
);
},
{
closed = 1;
nodes = (
(1012,884,l),
(1012,1166,l),
(717,901,l),
(384,1171,l),
(90,899,l),
(90,622,l),
(382,899,l),
(717,622,l)
);
}
);
width = 1102;
}
);
metricLeft = hyphen;
metricRight = hyphen;
note = approxequal;
unicode = 8776;
userData = {
KernOnSpecialSpacing = {
L = math;
R = math;
};
};
}
{
glyphname = notequal;
layers = (
{
layerId = m01;
shapes = (
{
closed = 1;
nodes = (
(351,-60,l),
(481,267,l),
(985,267,l),
(985,461,l),
(559,461,l),
(642,670,l),
(985,670,l),
(985,861,l),
(718,861,l),
(850,1190,l),
(673,1246,l),
(519,861,l),
(33,861,l),
(33,670,l),
(443,670,l),
(359,461,l),
(33,461,l),
(33,267,l),
(282,267,l),
(174,-3,l)
);
}
);
userData = {
assembly = "SVTCA[0]	/* SetFreedomAndProjectionVectorToAxis */
PUSHW[ ]	/* 4 values pushed */
3 1 0 4
CALL[ ]	/* CallFunction */
PUSHW[ ]	/* 4 values pushed */
7 1 4 4
CALL[ ]	/* CallFunction */
PUSHW[ ]	/* 1 value pushed */
7
SRP0[ ]	/* SetRefPoint0 */
PUSHW[ ]	/* 1 value pushed */
10
MDRP[10000]	/* MoveDirectRelPt */
PUSHW[ ]	/* 1 value pushed */
4
SRP0[ ]	/* SetRefPoint0 */
PUSHW[ ]	/* 1 value pushed */
12
MDRP[10000]	/* MoveDirectRelPt */
PUSHW[ ]	/* 1 value pushed */
3
SRP0[ ]	/* SetRefPoint0 */
PUSHW[ ]	/* 1 value pushed */
14
MDRP[10000]	/* MoveDirectRelPt */
PUSHW[ ]	/* 1 value pushed */
0
SRP0[ ]	/* SetRefPoint0 */
PUSHW[ ]	/* 1 value pushed */
16
MDRP[10000]	/* MoveDirectRelPt */
IUP[0]	/* InterpolateUntPts */
IUP[1]	/* InterpolateUntPts */";
};
width = 1018;
}
);
note = notequal;
unicode = 8800;
}
{
glyphname = lessequal;
kernRight = KO_lessequal;
layers = (
{
layerId = m01;
shapes = (
{
closed = 1;
nodes = (
(968,343,l),
(1093,479,l),
(617,892,l),
(1093,1322,l),
(968,1458,l),
(345,892,l)
);
},
{
closed = 1;
nodes = (
(1279,-1,l),
(1279,191,l),
(258,191,l),
(258,-1,l)
);
}
);
userData = {
assembly = "PUSHW[ ]	/* 4 values pushed */
7 7 6 4
CALL[ ]	/* CallFunction */
PUSHW[ ]	/* 1 value pushed */
7
SRP0[ ]	/* SetRefPoint0 */
PUSHW[ ]	/* 1 value pushed */
11
MDRP[11100]	/* MoveDirectRelPt */
SVTCA[0]	/* SetFreedomAndProjectionVectorToAxis */
PUSHW[ ]	/* 1 value pushed */
0
RCVT[ ]	/* ReadCVT */
IF[ ]	/* If */
PUSHW[ ]	/* 1 value pushed */
8
MDAP[1]	/* MoveDirectAbsPt */
ELSE[ ]	/* Else */
PUSHW[ ]	/* 2 values pushed */
8 14
MIAP[0]	/* MoveIndirectAbsPt */
EIF[ ]	/* EndIf */
PUSHW[ ]	/* 2 values pushed */
6 1
MIRP[10100]	/* MoveIndirectRelPt */
IUP[0]	/* InterpolateUntPts */
IUP[1]	/* InterpolateUntPts */";
};
width = 1538;
}
);
note = lessequal;
unicode = 8804;
}
{
glyphname = greaterequal;
kernLeft = KO_greaterequal;
kernRight = KO_greaterequal;
layers = (
{
layerId = m01;
shapes = (
{
closed = 1;
nodes = (
(1113,889,l),
(489,1455,l),
(365,1319,l),
(842,889,l),
(365,476,l),
(489,340,l)
);
},
{
closed = 1;
nodes = (
(1279,-1,l),
(1279,191,l),
(258,191,l),
(258,-1,l)
);
}
);
userData = {
assembly = "PUSHW[ ]	/* 4 values pushed */
7 7 6 4
CALL[ ]	/* CallFunction */
PUSHW[ ]	/* 1 value pushed */
7
SRP0[ ]	/* SetRefPoint0 */
PUSHW[ ]	/* 1 value pushed */
11
MDRP[11100]	/* MoveDirectRelPt */
SVTCA[0]	/* SetFreedomAndProjectionVectorToAxis */
PUSHW[ ]	/* 1 value pushed */
0
RCVT[ ]	/* ReadCVT */
IF[ ]	/* If */
PUSHW[ ]	/* 1 value pushed */
8
MDAP[1]	/* MoveDirectAbsPt */
ELSE[ ]	/* Else */
PUSHW[ ]	/* 2 values pushed */
8 14
MIAP[0]	/* MoveIndirectAbsPt */
EIF[ ]	/* EndIf */
PUSHW[ ]	/* 2 values pushed */
6 1
MIRP[10100]	/* MoveIndirectRelPt */
IUP[0]	/* InterpolateUntPts */
IUP[1]	/* InterpolateUntPts */";
};
width = 1538;
}
);
note = greaterequal;
unicode = 8805;
}
{
glyphname = lozenge;
layers = (
{
layerId = m01;
shapes = (
{
closed = 1;
nodes = (
(757,-339,l),
(758,-340,l),
(758,-337,l),
(1380,596,l),
(759,1527,l),
(758,1530,l),
(757,1529,l),
(756,1527,l),
(135,596,l)
);
},
{
closed = 1;
nodes = (
(757,1183,l),
(1108,596,l),
(757,6,l),
(407,596,l)
);
}
);
width = 1536;
}
);
note = lozenge;
unicode = 9674;
}
{
color = 0;
glyphname = Saltillo;
kernRight = KO_Saltillo;
layers = (
{
layerId = m01;
shapes = (
{
closed = 1;
nodes = (
(676,634,l),
(676,1661,l),
(138,1661,l),
(138,634,l)
);
}
);
width = 814;
}
);
unicode = 42891;
}
{
color = 0;
glyphname = saltillo;
layers = (
{
layerId = m01;
shapes = (
{
closed = 1;
nodes = (
(693,490,l),
(693,1531,l),
(155,1531,l),
(155,490,l)
);
}
);
width = 848;
}
);
unicode = 42892;
}
{
glyphname = Hturned;
layers = (
{
layerId = m01;
shapes = (
{
closed = 1;
nodes = (
(663,529,l),
(858,529,l),
(858,2,l),
(1396,2,l),
(1396,1361,l),
(858,1361,l),
(858,680,l),
(663,680,l)
);
},
{
closed = 1;
nodes = (
(110,680,l),
(110,437,ls),
(110,366,o),
(118,304,o),
(134,250,cs),
(181,83,o),
(328,0,o),
(573,0,cs),
(663,0,l),
(663,680,l)
);
}
);
width = 1521;
}
);
unicode = 42893;
}
{
color = 4;
glyphname = Eng.loclNSM;
kernLeft = KO_H;
kernRight = KO_N;
layers = (
{
layerId = m01;
shapes = (
{
closed = 1;
nodes = (
(831,-538,l),
(921,-538,ls),
(1088,-538,o),
(1208,-501,o),
(1281,-426,cs),
(1348,-357,o),
(1382,-248,o),
(1382,-101,cs),
(1382,924,ls),
(1382,995,o),
(1374,1057,o),
(1358,1112,cs),
(1311,1278,o),
(1164,1361,o),
(919,1361,cs),
(829,1361,l),
(829,0,l)
);
},
{
closed = 1;
nodes = (
(663,0,l),
(663,1361,l),
(125,1361,l),
(125,0,l)
);
}
);
width = 1492;
}
);
metricLeft = H;
metricRight = "=|U";
note = Eng;
}
{
glyphname = .notdef;
layers = (
{
layerId = m01;
shapes = (
{
closed = 1;
nodes = (
(1700,-170,l),
(1700,1870,l),
(170,1870,l),
(170,-170,l)
);
},
{
closed = 1;
nodes = (
(480,1212,l),
(616,1348,l),
(943,1020,l),
(1271,1348,l),
(1408,1212,l),
(1080,884,l),
(1408,557,l),
(1272,421,l),
(944,748,l),
(616,421,l),
(480,557,l),
(807,884,l)
);
}
);
userData = {
assembly = "PUSHW[ ]	/* 1 value pushed */
16
MDAP[1]	/* MoveDirectAbsPt */
PUSHW[ ]	/* 1 value pushed */
8
MDAP[1]	/* MoveDirectAbsPt */
PUSHW[ ]	/* 1 value pushed */
16
SRP0[ ]	/* SetRefPoint0 */
PUSHW[ ]	/* 1 value pushed */
0
MDRP[10000]	/* MoveDirectRelPt */
PUSHW[ ]	/* 1 value pushed */
0
MDAP[1]	/* MoveDirectAbsPt */
PUSHW[ ]	/* 1 value pushed */
8
SRP0[ ]	/* SetRefPoint0 */
PUSHW[ ]	/* 2 values pushed */
2 8
MIRP[10100]	/* MoveIndirectRelPt */
PUSHW[ ]	/* 1 value pushed */
0
SRP0[ ]	/* SetRefPoint0 */
PUSHW[ ]	/* 2 values pushed */
14 8
MIRP[10100]	/* MoveIndirectRelPt */
PUSHW[ ]	/* 1 value pushed */
4
MDRP[10000]	/* MoveDirectRelPt */
PUSHW[ ]	/* 1 value pushed */
8
SRP0[ ]	/* SetRefPoint0 */
PUSHW[ ]	/* 1 value pushed */
10
MDRP[10000]	/* MoveDirectRelPt */
PUSHW[ ]	/* 1 value pushed */
2
SRP0[ ]	/* SetRefPoint0 */
PUSHW[ ]	/* 1 value pushed */
17
MDRP[11100]	/* MoveDirectRelPt */
SVTCA[0]	/* SetFreedomAndProjectionVectorToAxis */
PUSHW[ ]	/* 3 values pushed */
1 2 3
CALL[ ]	/* CallFunction */
IUP[0]	/* InterpolateUntPts */
IUP[1]	/* InterpolateUntPts */";
};
width = 1876;
}
);
note = .notdef;
}
{
glyphname = acutecomb.case;
layers = (
{
anchors = (
{
name = _top;
pos = (297,1361);
},
{
name = top;
pos = (448,2000);
}
);
layerId = m01;
shapes = (
{
closed = 1;
nodes = (
(137,1612,ls),
(167,1581,o),
(201,1561,o),
(237,1550,cs),
(353,1515,o),
(483,1570,o),
(626,1713,cs),
(759,1846,l),
(518,2086,l),
(90,1658,l)
);
}
);
width = 849;
}
);
metricLeft = hyphen;
metricRight = hyphen;
note = acute.cap;
}
{
glyphname = brevecomb.case;
layers = (
{
anchors = (
{
name = _top;
pos = (469,1361);
},
{
name = top;
pos = (469,1890);
}
);
layerId = m01;
shapes = (
{
closed = 1;
nodes = (
(90,1704,o),
(199,1538,o),
(471,1538,cs),
(741,1538,o),
(850,1704,o),
(850,1906,c),
(90,1906,l)
);
}
);
width = 940;
}
);
metricLeft = hyphen;
metricRight = hyphen;
note = breve.cap;
}
{
glyphname = brevecomb_acutecomb;
layers = (
{
anchors = (
{
name = _top;
pos = (471,1020);
},
{
name = top;
pos = (477,2194);
}
);
layerId = m01;
shapes = (
{
closed = 1;
nodes = (
(154,1300,o),
(246,1160,o),
(475,1160,cs),
(702,1160,o),
(794,1300,o),
(794,1470,c),
(154,1470,l)
);
},
{
closed = 1;
nodes = (
(313,1644,ls),
(338,1618,o),
(367,1601,o),
(397,1592,cs),
(495,1562,o),
(605,1608,o),
(725,1729,cs),
(837,1841,l),
(634,2043,l),
(273,1683,l)
);
}
);
width = 940;
}
);
}
{
glyphname = brevecomb_gravecomb;
layers = (
{
anchors = (
{
name = _top;
pos = (466,1020);
},
{
name = top;
pos = (472,2194);
}
);
layerId = m01;
shapes = (
{
closed = 1;
nodes = (
(148,1300,o),
(240,1160,o),
(469,1160,cs),
(697,1160,o),
(789,1300,o),
(789,1470,c),
(148,1470,l)
);
},
{
closed = 1;
nodes = (
(336,2043,l),
(133,1841,l),
(245,1729,ls),
(366,1608,o),
(475,1562,o),
(573,1592,cs),
(603,1601,o),
(632,1618,o),
(657,1644,cs),
(697,1683,l)
);
}
);
width = 940;
}
);
}
{
glyphname = brevecomb_hookabovecomb;
layers = (
{
anchors = (
{
name = _top;
pos = (394,1020);
},
{
name = top;
pos = (400,1282);
}
);
layerId = m01;
shapes = (
{
closed = 1;
nodes = (
(76,1300,o),
(168,1160,o),
(397,1160,cs),
(625,1160,o),
(717,1300,o),
(717,1470,c),
(76,1470,l)
);
},
{
closed = 1;
nodes = (
(247,1622,l),
(557,1622,l),
(557,1851,o),
(417,1943,o),
(247,1943,c)
);
}
);
width = 940;
}
);
}
{
glyphname = brevecomb_tildecomb;
layers = (
{
anchors = (
{
name = _top;
pos = (474,1020);
},
{
name = top;
pos = (474,1894);
}
);
layerId = m01;
shapes = (
{
closed = 1;
nodes = (
(151,1300,o),
(243,1160,o),
(472,1160,cs),
(699,1160,o),
(791,1300,o),
(791,1470,c),
(151,1470,l)
);
},
{
closed = 1;
nodes = (
(511,1711,o),
(586,1677,o),
(660,1705,cs),
(683,1714,o),
(704,1729,o),
(722,1750,cs),
(736,1766,l),
(885,1961,l),
(870,1975,ls),
(848,1993,o),
(826,2005,o),
(802,2010,cs),
(733,2026,o),
(657,1988,o),
(582,1907,c),
(485,1996,ls),
(423,2050,o),
(358,2082,o),
(284,2053,cs),
(260,2045,o),
(240,2030,o),
(221,2009,cs),
(208,1993,l),
(58,1798,l),
(73,1785,ls),
(95,1766,o),
(118,1754,o),
(141,1748,cs),
(210,1733,o),
(286,1771,o),
(360,1851,c),
(455,1763,ls)
);
}
);
width = 940;
}
);
}
{
glyphname = caroncomb.alt;
layers = (
{
layerId = m01;
shapes = (
{
closed = 1;
nodes = (
(153,937,ls),
(346,937,o),
(428,980,o),
(459,1087,cs),
(474,1140,o),
(482,1221,o),
(482,1329,cs),
(482,1586,l),
(90,1586,l),
(90,937,l)
);
}
);
width = 572;
}
);
metricLeft = hyphen;
metricRight = hyphen;
userData = {
KernOnSpecialSpacing = {
L = NoKerning;
R = NoKerning;
};
};
}
{
glyphname = caroncomb.case;
layers = (
{
anchors = (
{
name = _top;
pos = (617,1361);
},
{
name = top;
pos = (617,2000);
}
);
layerId = m01;
shapes = (
{
closed = 1;
nodes = (
(1144,1943,l),
(1098,1988,ls),
(1063,2023,o),
(1016,2040,o),
(959,2040,cs),
(867,2040,o),
(772,1991,o),
(674,1893,cs),
(617,1832,l),
(557,1893,ls),
(460,1991,o),
(363,2040,o),
(265,2040,cs),
(213,2040,o),
(170,2023,o),
(135,1988,cs),
(90,1943,l),
(617,1488,l)
);
}
);
width = 1234;
}
);
metricLeft = hyphen;
metricRight = hyphen;
note = caron.cap;
}
{
glyphname = cedillacomb.case;
layers = (
{
anchors = (
{
name = _bottom;
pos = (355,0);
},
{
name = bottom;
pos = (355,-556);
}
);
layerId = m01;
shapes = (
{
closed = 1;
nodes = (
(620,-259,l),
(426,-9,l),
(222,-158,ls),
(142,-216,o),
(98,-275,o),
(90,-334,cs),
(87,-362,o),
(99,-393,o),
(126,-428,cs),
(224,-556,l)
);
}
);
width = 710;
}
);
metricLeft = hyphen;
metricRight = hyphen;
note = cedilla.cap;
}
{
glyphname = circumflexcomb.case;
layers = (
{
anchors = (
{
name = _top;
pos = (618,1361);
},
{
name = top;
pos = (618,1930);
}
);
layerId = m01;
shapes = (
{
closed = 1;
nodes = (
(362,1488,o),
(476,1540,o),
(589,1665,cs),
(618,1696,l),
(678,1635,ls),
(775,1537,o),
(872,1488,o),
(971,1488,cs),
(1022,1488,o),
(1065,1505,o),
(1100,1540,cs),
(1145,1585,l),
(618,2040,l),
(90,1585,l),
(135,1540,ls),
(171,1505,o),
(222,1488,o),
(289,1488,cs)
);
}
);
width = 1235;
}
);
metricLeft = hyphen;
metricRight = hyphen;
note = circumflex.cap;
}
{
glyphname = circumflexcomb_acutecomb;
layers = (
{
anchors = (
{
name = _top;
pos = (591,1020);
},
{
name = top;
pos = (589,2305);
}
);
layerId = m01;
shapes = (
{
closed = 1;
nodes = (
(649,1595,l),
(529,1595,l),
(168,1234,l),
(187,1216,ls),
(213,1189,o),
(241,1173,o),
(271,1163,cs),
(369,1134,o),
(473,1175,o),
(588,1298,c),
(708,1180,o),
(813,1135,o),
(910,1165,cs),
(941,1174,o),
(970,1189,o),
(994,1217,cs),
(1010,1234,l)
);
},
{
closed = 1;
nodes = (
(425,1755,ls),
(450,1729,o),
(479,1712,o),
(509,1703,cs),
(607,1673,o),
(716,1720,o),
(837,1840,cs),
(949,1952,l),
(746,2155,l),
(385,1794,l)
);
}
);
width = 1178;
}
);
}
{
glyphname = circumflexcomb_gravecomb;
layers = (
{
anchors = (
{
name = _top;
pos = (591,1020);
},
{
name = top;
pos = (589,2305);
}
);
layerId = m01;
shapes = (
{
closed = 1;
nodes = (
(649,1595,l),
(529,1595,l),
(168,1234,l),
(187,1216,ls),
(213,1189,o),
(241,1173,o),
(271,1163,cs),
(369,1134,o),
(473,1175,o),
(588,1298,c),
(708,1180,o),
(813,1135,o),
(910,1165,cs),
(941,1174,o),
(970,1189,o),
(994,1217,cs),
(1010,1234,l)
);
},
{
closed = 1;
nodes = (
(453,2155,l),
(250,1952,l),
(362,1840,ls),
(483,1720,o),
(592,1673,o),
(690,1703,cs),
(720,1712,o),
(749,1729,o),
(774,1755,cs),
(814,1794,l)
);
}
);
width = 1178;
}
);
}
{
glyphname = circumflexcomb_tildecomb;
layers = (
{
anchors = (
{
name = _top;
pos = (591,1020);
},
{
name = top;
pos = (589,2005);
}
);
layerId = m01;
shapes = (
{
closed = 1;
nodes = (
(649,1595,l),
(530,1595,l),
(169,1234,l),
(187,1216,ls),
(213,1189,o),
(241,1173,o),
(272,1163,cs),
(369,1134,o),
(473,1175,o),
(589,1298,c),
(708,1180,o),
(814,1135,o),
(911,1165,cs),
(941,1174,o),
(970,1189,o),
(995,1217,cs),
(1010,1234,l)
);
},
{
closed = 1;
nodes = (
(631,1711,o),
(706,1677,o),
(780,1705,cs),
(803,1714,o),
(824,1729,o),
(842,1750,cs),
(856,1766,l),
(1005,1961,l),
(990,1975,ls),
(968,1993,o),
(946,2005,o),
(922,2010,cs),
(853,2026,o),
(777,1988,o),
(702,1907,c),
(605,1996,ls),
(543,2050,o),
(478,2082,o),
(404,2053,cs),
(380,2045,o),
(360,2030,o),
(341,2009,cs),
(328,1993,l),
(178,1798,l),
(193,1785,ls),
(215,1766,o),
(238,1754,o),
(261,1748,cs),
(330,1733,o),
(406,1771,o),
(480,1851,c),
(575,1763,ls)
);
}
);
width = 1178;
}
);
}
{
glyphname = commaaccentcomb.loclMAH;
layers = (
{
anchors = (
{
name = _bottom;
pos = (326,0);
}
);
layerId = m01;
shapes = (
{
closed = 1;
nodes = (
(438,-513,o),
(586,-430,o),
(586,-305,cs),
(586,-213,ls),
(586,-104,o),
(500,-50,o),
(328,-50,cs),
(149,-50,o),
(65,-98,o),
(65,-213,cs),
(65,-322,o),
(147,-378,o),
(313,-382,c),
(313,-513,l)
);
}
);
width = 600;
}
);
}
{
glyphname = dieresiscomb.case;
layers = (
{
anchors = (
{
name = _top;
pos = (628,1361);
},
{
name = top;
pos = (628,1855);
}
);
layerId = m01;
shapes = (
{
closed = 1;
nodes = (
(1067,1890,o),
(906,1890,cs),
(784,1890,o),
(708,1855,o),
(708,1721,cs),
(708,1587,o),
(772,1544,o),
(979,1544,cs),
(1108,1544,o),
(1166,1592,o),
(1166,1721,cs),
(1166,1882,o)
);
},
{
closed = 1;
nodes = (
(449,1888,o),
(288,1888,cs),
(166,1888,o),
(90,1853,o),
(90,1719,cs),
(90,1585,o),
(154,1542,o),
(361,1542,cs),
(490,1542,o),
(548,1590,o),
(548,1719,cs),
(548,1880,o)
);
}
);
width = 1256;
}
);
metricLeft = hyphen;
metricRight = hyphen;
note = dieresis.cap;
}
{
glyphname = dotaccentcomb.case;
layers = (
{
anchors = (
{
name = _top;
pos = (408,1361);
},
{
name = top;
pos = (408,2000);
}
);
layerId = m01;
shapes = (
{
closed = 1;
nodes = (
(637,1554,o),
(726,1619,o),
(726,1761,cs),
(726,1903,o),
(626,1960,o),
(410,1960,cs),
(194,1960,o),
(90,1902,o),
(90,1761,cs),
(90,1623,o),
(200,1554,o),
(421,1554,cs)
);
}
);
width = 816;
}
);
metricLeft = hyphen;
metricRight = hyphen;
note = dotaccent.cap;
}
{
glyphname = gravecomb.case;
layers = (
{
anchors = (
{
name = _top;
pos = (448,1361);
},
{
name = top;
pos = (448,2000);
}
);
layerId = m01;
shapes = (
{
closed = 1;
nodes = (
(331,2053,l),
(90,1813,l),
(223,1680,ls),
(366,1537,o),
(496,1482,o),
(612,1517,cs),
(648,1528,o),
(682,1548,o),
(712,1579,cs),
(759,1625,l)
);
}
);
width = 849;
}
);
metricLeft = hyphen;
metricRight = hyphen;
note = grave.cap;
}
{
glyphname = hungarumlautcomb.case;
layers = (
{
anchors = (
{
name = _top;
pos = (563,1361);
},
{
name = top;
pos = (768,2227);
}
);
layerId = m01;
shapes = (
{
closed = 1;
nodes = (
(137,1574,ls),
(167,1543,o),
(201,1523,o),
(237,1512,cs),
(353,1477,o),
(483,1532,o),
(626,1675,cs),
(759,1808,l),
(518,2048,l),
(90,1620,l)
);
},
{
closed = 1;
nodes = (
(741,1574,ls),
(771,1543,o),
(805,1523,o),
(841,1512,cs),
(957,1477,o),
(1087,1532,o),
(1230,1675,cs),
(1363,1808,l),
(1122,2048,l),
(694,1620,l)
);
}
);
width = 1453;
}
);
metricLeft = hyphen;
metricRight = hyphen;
note = hungarumlaut.cap;
}
{
glyphname = macroncomb.case;
layers = (
{
anchors = (
{
name = _top;
pos = (455,1361);
},
{
name = top;
pos = (455,1721);
}
);
layerId = m01;
shapes = (
{
closed = 1;
nodes = (
(820,1513,l),
(820,1790,l),
(90,1790,l),
(90,1513,l)
);
}
);
userData = {
assembly = "PUSHW[ ]	/* 4 values pushed */
1 10 0 4
CALL[ ]	/* CallFunction */
PUSHW[ ]	/* 1 value pushed */
1
SRP0[ ]	/* SetRefPoint0 */
PUSHW[ ]	/* 1 value pushed */
5
MDRP[11100]	/* MoveDirectRelPt */
SVTCA[0]	/* SetFreedomAndProjectionVectorToAxis */
PUSHW[ ]	/* 4 values pushed */
1 3 2 4
CALL[ ]	/* CallFunction */
IUP[0]	/* InterpolateUntPts */
IUP[1]	/* InterpolateUntPts */";
};
width = 910;
}
);
metricLeft = hyphen;
metricRight = hyphen;
note = macron.cap;
}
{
glyphname = ringcomb.case;
layers = (
{
anchors = (
{
name = _top;
pos = (474,1361);
},
{
name = top;
pos = (476,2000);
}
);
layerId = m01;
shapes = (
{
closed = 1;
nodes = (
(664,1450,o),
(862,1558,o),
(862,1761,cs),
(862,1964,o),
(690,2070,o),
(484,2070,cs),
(277,2070,o),
(90,1961,o),
(90,1761,cs),
(90,1559,o),
(259,1450,o),
(461,1450,cs)
);
},
{
closed = 1;
nodes = (
(327,1844,o),
(392,1892,o),
(482,1892,cs),
(572,1892,o),
(624,1844,o),
(624,1761,cs),
(624,1678,o),
(557,1629,o),
(466,1629,cs),
(375,1629,o),
(327,1678,o),
(327,1761,cs)
);
}
);
width = 952;
}
);
metricLeft = hyphen;
metricRight = hyphen;
note = ring.cap;
}
{
glyphname = tildecomb.case;
layers = (
{
anchors = (
{
name = _top;
pos = (658,1361);
},
{
name = top;
pos = (658,2000);
}
);
layerId = m01;
shapes = (
{
closed = 1;
nodes = (
(214,1542,o),
(249,1549,o),
(280,1562,cs),
(369,1601,o),
(436,1677,o),
(480,1790,c),
(493,1757,o),
(509,1726,o),
(528,1696,cs),
(595,1593,o),
(681,1542,o),
(785,1542,cs),
(885,1542,ls),
(990,1542,o),
(1073,1574,o),
(1136,1638,cs),
(1195,1698,o),
(1225,1773,o),
(1225,1863,cs),
(1225,2000,l),
(1139,2000,ls),
(1101,2000,o),
(1066,1993,o),
(1034,1980,cs),
(943,1940,o),
(877,1863,o),
(835,1750,c),
(808,1823,o),
(771,1881,o),
(722,1924,cs),
(665,1975,o),
(602,2000,o),
(531,2000,cs),
(430,2000,ls),
(325,2000,o),
(241,1968,o),
(178,1904,cs),
(119,1844,o),
(90,1769,o),
(90,1679,cs),
(90,1542,l),
(176,1542,ls)
);
}
);
width = 1315;
}
);
metricLeft = hyphen;
metricRight = hyphen;
note = tilde.cap;
}
